# This file uses centimeters as units for non-parametric coordinates.

mtllib Monitor.mtl
g default
v -0.127508 -0.111141 1.639547
v 0.127508 -0.111141 1.639547
v -0.127508 1.864818 1.639547
v 0.127508 1.864818 1.639547
v -0.127508 1.864818 -1.639547
v 0.127508 1.864818 -1.639547
v -0.127508 -0.111141 -1.639547
v 0.127508 -0.111141 -1.639547
v 0.119203 -0.046793 -1.532761
v 0.119203 -0.046793 1.532761
v 0.119203 1.800469 -1.532761
v 0.119203 1.800469 1.532761
v -0.119203 -0.046793 -1.532761
v -0.119203 -0.046793 1.532761
v -0.119203 1.800470 1.532761
v -0.119203 1.800470 -1.532761
v 0.024450 -0.046793 -1.532761
v 0.024450 -0.046793 1.532761
v 0.024450 1.800469 -1.532761
v 0.024450 1.800469 1.532761
v -0.106010 -0.046793 -1.532761
v -0.106010 -0.046793 1.532761
v -0.106010 1.800470 1.532761
v -0.106010 1.800470 -1.532761
vt 0.375000 0.000000
vt 0.625000 0.000000
vt 0.375000 0.250000
vt 0.625000 0.250000
vt 0.375000 0.500000
vt 0.625000 0.500000
vt 0.375000 0.750000
vt 0.625000 0.750000
vt 0.375000 1.000000
vt 0.625000 1.000000
vt 0.875000 0.000000
vt 0.875000 0.250000
vt 0.125000 0.000000
vt 0.125000 0.250000
vt 0.625000 0.000000
vt 0.875000 0.000000
vt 0.875000 0.250000
vt 0.625000 0.250000
vt 0.125000 0.000000
vt 0.375000 0.000000
vt 0.375000 0.250000
vt 0.125000 0.250000
vt 0.625000 0.000000
vt 0.875000 0.000000
vt 0.875000 0.250000
vt 0.625000 0.250000
vt 0.125000 0.000000
vt 0.375000 0.000000
vt 0.375000 0.250000
vt 0.125000 0.250000
vn 0.000000 0.000000 1.000000
vn 0.000000 0.000000 1.000000
vn 0.000000 0.000000 1.000000
vn 0.000000 0.000000 1.000000
vn 0.000000 1.000000 0.000000
vn 0.000000 1.000000 0.000000
vn 0.000000 1.000000 0.000000
vn 0.000000 1.000000 0.000000
vn 0.000000 0.000000 -1.000000
vn 0.000000 0.000000 -1.000000
vn 0.000000 0.000000 -1.000000
vn 0.000000 0.000000 -1.000000
vn 0.000000 -1.000000 0.000000
vn 0.000000 -1.000000 0.000000
vn 0.000000 -1.000000 0.000000
vn 0.000000 -1.000000 0.000000
vn 1.000000 0.000000 0.000000
vn 1.000000 0.000000 0.000000
vn 1.000000 0.000000 0.000000
vn 1.000000 0.000000 0.000000
vn -1.000000 0.000000 0.000000
vn -1.000000 0.000000 0.000000
vn -1.000000 0.000000 0.000000
vn -1.000000 0.000000 0.000000
vn 0.991774 0.127997 0.000000
vn 0.991774 0.127997 0.000000
vn 0.991774 0.127997 0.000000
vn 0.991774 0.127997 0.000000
vn 0.996990 0.000000 0.077536
vn 0.996990 0.000000 0.077536
vn 0.996990 0.000000 0.077536
vn 0.996990 0.000000 0.077536
vn 0.991774 -0.127997 0.000000
vn 0.991774 -0.127997 0.000000
vn 0.991774 -0.127997 0.000000
vn 0.991774 -0.127997 0.000000
vn 0.996990 0.000000 -0.077536
vn 0.996990 0.000000 -0.077536
vn 0.996990 0.000000 -0.077536
vn 0.996990 0.000000 -0.077536
vn -0.991774 0.127998 0.000000
vn -0.991774 0.127998 0.000000
vn -0.991774 0.127998 0.000000
vn -0.991774 0.127998 0.000000
vn -0.996990 0.000000 -0.077536
vn -0.996990 0.000000 -0.077536
vn -0.996990 0.000000 -0.077536
vn -0.996990 0.000000 -0.077536
vn -0.991774 -0.127998 0.000000
vn -0.991774 -0.127998 0.000000
vn -0.991774 -0.127998 0.000000
vn -0.991774 -0.127998 0.000000
vn -0.996990 0.000000 0.077536
vn -0.996990 0.000000 0.077536
vn -0.996990 0.000000 0.077536
vn -0.996990 0.000000 0.077536
vn 0.000000 1.000000 0.000000
vn 0.000000 1.000000 0.000000
vn 0.000000 1.000000 0.000000
vn 0.000000 1.000000 0.000000
vn 0.000000 0.000000 1.000000
vn 0.000000 0.000000 1.000000
vn 0.000000 0.000000 1.000000
vn 0.000000 0.000000 1.000000
vn 0.000000 -1.000000 0.000000
vn 0.000000 -1.000000 0.000000
vn 0.000000 -1.000000 0.000000
vn 0.000000 -1.000000 0.000000
vn 0.000000 0.000000 -1.000000
vn 0.000000 0.000000 -1.000000
vn 0.000000 0.000000 -1.000000
vn 0.000000 0.000000 -1.000000
vn 0.000000 1.000000 0.000000
vn 0.000000 1.000000 0.000000
vn 0.000000 1.000000 0.000000
vn 0.000000 1.000000 0.000000
vn 0.000000 0.000000 -1.000000
vn 0.000000 0.000000 -1.000000
vn 0.000000 0.000000 -1.000000
vn 0.000000 0.000000 -1.000000
vn 0.000000 -1.000000 0.000000
vn 0.000000 -1.000000 0.000000
vn 0.000000 -1.000000 0.000000
vn 0.000000 -1.000000 0.000000
vn 0.000000 0.000000 1.000000
vn 0.000000 0.000000 1.000000
vn 0.000000 0.000000 1.000000
vn 0.000000 0.000000 1.000000
s off
g pCube1
usemtl initialShadingGroup
f 1/1/1 2/2/2 4/4/3 3/3/4
f 3/3/5 4/4/6 6/6/7 5/5/8
f 5/5/9 6/6/10 8/8/11 7/7/12
f 7/7/13 8/8/14 2/10/15 1/9/16
f 18/23/17 17/24/18 19/25/19 20/26/20
f 21/27/21 22/28/22 23/29/23 24/30/24
f 2/2/25 8/11/26 9/16/27 10/15/28
f 8/11/29 6/12/30 11/17/31 9/16/32
f 6/12/33 4/4/34 12/18/35 11/17/36
f 4/4/37 2/2/38 10/15/39 12/18/40
f 7/13/41 1/1/42 14/20/43 13/19/44
f 1/1/45 3/3/46 15/21/47 14/20/48
f 3/3/49 5/14/50 16/22/51 15/21/52
f 5/14/53 7/13/54 13/19/55 16/22/56
f 10/15/57 9/16/58 17/24/59 18/23/60
f 9/16/61 11/17/62 19/25/63 17/24/64
f 11/17/65 12/18/66 20/26/67 19/25/68
f 12/18/69 10/15/70 18/23/71 20/26/72
f 13/19/73 14/20/74 22/28/75 21/27/76
f 14/20/77 15/21/78 23/29/79 22/28/80
f 15/21/81 16/22/82 24/30/83 23/29/84
f 16/22/85 13/19/86 21/27/87 24/30/88
g default
v -0.054899 -0.148451 -1.418289
v 0.054899 -0.148451 -1.418289
v -0.054899 -0.071419 -1.418289
v 0.054899 -0.071419 -1.418289
v -0.054899 -0.071419 -1.528086
v 0.054899 -0.071419 -1.528086
v -0.054899 -0.148451 -1.528086
v 0.054899 -0.148451 -1.528086
vt 0.375000 0.000000
vt 0.625000 0.000000
vt 0.375000 0.250000
vt 0.625000 0.250000
vt 0.375000 0.500000
vt 0.625000 0.500000
vt 0.375000 0.750000
vt 0.625000 0.750000
vt 0.375000 1.000000
vt 0.625000 1.000000
vt 0.875000 0.000000
vt 0.875000 0.250000
vt 0.125000 0.000000
vt 0.125000 0.250000
vn 0.000000 0.000000 1.000000
vn 0.000000 0.000000 1.000000
vn 0.000000 0.000000 1.000000
vn 0.000000 0.000000 1.000000
vn 0.000000 1.000000 0.000000
vn 0.000000 1.000000 0.000000
vn 0.000000 1.000000 0.000000
vn 0.000000 1.000000 0.000000
vn 0.000000 0.000000 -1.000000
vn 0.000000 0.000000 -1.000000
vn 0.000000 0.000000 -1.000000
vn 0.000000 0.000000 -1.000000
vn 0.000000 -1.000000 0.000000
vn 0.000000 -1.000000 0.000000
vn 0.000000 -1.000000 0.000000
vn 0.000000 -1.000000 0.000000
vn 1.000000 0.000000 0.000000
vn 1.000000 0.000000 0.000000
vn 1.000000 0.000000 0.000000
vn 1.000000 0.000000 0.000000
vn -1.000000 0.000000 0.000000
vn -1.000000 0.000000 0.000000
vn -1.000000 0.000000 0.000000
vn -1.000000 0.000000 0.000000
s off
g pCube2
usemtl initialShadingGroup
f 25/31/89 26/32/90 28/34/91 27/33/92
f 27/33/93 28/34/94 30/36/95 29/35/96
f 29/35/97 30/36/98 32/38/99 31/37/100
f 31/37/101 32/38/102 26/40/103 25/39/104
f 26/32/105 32/41/106 30/42/107 28/34/108
f 31/43/109 25/31/110 27/33/111 29/44/112
g default
v -0.678606 -0.020322 0.223490
v -0.088598 0.589314 0.223490
v -0.844736 -0.022379 0.223490
v -0.089710 0.755453 0.223490
v -0.844736 -0.022379 -0.223490
v -0.089710 0.755453 -0.223490
v -0.678606 -0.020322 -0.223490
v -0.088598 0.589314 -0.223490
v -0.148212 -0.772267 -0.223490
v -0.148212 -0.772267 0.223490
v -0.314343 -0.774324 0.223490
v -0.314343 -0.774324 -0.223490
v 0.184744 -0.956270 -1.119321
v 0.184744 -0.956270 1.119321
v -0.647299 -0.966572 1.119321
v -0.647299 -0.966572 -1.119321
vt 0.375000 0.000000
vt 0.625000 0.000000
vt 0.375000 0.250000
vt 0.625000 0.250000
vt 0.375000 0.500000
vt 0.625000 0.500000
vt 0.375000 0.750000
vt 0.625000 0.750000
vt 0.375000 1.000000
vt 0.625000 1.000000
vt 0.875000 0.000000
vt 0.875000 0.250000
vt 0.125000 0.000000
vt 0.125000 0.250000
vt 0.125000 0.000000
vt 0.375000 0.000000
vt 0.375000 0.250000
vt 0.125000 0.250000
vt 0.125000 0.000000
vt 0.375000 0.000000
vt 0.375000 0.250000
vt 0.125000 0.250000
vn 0.000000 0.000000 1.000000
vn 0.000000 0.000000 1.000000
vn 0.000000 0.000000 1.000000
vn 0.000000 0.000000 1.000000
vn -0.717548 0.696509 0.000000
vn -0.717548 0.696509 0.000000
vn -0.717548 0.696509 0.000000
vn -0.717548 0.696509 0.000000
vn 0.000000 0.000000 -1.000000
vn 0.000000 0.000000 -1.000000
vn 0.000000 0.000000 -1.000000
vn 0.000000 0.000000 -1.000000
vn 0.718580 -0.695444 0.000000
vn 0.718580 -0.695444 0.000000
vn 0.718580 -0.695444 0.000000
vn 0.718580 -0.695444 0.000000
vn 0.999978 0.006693 0.000000
vn 0.999978 0.006693 0.000000
vn 0.999978 0.006693 0.000000
vn 0.999978 0.006693 0.000000
vn 0.012381 -0.999923 0.000000
vn 0.012381 -0.999923 0.000000
vn 0.012381 -0.999923 0.000000
vn 0.012381 -0.999923 0.000000
vn 0.817168 0.576400 0.000000
vn 0.817168 0.576400 0.000000
vn 0.817168 0.576400 0.000000
vn 0.817168 0.576400 0.000000
vn 0.000000 0.000000 1.000000
vn 0.000000 0.000000 1.000000
vn -0.817168 -0.576400 0.000000
vn -0.817168 -0.576400 0.000000
vn -0.817168 -0.576400 0.000000
vn -0.817168 -0.576400 0.000000
vn 0.000000 0.000000 -1.000000
vn 0.000000 0.000000 -1.000000
vn 0.483688 0.875241 0.000000
vn 0.483688 0.875241 0.000000
vn 0.483688 0.875241 0.000000
vn 0.483688 0.875241 0.000000
vn -0.012116 0.978581 0.205503
vn -0.012116 0.978581 0.205503
vn -0.012116 0.978581 0.205503
vn -0.012116 0.978581 0.205503
vn -0.500030 0.866008 0.000000
vn -0.500030 0.866008 0.000000
vn -0.500030 0.866008 0.000000
vn -0.500030 0.866008 0.000000
vn -0.012116 0.978581 -0.205503
vn -0.012116 0.978581 -0.205503
vn -0.012116 0.978581 -0.205503
vn -0.012116 0.978581 -0.205503
s 1
g pCube3
usemtl initialShadingGroup
f 33/45/113 34/46/114 36/48/115 35/47/116
s off
f 35/47/117 36/48/118 38/50/119 37/49/120
s 2
f 37/49/121 38/50/122 40/52/123 39/51/124
s off
f 39/51/125 40/52/126 34/54/127 33/53/128
f 34/46/129 40/55/130 38/56/131 36/48/132
f 45/63/133 46/64/134 47/65/135 48/66/136
f 39/57/137 33/45/138 42/60/139 41/59/140
s 1
f 33/45/113 35/47/116 43/61/141 42/60/142
s off
f 35/47/143 37/58/144 44/62/145 43/61/146
s 2
f 37/58/121 39/57/124 41/59/147 44/62/148
s off
f 41/59/149 42/60/150 46/64/151 45/63/152
f 42/60/153 43/61/154 47/65/155 46/64/156
f 43/61/157 44/62/158 48/66/159 47/65/160
f 44/62/161 41/59/162 45/63/163 48/66/164
g default
v -0.054899 -0.148451 -1.418289
v 0.054899 -0.148451 -1.418289
v -0.054899 -0.071419 -1.418289
v 0.054899 -0.071419 -1.418289
v -0.054899 -0.071419 -1.528086
v 0.054899 -0.071419 -1.528086
v -0.054899 -0.148451 -1.528086
v 0.054899 -0.148451 -1.528086
vt 0.375000 0.000000
vt 0.625000 0.000000
vt 0.375000 0.250000
vt 0.625000 0.250000
vt 0.375000 0.500000
vt 0.625000 0.500000
vt 0.375000 0.750000
vt 0.625000 0.750000
vt 0.375000 1.000000
vt 0.625000 1.000000
vt 0.875000 0.000000
vt 0.875000 0.250000
vt 0.125000 0.000000
vt 0.125000 0.250000
vn 0.000000 0.000000 1.000000
vn 0.000000 0.000000 1.000000
vn 0.000000 0.000000 1.000000
vn 0.000000 0.000000 1.000000
vn 0.000000 1.000000 0.000000
vn 0.000000 1.000000 0.000000
vn 0.000000 1.000000 0.000000
vn 0.000000 1.000000 0.000000
vn 0.000000 0.000000 -1.000000
vn 0.000000 0.000000 -1.000000
vn 0.000000 0.000000 -1.000000
vn 0.000000 0.000000 -1.000000
vn 0.000000 -1.000000 0.000000
vn 0.000000 -1.000000 0.000000
vn 0.000000 -1.000000 0.000000
vn 0.000000 -1.000000 0.000000
vn 1.000000 0.000000 0.000000
vn 1.000000 0.000000 0.000000
vn 1.000000 0.000000 0.000000
vn 1.000000 0.000000 0.000000
vn -1.000000 0.000000 0.000000
vn -1.000000 0.000000 0.000000
vn -1.000000 0.000000 0.000000
vn -1.000000 0.000000 0.000000
s off
g pasted__pCube2 group
usemtl initialShadingGroup
f 49/67/165 50/68/166 52/70/167 51/69/168
f 51/69/169 52/70/170 54/72/171 53/71/172
f 53/71/173 54/72/174 56/74/175 55/73/176
f 55/73/177 56/74/178 50/76/179 49/75/180
f 50/68/181 56/77/182 54/78/183 52/70/184
f 55/79/185 49/67/186 51/69/187 53/80/188
g default
v -0.054899 -0.148451 -1.233776
v 0.054899 -0.148451 -1.233776
v -0.054899 -0.071419 -1.233776
v 0.054899 -0.071419 -1.233776
v -0.054899 -0.071419 -1.343573
v 0.054899 -0.071419 -1.343573
v -0.054899 -0.148451 -1.343573
v 0.054899 -0.148451 -1.343573
vt 0.375000 0.000000
vt 0.625000 0.000000
vt 0.375000 0.250000
vt 0.625000 0.250000
vt 0.375000 0.500000
vt 0.625000 0.500000
vt 0.375000 0.750000
vt 0.625000 0.750000
vt 0.375000 1.000000
vt 0.625000 1.000000
vt 0.875000 0.000000
vt 0.875000 0.250000
vt 0.125000 0.000000
vt 0.125000 0.250000
vn 0.000000 0.000000 1.000000
vn 0.000000 0.000000 1.000000
vn 0.000000 0.000000 1.000000
vn 0.000000 0.000000 1.000000
vn 0.000000 1.000000 0.000000
vn 0.000000 1.000000 0.000000
vn 0.000000 1.000000 0.000000
vn 0.000000 1.000000 0.000000
vn 0.000000 0.000000 -1.000000
vn 0.000000 0.000000 -1.000000
vn 0.000000 0.000000 -1.000000
vn 0.000000 0.000000 -1.000000
vn 0.000000 -1.000000 0.000000
vn 0.000000 -1.000000 0.000000
vn 0.000000 -1.000000 0.000000
vn 0.000000 -1.000000 0.000000
vn 1.000000 0.000000 0.000000
vn 1.000000 0.000000 0.000000
vn 1.000000 0.000000 0.000000
vn 1.000000 0.000000 0.000000
vn -1.000000 0.000000 0.000000
vn -1.000000 0.000000 0.000000
vn -1.000000 0.000000 0.000000
vn -1.000000 0.000000 0.000000
s off
g pasted__pCube2 group1
usemtl initialShadingGroup
f 57/81/189 58/82/190 60/84/191 59/83/192
f 59/83/193 60/84/194 62/86/195 61/85/196
f 61/85/197 62/86/198 64/88/199 63/87/200
f 63/87/201 64/88/202 58/90/203 57/89/204
f 58/82/205 64/91/206 62/92/207 60/84/208
f 63/93/209 57/81/210 59/83/211 61/94/212
