# This file uses centimeters as units for non-parametric coordinates.

mtllib Shield_Model.mtl
g default
v 0.000000 -0.412377 -0.573609
v 0.743414 0.097472 -0.681496
v 0.000000 0.752356 -0.730561
v 0.931508 0.765543 -0.681496
v 0.542054 -0.081947 -0.681496
v 0.668982 0.765543 -0.681496
v 1.500107 -0.623833 -0.457218
v 0.000000 -1.473366 -0.307458
v 0.743442 -1.068241 -0.474236
v 1.161189 -0.357420 -0.573608
v 0.000000 -2.449649 0.083568
v 0.614853 -1.908188 -0.155384
v 0.000000 -4.024673 0.793106
v 0.905706 -3.097317 0.311551
v 2.164996 -1.284794 -0.245381
v 1.398584 0.540247 -0.681496
v 1.782145 0.482902 -0.598100
v 2.824339 0.251476 -0.324083
v 2.029399 1.887302 -0.681496
v 3.325440 1.774558 -0.281860
v 1.143538 1.954543 -0.681496
v 1.612870 1.931461 -0.681496
v 0.000000 1.816439 -0.771880
v 0.716450 1.849406 -0.681496
v 0.000000 3.049304 -0.740510
v 0.722004 3.048779 -0.681496
v 0.000000 4.356004 -0.711434
v 0.999671 4.365234 -0.681496
v 0.000000 5.428002 -0.681496
v 1.040540 5.479170 -0.488465
v 1.402247 3.131766 -0.681496
v 1.562052 4.387306 -0.681496
v 1.478723 5.449814 -0.488465
v 1.897179 3.103510 -0.681496
v 2.054286 4.410196 -0.681496
v 1.892276 5.614526 -0.488465
v 2.291378 3.242759 -0.681496
v 2.402731 4.471492 -0.681496
v 2.033570 5.755395 -0.488465
v 3.419564 3.398587 -0.282367
v 3.387058 4.754460 -0.317016
v 3.276038 5.577072 -0.283871
v 2.562518 6.294263 -0.399539
v 3.127760 6.683153 -0.204381
v 2.837747 6.268130 -0.469855
v 2.829493 5.623480 -0.530532
v 2.763140 6.770853 -0.411990
v 2.885845 6.456623 -0.394124
v 2.968278 7.495220 -0.147415
v 0.000000 5.698333 -0.681496
v 0.763616 5.729721 -0.488465
v 0.000000 6.113719 -0.539948
v 0.605373 6.098952 -0.539948
v 0.000000 6.528029 -0.539793
v 0.384044 6.572604 -0.539793
v 0.000000 7.020992 -0.385137
v 0.205199 7.352349 -0.326770
v 0.000000 -4.204690 1.049434
v 0.905706 -3.097317 0.475438
v 2.164996 -1.284794 -0.055467
v 2.824339 0.251476 -0.055467
v 3.325440 1.774558 -0.055467
v 1.040540 5.479170 -0.055468
v 1.478723 5.449814 -0.055468
v 1.892275 5.614526 -0.055468
v 2.033570 5.755395 -0.055468
v 3.419564 3.398587 -0.055467
v 3.387058 4.754460 -0.055467
v 3.276038 5.577072 -0.055467
v 3.124912 6.657855 -0.055467
v 2.562517 6.294263 -0.055467
v 2.760292 6.745555 -0.055467
v 2.973263 7.495220 -0.055467
v 0.763616 5.729721 -0.055468
v 0.652349 6.098952 -0.055468
v 0.381196 6.547306 -0.055468
v 0.205060 7.355168 -0.060393
v 0.000000 7.043392 -0.055468
v 0.000000 -0.280774 0.408356
v 0.542054 0.091170 0.295422
v 0.668982 0.814423 0.341390
v 0.000000 0.801236 0.341390
v 0.743414 0.162006 0.404005
v 0.931508 0.814423 0.341390
v 0.743442 -1.068241 0.516939
v 1.164119 -0.225817 0.408356
v 0.000000 -1.488261 0.516939
v 0.749107 -1.923083 0.516939
v 1.503036 -0.492230 0.408356
v 0.000000 -2.464088 0.751430
v 0.000000 -4.025158 1.153352
v 0.905706 -3.097317 0.855542
v 2.164996 -1.284794 0.516939
v 1.398584 0.589128 0.341390
v 1.782145 0.531782 0.341390
v 2.824339 0.316009 0.404005
v 3.325440 1.840012 0.287849
v 2.029398 1.952756 0.287849
v 1.612870 1.996915 0.287849
v 1.143538 2.019997 0.287849
v 0.716450 1.914860 0.287849
v 0.000000 1.881893 0.287849
v 0.722004 3.048779 0.221517
v 0.000000 3.049304 0.221516
v 0.999671 4.365234 0.189319
v 0.000000 4.356004 0.245503
v 1.040540 5.501302 0.328823
v 0.000000 5.450134 0.328823
v 1.402247 3.131766 0.221517
v 1.562052 4.387306 0.189319
v 1.478723 5.471946 0.328823
v 1.897179 3.103510 0.221517
v 2.054286 4.410196 0.189319
v 1.892275 5.636657 0.328823
v 2.291378 3.242759 0.221517
v 2.402730 4.471492 0.189319
v 2.033570 5.777527 0.328823
v 3.419564 3.398587 0.221517
v 3.387058 4.754460 0.161794
v 3.276038 5.599204 0.146804
v 2.829493 5.645611 0.226278
v 2.842776 6.334015 0.249681
v 3.124912 6.723740 0.136092
v 2.882997 6.497210 0.214007
v 2.562517 6.360148 0.308302
v 2.760292 6.811440 0.308302
v 2.973263 7.561105 0.136411
v 0.763615 5.795606 0.308302
v 0.000000 5.764218 0.308302
v 0.605373 6.164837 0.308302
v 0.000000 6.179604 0.308302
v 0.381196 6.613191 0.308302
v 0.000000 6.568616 0.308302
v 0.228080 7.427340 0.150554
v 0.000000 7.118165 0.190707
v -0.743414 0.097472 -0.681496
v -0.931508 0.765543 -0.681496
v -0.542054 -0.081947 -0.681496
v -0.668982 0.765543 -0.681496
v -1.500107 -0.623833 -0.457218
v -0.743442 -1.068241 -0.474236
v -1.161189 -0.357420 -0.573608
v -0.614853 -1.908188 -0.155384
v -0.905706 -3.097317 0.311551
v -2.164996 -1.284794 -0.245381
v -1.398584 0.540247 -0.681496
v -1.782145 0.482902 -0.598100
v -2.824339 0.251476 -0.324083
v -2.029399 1.887302 -0.681496
v -3.325440 1.774558 -0.281860
v -1.143538 1.954543 -0.681496
v -1.612870 1.931461 -0.681496
v -0.716450 1.849406 -0.681496
v -0.722004 3.048779 -0.681496
v -0.999671 4.365234 -0.681496
v -1.040540 5.479170 -0.488465
v -1.402247 3.131766 -0.681496
v -1.562052 4.387306 -0.681496
v -1.478723 5.449814 -0.488465
v -1.897179 3.103510 -0.681496
v -2.054286 4.410196 -0.681496
v -1.892276 5.614526 -0.488465
v -2.291378 3.242759 -0.681496
v -2.402731 4.471492 -0.681496
v -2.033570 5.755395 -0.488465
v -3.419564 3.398587 -0.282367
v -3.387058 4.754460 -0.317016
v -3.276038 5.577072 -0.283871
v -2.562518 6.294263 -0.399539
v -3.127760 6.683153 -0.204381
v -2.837747 6.268130 -0.469855
v -2.829493 5.623480 -0.530532
v -2.763140 6.770853 -0.411990
v -2.885845 6.456623 -0.394124
v -2.968278 7.495220 -0.147415
v -0.763616 5.729721 -0.488465
v -0.605373 6.098952 -0.539948
v -0.384044 6.572604 -0.539793
v -0.204783 7.318737 -0.324474
v -0.905706 -3.097317 0.475438
v -2.164996 -1.284794 -0.055467
v -2.824339 0.251476 -0.055467
v -3.325440 1.774558 -0.055467
v -1.040540 5.479170 -0.055468
v -1.478723 5.449814 -0.055468
v -1.892275 5.614526 -0.055468
v -2.033570 5.755395 -0.055468
v -3.419564 3.398587 -0.055467
v -3.387058 4.754460 -0.055467
v -3.276038 5.577072 -0.055467
v -3.124912 6.657855 -0.055467
v -2.562517 6.294263 -0.055467
v -2.760292 6.745555 -0.055467
v -2.973263 7.495220 -0.055467
v -0.763616 5.729721 -0.055468
v -0.652349 6.098952 -0.055468
v -0.381196 6.547306 -0.055468
v -0.209768 7.318737 -0.055468
v -0.542054 0.091170 0.295422
v -0.668982 0.814423 0.341390
v -0.743414 0.162006 0.404005
v -0.931508 0.814423 0.341390
v -0.743442 -1.068241 0.516939
v -1.164119 -0.225817 0.408356
v -0.749107 -1.923083 0.516939
v -1.503036 -0.492230 0.408356
v -0.905706 -3.097317 0.855542
v -2.164996 -1.284794 0.516939
v -1.398584 0.589128 0.341390
v -1.782145 0.531782 0.341390
v -2.824339 0.316009 0.404005
v -3.325440 1.840012 0.287849
v -2.029398 1.952756 0.287849
v -1.612870 1.996915 0.287849
v -1.143538 2.019997 0.287849
v -0.716450 1.914860 0.287849
v -0.722004 3.048779 0.221517
v -0.999671 4.365234 0.189319
v -1.040540 5.501302 0.328823
v -1.402247 3.131766 0.221517
v -1.562052 4.387306 0.189319
v -1.478723 5.471946 0.328823
v -1.897179 3.103510 0.221517
v -2.054286 4.410196 0.189319
v -1.892275 5.636657 0.328823
v -2.291378 3.242759 0.221517
v -2.402730 4.471492 0.189319
v -2.033570 5.777527 0.328823
v -3.419564 3.398587 0.221517
v -3.387058 4.754460 0.161794
v -3.276038 5.599204 0.146804
v -2.829493 5.645611 0.226278
v -2.842776 6.334015 0.249681
v -3.124912 6.723740 0.136092
v -2.882997 6.497210 0.214007
v -2.562517 6.360148 0.308302
v -2.760292 6.811440 0.308302
v -2.973263 7.561105 0.136411
v -0.763615 5.795606 0.308302
v -0.605373 6.164837 0.308302
v -0.381196 6.613191 0.308302
v -0.216175 7.407252 0.158634
v -0.012046 8.286169 -0.264530
v -0.023597 8.422898 -0.099426
v -0.036569 8.589835 -0.034005
vt 0.521250 0.658683
vt 0.501476 0.690349
vt 0.461011 0.697986
vt 0.460602 0.660538
vt 0.497564 0.703170
vt 0.460602 0.712673
vt 0.210504 0.152578
vt 0.199847 0.144495
vt 0.236928 0.088837
vt 0.240538 0.141654
vt 0.180575 0.112613
vt 0.208182 0.050783
vt 0.256149 0.045131
vt 0.263774 0.135344
vt 0.206747 0.051911
vt 0.227896 0.000000
vt 0.676829 0.132276
vt 0.664134 0.079040
vt 0.722288 0.007055
vt 0.726178 0.086902
vt 0.661465 0.214294
vt 0.715833 0.202917
vt 0.206177 0.190414
vt 0.235098 0.188851
vt 0.234868 0.188825
vt 0.255849 0.194210
vt 0.315268 0.108668
vt 0.314302 0.205564
vt 0.442640 0.103344
vt 0.452040 0.162270
vt 0.365203 0.186017
vt 0.362468 0.113255
vt 0.429190 0.055010
vt 0.440491 0.081744
vt 0.361147 0.089849
vt 0.361147 0.063549
vt 0.432486 0.002973
vt 0.429911 0.040334
vt 0.368191 0.039961
vt 0.372001 0.000000
vt 0.088364 0.219996
vt 0.085806 0.260056
vt 0.022237 0.259232
vt 0.022929 0.218827
vt 0.280966 0.218827
vt 0.281044 0.259238
vt 0.207359 0.274868
vt 0.207818 0.218827
vt 0.995165 0.000000
vt 0.996271 0.052834
vt 0.935928 0.056391
vt 0.937270 0.001424
vt 0.079506 0.283854
vt 0.016921 0.297217
vt 0.276447 0.297317
vt 0.206162 0.306346
vt 0.996688 0.081018
vt 0.933962 0.082025
vt 0.080326 0.310142
vt 0.018004 0.324943
vt 0.278061 0.325016
vt 0.204915 0.333897
vt 0.998773 0.106734
vt 0.926104 0.108789
vt 0.082379 0.333495
vt 0.009833 0.346869
vt 0.270297 0.347090
vt 0.201509 0.353404
vt 0.998773 0.127196
vt 0.920264 0.119255
vt 0.087392 0.406135
vt 0.000000 0.409849
vt 0.261667 0.410246
vt 0.185703 0.408527
vt 0.993020 0.186173
vt 0.943803 0.188756
vt 0.936259 0.163488
vt 0.536541 0.494547
vt 0.527207 0.452482
vt 0.554387 0.443858
vt 0.560077 0.514598
vt 0.541589 0.504034
vt 0.479718 0.470705
vt 0.519370 0.499887
vt 0.519382 0.499925
vt 0.533348 0.522359
vt 0.556955 0.517959
vt 0.544750 0.539557
vt 0.813127 0.658683
vt 0.833189 0.713432
vt 0.811942 0.705592
vt 0.796903 0.665547
vt 0.709392 0.664831
vt 0.751724 0.658683
vt 0.746826 0.680627
vt 0.713676 0.687682
vt 0.584468 0.658683
vt 0.593569 0.691331
vt 0.566166 0.685313
vt 0.563359 0.664016
vt 0.223327 0.701862
vt 0.237953 0.686129
vt 0.270250 0.720548
vt 0.248629 0.720548
vt 0.343773 0.658683
vt 0.343770 0.724462
vt 0.306221 0.724825
vt 0.312934 0.677334
vt 0.291528 0.724946
vt 0.301747 0.687469
vt 0.880704 0.372823
vt 0.848820 0.358165
vt 0.854361 0.312016
vt 0.887240 0.359216
vt 0.883044 0.273159
vt 0.907388 0.329334
vt 0.824696 0.351637
vt 0.838436 0.263779
vt 0.854591 0.218827
vt 0.880744 0.271561
vt 0.438735 0.567602
vt 0.385326 0.517353
vt 0.395139 0.440581
vt 0.448913 0.520934
vt 0.437818 0.656523
vt 0.385326 0.644753
vt 0.885098 0.411419
vt 0.856110 0.409974
vt 0.857077 0.409829
vt 0.835517 0.415130
vt 0.774698 0.425456
vt 0.774698 0.331783
vt 0.007627 0.548262
vt 0.087406 0.553485
vt 0.087476 0.629656
vt 0.000000 0.609478
vt 0.018655 0.498793
vt 0.086069 0.503779
vt 0.087476 0.530042
vt 0.008791 0.526090
vt 0.012573 0.446907
vt 0.071838 0.440581
vt 0.077766 0.480604
vt 0.017150 0.484177
vt 0.376430 0.218827
vt 0.445456 0.218827
vt 0.445510 0.259373
vt 0.378381 0.259240
vt 0.466750 0.218827
vt 0.539877 0.220819
vt 0.538906 0.276790
vt 0.465649 0.259358
vt 0.174658 0.440581
vt 0.234046 0.446409
vt 0.231428 0.505307
vt 0.169177 0.495964
vt 0.450256 0.297433
vt 0.384329 0.283128
vt 0.539331 0.308287
vt 0.469312 0.297537
vt 0.227083 0.529354
vt 0.166853 0.527194
vt 0.448748 0.325138
vt 0.383107 0.309400
vt 0.539903 0.335861
vt 0.467018 0.325189
vt 0.233450 0.553292
vt 0.164996 0.554551
vt 0.456600 0.347181
vt 0.380697 0.332719
vt 0.542830 0.355446
vt 0.474242 0.347445
vt 0.240930 0.563237
vt 0.165856 0.574427
vt 0.464740 0.414233
vt 0.373867 0.408584
vt 0.556809 0.414664
vt 0.480875 0.414664
vt 0.227549 0.606652
vt 0.221748 0.634867
vt 0.175033 0.634867
vt 0.176018 0.697789
vt 0.171403 0.708523
vt 0.154167 0.721163
vt 0.150003 0.658683
vt 0.178521 0.661633
vt 0.222601 0.671704
vt 0.191672 0.700931
vt 0.190984 0.703352
vt 0.174529 0.727170
vt 0.150003 0.764498
vt 0.152307 0.718125
vt 0.191647 0.860611
vt 0.206764 0.861249
vt 0.206658 0.905368
vt 0.191647 0.919912
vt 0.044560 0.885096
vt 0.046500 0.860611
vt 0.080216 0.864067
vt 0.088679 0.885096
vt 0.256404 0.883645
vt 0.259078 0.860611
vt 0.280717 0.860611
vt 0.289966 0.888372
vt 0.357106 0.860611
vt 0.354035 0.889364
vt 0.340379 0.906685
vt 0.335467 0.860611
vt 0.748129 0.010843
vt 0.759347 0.095692
vt 0.746852 0.092195
vt 0.733420 0.000000
vt 0.759347 0.213364
vt 0.744409 0.209311
vt 0.359359 0.112199
vt 0.355116 0.205564
vt 0.340180 0.204179
vt 0.347148 0.111066
vt 0.463297 0.201611
vt 0.374794 0.216661
vt 0.372342 0.204229
vt 0.460387 0.186861
vt 0.888126 0.072452
vt 0.892377 0.049251
vt 0.915252 0.053441
vt 0.911145 0.077435
vt 0.882870 0.095057
vt 0.904998 0.101084
vt 0.880142 0.105047
vt 0.901773 0.111081
vt 0.091049 0.438023
vt 0.000000 0.438051
vt 0.000000 0.425352
vt 0.091049 0.425352
vt 0.259789 0.438386
vt 0.183919 0.435266
vt 0.184894 0.420660
vt 0.260635 0.425714
vt 0.993985 0.213849
vt 0.945939 0.213606
vt 0.945479 0.200404
vt 0.993458 0.198731
vt 0.581160 0.440581
vt 0.581160 0.510556
vt 0.571752 0.509677
vt 0.566911 0.441595
vt 0.491408 0.534567
vt 0.449549 0.512005
vt 0.465098 0.489832
vt 0.503764 0.516948
vt 0.508936 0.544203
vt 0.489390 0.525186
vt 0.501724 0.511884
vt 0.519403 0.530780
vt 0.573416 0.527519
vt 0.544928 0.553789
vt 0.544405 0.548122
vt 0.569495 0.522231
vt 0.816178 0.755926
vt 0.796903 0.747841
vt 0.806277 0.725492
vt 0.825552 0.733578
vt 0.796037 0.665100
vt 0.794065 0.687682
vt 0.767682 0.680886
vt 0.772384 0.659821
vt 0.586466 0.738490
vt 0.557891 0.732187
vt 0.564910 0.705966
vt 0.593569 0.712188
vt 0.276778 0.658683
vt 0.290853 0.702829
vt 0.278376 0.710991
vt 0.253211 0.672153
vt 0.397710 0.658683
vt 0.458386 0.658683
vt 0.459122 0.696126
vt 0.418443 0.689730
vt 0.459980 0.710794
vt 0.422744 0.702425
vt 0.148858 0.152575
vt 0.118825 0.141651
vt 0.122435 0.088835
vt 0.159516 0.144493
vt 0.151181 0.050782
vt 0.178787 0.112611
vt 0.095589 0.135341
vt 0.103215 0.045130
vt 0.131468 0.000000
vt 0.152616 0.051910
vt 0.646744 0.133367
vt 0.598300 0.087028
vt 0.603765 0.007273
vt 0.660487 0.080392
vt 0.660487 0.215672
vt 0.606354 0.203224
vt 0.153185 0.190412
vt 0.124264 0.188849
vt 0.124494 0.188821
vt 0.103513 0.194207
vt 0.045060 0.205559
vt 0.044096 0.108664
vt 0.545171 0.110358
vt 0.464653 0.103833
vt 0.464318 0.031020
vt 0.552079 0.051087
vt 0.533769 0.159215
vt 0.465427 0.153551
vt 0.464318 0.127274
vt 0.543934 0.132029
vt 0.539254 0.211067
vt 0.478948 0.216586
vt 0.473458 0.176821
vt 0.535108 0.173847
vt 0.180323 0.436883
vt 0.114888 0.438051
vt 0.114196 0.397647
vt 0.177765 0.396823
vt 0.871525 0.528099
vt 0.798377 0.528099
vt 0.797919 0.472059
vt 0.871604 0.487689
vt 0.875348 0.213849
vt 0.817453 0.212426
vt 0.816111 0.157458
vt 0.876454 0.161015
vt 0.108881 0.359662
vt 0.171465 0.373025
vt 0.796722 0.440581
vt 0.867006 0.449610
vt 0.814146 0.131824
vt 0.876871 0.132831
vt 0.109964 0.331937
vt 0.172285 0.346737
vt 0.308825 0.594034
vt 0.241689 0.571359
vt 0.245885 0.544100
vt 0.315856 0.567194
vt 0.806287 0.105060
vt 0.878956 0.107115
vt 0.101792 0.310010
vt 0.174338 0.323384
vt 0.246381 0.524305
vt 0.312584 0.544024
vt 0.800448 0.094594
vt 0.878956 0.086653
vt 0.091959 0.247030
vt 0.179351 0.250744
vt 0.241725 0.467149
vt 0.316543 0.480403
vt 0.816442 0.050360
vt 0.823987 0.025093
vt 0.873204 0.027676
vt 0.629712 0.504212
vt 0.622393 0.512081
vt 0.601809 0.517532
vt 0.625510 0.450637
vt 0.649557 0.465965
vt 0.690758 0.495794
vt 0.644931 0.513791
vt 0.644909 0.513825
vt 0.625641 0.531908
vt 0.610197 0.545592
vt 0.603963 0.521581
vt 0.849776 0.755926
vt 0.833551 0.749061
vt 0.848591 0.709017
vt 0.869837 0.701176
vt 0.621882 0.681534
vt 0.626165 0.658683
vt 0.659316 0.665738
vt 0.664213 0.687682
vt 0.548433 0.738490
vt 0.527324 0.733156
vt 0.530131 0.711860
vt 0.557534 0.705842
vt 0.083316 0.658683
vt 0.082425 0.689156
vt 0.070138 0.704502
vt 0.062568 0.660409
vt 0.344296 0.658683
vt 0.375314 0.677034
vt 0.382488 0.724457
vt 0.344937 0.724459
vt 0.386599 0.687059
vt 0.397181 0.724436
vt 0.668366 0.329072
vt 0.653483 0.326551
vt 0.633934 0.272451
vt 0.674810 0.294577
vt 0.617451 0.325744
vt 0.585646 0.273430
vt 0.603748 0.231596
vt 0.683412 0.271112
vt 0.585671 0.270630
vt 0.557721 0.218827
vt 0.327359 0.563624
vt 0.321022 0.516280
vt 0.381170 0.440581
vt 0.384689 0.517897
vt 0.321022 0.652323
vt 0.374299 0.644873
vt 0.697339 0.354947
vt 0.712899 0.330446
vt 0.712221 0.331152
vt 0.728999 0.316610
vt 0.696074 0.218827
vt 0.772550 0.272920
vt 0.911600 0.293823
vt 0.908715 0.232201
vt 0.997486 0.218827
vt 0.991543 0.294766
vt 0.918780 0.343994
vt 0.911050 0.316018
vt 0.989805 0.318146
vt 0.986378 0.344221
vt 0.908715 0.395258
vt 0.916152 0.358451
vt 0.976313 0.366687
vt 0.967316 0.406134
vt 0.282016 0.413023
vt 0.284512 0.372640
vt 0.351637 0.373414
vt 0.351035 0.413955
vt 0.710553 0.517991
vt 0.715615 0.477763
vt 0.790669 0.471650
vt 0.783135 0.527119
vt 0.090280 0.634397
vt 0.088554 0.578524
vt 0.151574 0.573395
vt 0.150191 0.632597
vt 0.290782 0.348835
vt 0.356897 0.335422
vt 0.725029 0.440581
vt 0.795868 0.440581
vt 0.088350 0.547068
vt 0.148855 0.549001
vt 0.289915 0.322549
vt 0.355763 0.307698
vt 0.593926 0.658683
vt 0.621605 0.660612
vt 0.621094 0.734271
vt 0.593926 0.729522
vt 0.088350 0.519527
vt 0.156864 0.525446
vt 0.287821 0.299199
vt 0.363912 0.285764
vt 0.872352 0.440581
vt 0.895452 0.444313
vt 0.913855 0.510870
vt 0.894053 0.510974
vt 0.090568 0.499878
vt 0.164237 0.516131
vt 0.282016 0.223249
vt 0.372957 0.218827
vt 0.962894 0.440581
vt 0.974515 0.515621
vt 0.103819 0.440581
vt 0.150138 0.443790
vt 0.153952 0.472165
vt 0.104764 0.707932
vt 0.125072 0.677914
vt 0.149351 0.693163
vt 0.107571 0.739806
vt 0.101784 0.719230
vt 0.084149 0.658683
vt 0.090499 0.700761
vt 0.089549 0.703092
vt 0.087833 0.731991
vt 0.110908 0.738560
vt 0.084149 0.776503
vt 0.206915 0.919912
vt 0.206915 0.860611
vt 0.221927 0.875155
vt 0.222032 0.919274
vt 0.000000 0.860611
vt 0.044119 0.860611
vt 0.035656 0.881639
vt 0.001940 0.885096
vt 0.222183 0.861437
vt 0.256066 0.860611
vt 0.243678 0.887121
vt 0.222183 0.884626
vt 0.484538 0.863110
vt 0.506032 0.860611
vt 0.506032 0.905218
vt 0.490967 0.891303
vt 0.577854 0.010551
vt 0.592774 0.000000
vt 0.577526 0.091912
vt 0.564964 0.095162
vt 0.577657 0.209053
vt 0.562642 0.212811
vt 0.000000 0.112181
vt 0.012216 0.111063
vt 0.019183 0.204174
vt 0.004245 0.205559
vt 0.561669 0.011307
vt 0.559383 0.026167
vt 0.470684 0.012524
vt 0.472611 0.000000
vt 0.768310 0.141396
vt 0.791328 0.136414
vt 0.795435 0.160407
vt 0.772560 0.164597
vt 0.763053 0.118791
vt 0.785181 0.112765
vt 0.760326 0.108801
vt 0.781956 0.102767
vt 0.183008 0.218856
vt 0.183008 0.231527
vt 0.091959 0.231527
vt 0.091959 0.218827
vt 0.320236 0.452444
vt 0.318573 0.465034
vt 0.243317 0.455094
vt 0.245234 0.440581
vt 0.874168 0.000000
vt 0.873641 0.015118
vt 0.825662 0.013445
vt 0.826122 0.000243
vt 0.600482 0.440581
vt 0.613991 0.445227
vt 0.591794 0.509772
vt 0.582476 0.508200
vt 0.663028 0.554498
vt 0.655622 0.534293
vt 0.699964 0.518039
vt 0.709285 0.543467
vt 0.643608 0.559299
vt 0.636949 0.543634
vt 0.658895 0.529925
vt 0.667389 0.545953
vt 0.585595 0.526583
vt 0.590746 0.522483
vt 0.608327 0.553957
vt 0.606363 0.559299
vt 0.852826 0.658683
vt 0.862201 0.681031
vt 0.842926 0.689116
vt 0.833551 0.666768
vt 0.708526 0.681264
vt 0.684873 0.686543
vt 0.680172 0.665478
vt 0.706554 0.658683
vt 0.550431 0.658683
vt 0.557534 0.684984
vt 0.528875 0.691207
vt 0.521856 0.664985
vt 0.018665 0.674165
vt 0.042827 0.663940
vt 0.057450 0.704160
vt 0.043936 0.709141
vt 0.061751 0.749626
vt 0.075465 0.760729
vt 0.019601 0.742477
vt 0.026104 0.727253
vt 0.070652 0.757432
vt 0.083316 0.770130
vt 0.000000 0.749446
vt 0.000848 0.734391
vt 0.552590 0.956332
vt 0.568115 0.966383
vt 0.552590 0.982052
vt 0.650309 0.973352
vt 0.022336 0.703149
vt 0.622622 0.791979
vt 0.637008 0.777681
vt 0.647038 0.796834
vt 0.622622 0.859789
vt 0.688516 0.956332
vt 0.701539 0.962478
vt 0.688516 0.978809
vt 0.745670 0.977421
vn 0.022235 0.108201 0.993880
vn -0.003452 0.068334 0.997657
vn -0.001597 0.039088 0.999234
vn 0.037532 0.030616 0.998826
vn -0.001597 0.039088 0.999234
vn -0.003452 0.068334 0.997657
vn -0.076140 0.080126 0.993873
vn -0.005984 0.050963 0.998683
vn -0.076140 0.080126 0.993873
vn -0.003452 0.068334 0.997657
vn 0.078620 0.043737 0.995945
vn -0.008482 0.063375 0.997954
vn -0.003452 0.068334 0.997657
vn 0.022235 0.108201 0.993880
vn 0.046825 0.131258 0.990242
vn 0.025048 0.134691 0.990571
vn -0.008482 0.063375 0.997954
vn 0.078620 0.043737 0.995945
vn -0.072923 0.178785 0.981182
vn -0.035386 0.112593 0.993011
vn 0.025048 0.134691 0.990571
vn 0.046825 0.131258 0.990242
vn 0.074415 0.239192 0.968117
vn 0.074214 0.190844 0.978811
vn 0.074214 0.190844 0.978811
vn 0.074415 0.239192 0.968117
vn 0.074447 0.264565 0.961490
vn 0.074447 0.264565 0.961490
vn -0.035386 0.112593 0.993011
vn -0.072923 0.178785 0.981182
vn -0.084463 0.187361 0.978653
vn -0.073259 0.155014 0.985192
vn -0.005984 0.050963 0.998683
vn -0.076140 0.080126 0.993873
vn 0.035507 0.068282 0.997034
vn 0.020721 0.051842 0.998440
vn 0.020721 0.051842 0.998440
vn 0.035507 0.068282 0.997034
vn 0.028934 0.064567 0.997494
vn 0.013704 0.047284 0.998788
vn -0.035386 0.112593 0.993011
vn -0.073259 0.155014 0.985192
vn -0.030068 0.071257 0.997005
vn -0.031615 0.072434 0.996872
vn -0.031615 0.072434 0.996872
vn -0.030068 0.071257 0.997005
vn -0.008961 0.053945 0.998504
vn -0.010116 0.054984 0.998436
vn -0.005984 0.050963 0.998683
vn 0.020721 0.051842 0.998440
vn 0.006728 0.049212 0.998766
vn 0.007422 0.047333 0.998852
vn 0.020721 0.051842 0.998440
vn 0.013704 0.047284 0.998788
vn -0.000703 0.046445 0.998921
vn -0.000064 0.045337 0.998972
vn 0.037532 0.030616 0.998826
vn -0.001597 0.039088 0.999234
vn -0.001451 0.053700 0.998556
vn -0.001464 0.053386 0.998573
vn -0.001464 0.053386 0.998573
vn -0.001451 0.053700 0.998556
vn 0.019305 0.022423 0.999562
vn 0.018277 0.024179 0.999541
vn 0.018277 0.024179 0.999541
vn 0.019305 0.022423 0.999562
vn 0.031415 -0.054802 0.998003
vn 0.031519 -0.050287 0.998237
vn 0.031519 -0.050287 0.998237
vn 0.031415 -0.054802 0.998003
vn 0.026211 -0.079284 0.996507
vn 0.024144 -0.068979 0.997326
vn -0.001597 0.039088 0.999234
vn -0.005984 0.050963 0.998683
vn -0.009416 0.056713 0.998346
vn -0.008791 0.054033 0.998501
vn -0.008791 0.054033 0.998501
vn -0.009416 0.056713 0.998346
vn -0.004911 0.037301 0.999292
vn -0.006301 0.043286 0.999043
vn -0.006301 0.043286 0.999043
vn -0.004911 0.037301 0.999292
vn -0.001610 -0.040272 0.999188
vn -0.001694 -0.030065 0.999547
vn -0.001694 -0.030065 0.999547
vn -0.001610 -0.040272 0.999188
vn -0.000908 -0.124676 0.992197
vn -0.000908 -0.124676 0.992197
vn 0.007422 0.047333 0.998852
vn 0.006728 0.049212 0.998766
vn 0.001396 0.039302 0.999226
vn 0.001633 0.041982 0.999117
vn 0.001633 0.041982 0.999117
vn 0.001396 0.039302 0.999226
vn 0.011612 -0.042474 0.999030
vn 0.010758 -0.037441 0.999241
vn 0.010758 -0.037441 0.999241
vn 0.011612 -0.042474 0.999030
vn 0.024290 -0.117277 0.992802
vn 0.024290 -0.117277 0.992802
vn -0.000064 0.045337 0.998972
vn -0.000703 0.046445 0.998921
vn -0.006920 0.036806 0.999299
vn -0.006793 0.046613 0.998890
vn -0.006793 0.046613 0.998890
vn -0.006920 0.036806 0.999299
vn 0.015102 -0.031644 0.999385
vn 0.011354 -0.021869 0.999696
vn 0.011354 -0.021869 0.999696
vn 0.015102 -0.031644 0.999385
vn 0.041605 -0.100787 0.994038
vn 0.041605 -0.100787 0.994038
vn -0.010116 0.054984 0.998436
vn -0.008961 0.053945 0.998504
vn 0.002365 0.041098 0.999152
vn 0.001490 0.042613 0.999091
vn 0.001490 0.042613 0.999091
vn 0.002365 0.041098 0.999152
vn 0.053148 -0.007253 0.998560
vn 0.042570 0.002258 0.999091
vn 0.042570 0.002258 0.999091
vn 0.053148 -0.007253 0.998560
vn 0.122398 -0.032241 0.991957
vn 0.118240 -0.037855 0.992263
vn 0.103465 -0.047659 0.993491
vn 0.215835 -0.015099 0.976313
vn 0.118240 -0.037855 0.992263
vn 0.122398 -0.032241 0.991957
vn 0.353719 0.024900 0.935020
vn 0.290012 0.021537 0.956781
vn 0.103465 -0.047659 0.993491
vn 0.118240 -0.037855 0.992263
vn 0.215835 -0.015099 0.976313
vn 0.159060 -0.061875 0.985328
vn 0.159060 -0.061875 0.985328
vn 0.215835 -0.015099 0.976313
vn 0.306643 -0.063632 0.949695
vn 0.306643 -0.063632 0.949695
vn 0.290012 0.021537 0.956781
vn 0.353719 0.024900 0.935020
vn 0.432584 0.029022 0.901127
vn 0.432584 0.029022 0.901127
vn 0.024144 -0.068979 0.997326
vn 0.026211 -0.079284 0.996507
vn -0.002004 0.043782 0.999039
vn -0.001581 0.034541 0.999402
vn -0.001581 0.034541 0.999402
vn -0.002004 0.043782 0.999039
vn 0.000000 0.000000 1.000000
vn 0.000000 0.000000 1.000000
vn 0.000000 0.000000 1.000000
vn 0.000000 0.000000 1.000000
vn -0.021799 0.088894 0.995803
vn -0.022952 0.093596 0.995346
vn -0.022952 0.093596 0.995346
vn -0.021799 0.088894 0.995803
vn -0.047229 0.192596 0.980141
vn -0.047229 0.192596 0.980141
vn -0.061294 -0.188027 -0.980249
vn 0.043535 -0.046061 -0.997990
vn 0.034396 -0.030835 -0.998933
vn -0.009421 -0.141593 -0.989880
vn 0.034396 -0.030835 -0.998933
vn 0.012677 -0.018758 -0.999744
vn 0.055685 -0.093630 -0.994049
vn -0.009421 -0.141593 -0.989880
vn 0.055685 -0.093630 -0.994049
vn 0.153371 -0.250828 -0.955805
vn 0.191729 -0.299380 -0.934672
vn -0.009421 -0.141593 -0.989880
vn -0.009421 -0.141593 -0.989880
vn -0.060491 -0.270548 -0.960804
vn -0.043566 -0.315887 -0.947796
vn -0.061294 -0.188027 -0.980249
vn 0.153371 -0.250828 -0.955805
vn 0.149330 -0.239111 -0.959441
vn 0.077620 -0.312182 -0.946846
vn 0.191729 -0.299380 -0.934672
vn -0.060491 -0.270548 -0.960804
vn -0.037803 -0.377606 -0.925194
vn -0.048330 -0.390887 -0.919169
vn -0.043566 -0.315887 -0.947796
vn -0.037803 -0.377606 -0.925194
vn -0.052192 -0.395733 -0.916881
vn -0.052192 -0.395733 -0.916881
vn -0.048330 -0.390887 -0.919169
vn 0.149330 -0.239111 -0.959441
vn 0.113184 -0.258819 -0.959272
vn 0.070217 -0.311415 -0.947676
vn 0.077620 -0.312182 -0.946846
vn 0.012677 -0.018758 -0.999744
vn 0.084013 -0.070667 -0.993956
vn 0.146860 -0.141420 -0.978996
vn 0.055685 -0.093630 -0.994049
vn 0.084013 -0.070667 -0.993956
vn 0.136368 -0.096570 -0.985940
vn 0.191349 -0.169574 -0.966763
vn 0.146860 -0.141420 -0.978996
vn 0.149330 -0.239111 -0.959441
vn 0.236704 -0.110428 -0.965286
vn 0.238998 -0.108072 -0.964987
vn 0.113184 -0.258819 -0.959272
vn 0.236704 -0.110428 -0.965286
vn 0.288292 -0.060317 -0.955641
vn 0.291270 -0.057635 -0.954903
vn 0.238998 -0.108072 -0.964987
vn 0.012677 -0.018758 -0.999744
vn -0.000000 0.000000 -1.000000
vn -0.000000 0.000000 -1.000000
vn 0.084013 -0.070667 -0.993956
vn 0.084013 -0.070667 -0.993956
vn 0.055249 -0.025872 -0.998137
vn 0.050016 -0.023422 -0.998474
vn 0.136368 -0.096570 -0.985940
vn 0.043535 -0.046061 -0.997990
vn 0.101994 -0.003491 -0.994779
vn 0.102074 -0.002253 -0.994774
vn 0.034396 -0.030835 -0.998933
vn 0.101994 -0.003491 -0.994779
vn 0.074127 0.008672 -0.997211
vn 0.072526 0.008455 -0.997331
vn 0.102074 -0.002253 -0.994774
vn 0.074127 0.008672 -0.997211
vn 0.078288 0.051988 -0.995574
vn 0.080871 0.056485 -0.995123
vn 0.072526 0.008455 -0.997331
vn 0.078288 0.051988 -0.995574
vn 0.122040 0.100592 -0.987415
vn 0.115838 0.099995 -0.988222
vn 0.080871 0.056485 -0.995123
vn 0.034396 -0.030835 -0.998933
vn -0.000000 0.000000 -1.000000
vn -0.000000 0.000000 -1.000000
vn 0.012677 -0.018758 -0.999744
vn -0.000000 0.000000 -1.000000
vn 0.000000 0.000000 -1.000000
vn 0.000000 0.000000 -1.000000
vn -0.000000 0.000000 -1.000000
vn 0.000000 0.000000 -1.000000
vn 0.000467 0.064192 -0.997938
vn 0.000554 0.076036 -0.997105
vn 0.000000 0.000000 -1.000000
vn 0.000467 0.064192 -0.997938
vn 0.001272 0.174680 -0.984625
vn 0.001272 0.174680 -0.984625
vn 0.000554 0.076036 -0.997105
vn -0.000000 0.000000 -1.000000
vn -0.000000 0.000000 -1.000000
vn -0.000000 0.000000 -1.000000
vn -0.000000 0.000000 -1.000000
vn -0.000000 0.000000 -1.000000
vn -0.014880 0.071843 -0.997305
vn -0.016065 0.077568 -0.996858
vn -0.000000 0.000000 -1.000000
vn -0.014880 0.071843 -0.997305
vn -0.034012 0.164216 -0.985838
vn -0.034012 0.164216 -0.985838
vn -0.016065 0.077568 -0.996858
vn 0.055249 -0.025872 -0.998137
vn 0.000000 0.000000 -1.000000
vn 0.000000 0.000000 -1.000000
vn 0.050016 -0.023422 -0.998474
vn 0.000000 0.000000 -1.000000
vn -0.021926 0.053115 -0.998348
vn -0.026342 0.063815 -0.997614
vn 0.000000 0.000000 -1.000000
vn -0.021926 0.053115 -0.998348
vn -0.058173 0.140923 -0.988310
vn -0.058173 0.140923 -0.988310
vn -0.026342 0.063815 -0.997614
vn 0.288292 -0.060317 -0.955641
vn 0.324274 -0.032465 -0.945406
vn 0.328083 -0.030669 -0.944151
vn 0.291270 -0.057635 -0.954903
vn 0.324274 -0.032465 -0.945406
vn 0.298840 0.014778 -0.954189
vn 0.285071 0.026105 -0.958151
vn 0.328083 -0.030669 -0.944151
vn 0.298840 0.014778 -0.954189
vn 0.169213 0.089918 -0.981469
vn 0.243797 0.089867 -0.965654
vn 0.295687 0.081858 -0.951771
vn 0.285071 0.026105 -0.958151
vn 0.313118 0.134880 -0.940087
vn 0.524763 0.124580 -0.842083
vn 0.521707 0.138542 -0.841800
vn 0.295687 0.081858 -0.951771
vn 0.243797 0.089867 -0.965654
vn 0.169213 0.089918 -0.981469
vn -0.074181 0.153808 -0.985312
vn 0.313118 0.134880 -0.940087
vn 0.243797 0.089867 -0.965654
vn -0.074181 0.153808 -0.985312
vn -0.037950 0.108706 -0.993349
vn -0.037950 0.108706 -0.993349
vn 0.313118 0.134880 -0.940087
vn 0.524763 0.124580 -0.842083
vn 0.517083 0.158751 -0.841085
vn 0.517083 0.158751 -0.841085
vn 0.521707 0.138542 -0.841800
vn 0.122040 0.100592 -0.987415
vn 0.170019 0.124199 -0.977583
vn 0.179322 0.119721 -0.976479
vn 0.115838 0.099995 -0.988222
vn 0.170019 0.124199 -0.977583
vn 0.074950 0.077055 -0.994206
vn 0.094712 0.097277 -0.990741
vn 0.179322 0.119721 -0.976479
vn 0.074950 0.077055 -0.994206
vn -0.034487 0.122660 -0.991849
vn -0.032378 0.115180 -0.992817
vn 0.094712 0.097277 -0.990741
vn -0.034487 0.122660 -0.991849
vn -0.075172 0.266995 -0.960762
vn -0.075172 0.266995 -0.960762
vn -0.032378 0.115180 -0.992817
vn 0.626150 -0.716707 -0.307031
vn 0.773149 -0.626675 -0.097570
vn 0.796325 -0.604579 -0.018761
vn 0.751463 -0.658065 0.047472
vn 0.773149 -0.626675 -0.097570
vn 0.878965 -0.476887 0.000000
vn 0.874369 -0.485192 0.008211
vn 0.796325 -0.604579 -0.018761
vn 0.878965 -0.476887 0.000000
vn 0.935695 -0.352810 0.000000
vn 0.934148 -0.356160 0.022745
vn 0.874369 -0.485192 0.008211
vn 0.935695 -0.352810 0.000000
vn 0.981289 -0.192539 0.000000
vn 0.978103 -0.207116 0.020438
vn 0.934148 -0.356160 0.022745
vn -0.156948 0.987607 -0.000001
vn 0.066845 0.997763 0.000000
vn 0.066820 0.997398 -0.027044
vn -0.156306 0.987350 -0.026625
vn -0.482422 0.875939 -0.000001
vn -0.156948 0.987607 -0.000001
vn -0.156306 0.987350 -0.026625
vn -0.480872 0.876468 -0.023778
vn -0.711817 0.702365 -0.000000
vn -0.482422 0.875939 -0.000001
vn -0.480872 0.876468 -0.023778
vn -0.717087 0.696106 -0.034973
vn 0.981289 -0.192539 0.000000
vn 0.999823 -0.018819 0.000000
vn 0.999743 -0.022594 0.002014
vn 0.978103 -0.207116 0.020438
vn 0.999823 -0.018819 0.000000
vn 0.997847 0.065579 0.000000
vn 0.997974 0.063607 -0.001176
vn 0.999743 -0.022594 0.002014
vn 0.997847 0.065579 0.000000
vn 0.990897 0.134382 0.008079
vn 0.990949 0.134142 -0.005038
vn 0.997974 0.063607 -0.001176
vn 0.990897 0.134382 0.008079
vn 0.988159 0.152748 0.014478
vn 0.988649 0.149429 -0.015608
vn 0.990949 0.134142 -0.005038
vn -0.800733 0.599009 0.003876
vn -0.711817 0.702365 -0.000000
vn -0.717087 0.696106 -0.034973
vn -0.802491 0.595476 -0.037624
vn -0.941254 0.337372 0.014849
vn -0.800733 0.599009 0.003876
vn -0.802491 0.595476 -0.037624
vn -0.941634 0.335376 -0.029114
vn 0.988159 0.152748 0.014478
vn 0.982682 0.184992 0.010713
vn 0.982908 0.180412 -0.036657
vn 0.988649 0.149429 -0.015608
vn -0.962785 0.269542 0.019792
vn -0.941254 0.337372 0.014849
vn -0.941634 0.335376 -0.029114
vn -0.963034 0.267624 -0.030698
vn 0.670913 0.741536 0.000001
vn 0.842677 0.537738 -0.027094
vn 0.833159 0.551857 -0.036060
vn 0.685497 0.727024 -0.039117
vn 0.842677 0.537738 -0.027094
vn 0.906061 0.421637 -0.035704
vn 0.909371 0.415051 -0.027872
vn 0.833159 0.551857 -0.036060
vn 0.906061 0.421637 -0.035704
vn 0.939531 0.342369 -0.008098
vn 0.940693 0.337932 -0.029985
vn 0.909371 0.415051 -0.027872
vn 0.939531 0.342369 -0.008098
vn 0.976139 0.216900 0.010379
vn 0.978292 0.204087 -0.035963
vn 0.940693 0.337932 -0.029985
vn 0.751463 -0.658065 0.047472
vn 0.796325 -0.604579 -0.018761
vn 0.811033 -0.581013 0.068188
vn 0.773595 -0.594128 0.220371
vn 0.796325 -0.604579 -0.018761
vn 0.874369 -0.485192 0.008211
vn 0.868500 -0.495583 0.010271
vn 0.811033 -0.581013 0.068188
vn 0.874369 -0.485192 0.008211
vn 0.934148 -0.356160 0.022745
vn 0.934900 -0.353104 0.035778
vn 0.868500 -0.495583 0.010271
vn 0.934148 -0.356160 0.022745
vn 0.978103 -0.207116 0.020438
vn 0.980724 -0.193130 0.029688
vn 0.934900 -0.353104 0.035778
vn -0.156306 0.987350 -0.026625
vn 0.066820 0.997398 -0.027044
vn 0.066735 0.996120 -0.057367
vn -0.157925 0.985818 -0.056773
vn -0.480872 0.876468 -0.023778
vn -0.156306 0.987350 -0.026625
vn -0.157925 0.985818 -0.056773
vn -0.484819 0.873168 -0.050285
vn -0.717087 0.696106 -0.034973
vn -0.480872 0.876468 -0.023778
vn -0.484819 0.873168 -0.050285
vn -0.721819 0.688291 -0.072334
vn 0.978103 -0.207116 0.020438
vn 0.999743 -0.022594 0.002014
vn 0.999639 -0.026588 0.003793
vn 0.980724 -0.193130 0.029688
vn 0.999743 -0.022594 0.002014
vn 0.997974 0.063607 -0.001176
vn 0.998175 0.060350 -0.002343
vn 0.999639 -0.026588 0.003793
vn 0.997974 0.063607 -0.001176
vn 0.990949 0.134142 -0.005038
vn 0.990758 0.134073 -0.020586
vn 0.998175 0.060350 -0.002343
vn 0.990949 0.134142 -0.005038
vn 0.988649 0.149429 -0.015608
vn 0.986327 0.158060 -0.046660
vn 0.990758 0.134073 -0.020586
vn -0.802491 0.595476 -0.037624
vn -0.717087 0.696106 -0.034973
vn -0.721819 0.688291 -0.072334
vn -0.816912 0.571442 -0.078154
vn -0.941634 0.335376 -0.029114
vn -0.802491 0.595476 -0.037624
vn -0.816912 0.571442 -0.078154
vn -0.943603 0.324172 -0.067278
vn 0.988649 0.149429 -0.015608
vn 0.982908 0.180412 -0.036657
vn 0.982151 0.177882 -0.061130
vn 0.986327 0.158060 -0.046660
vn -0.963034 0.267624 -0.030698
vn -0.941634 0.335376 -0.029114
vn -0.943603 0.324172 -0.067278
vn -0.961898 0.266031 -0.063089
vn 0.685497 0.727024 -0.039117
vn 0.833159 0.551857 -0.036060
vn 0.848824 0.527100 -0.040777
vn 0.700420 0.708841 -0.083402
vn 0.833159 0.551857 -0.036060
vn 0.909371 0.415051 -0.027872
vn 0.901243 0.432842 -0.020204
vn 0.848824 0.527100 -0.040777
vn 0.909371 0.415051 -0.027872
vn 0.940693 0.337932 -0.029985
vn 0.947386 0.313709 -0.063611
vn 0.901243 0.432842 -0.020204
vn 0.940693 0.337932 -0.029985
vn 0.978292 0.204087 -0.035963
vn 0.978105 0.190039 -0.084828
vn 0.947386 0.313709 -0.063611
vn -0.022235 0.108201 0.993880
vn -0.037532 0.030616 0.998826
vn 0.001597 0.039088 0.999234
vn 0.003452 0.068334 0.997657
vn 0.001597 0.039088 0.999234
vn 0.005984 0.050963 0.998683
vn 0.076140 0.080126 0.993873
vn 0.003452 0.068334 0.997657
vn 0.076140 0.080126 0.993873
vn 0.008482 0.063375 0.997954
vn -0.078620 0.043737 0.995945
vn 0.003452 0.068334 0.997657
vn 0.003452 0.068334 0.997657
vn -0.025048 0.134691 0.990571
vn -0.046825 0.131258 0.990242
vn -0.022235 0.108201 0.993880
vn 0.008482 0.063375 0.997954
vn 0.035386 0.112593 0.993011
vn 0.072923 0.178785 0.981182
vn -0.078620 0.043737 0.995945
vn -0.025048 0.134691 0.990571
vn -0.074214 0.190844 0.978811
vn -0.074415 0.239192 0.968117
vn -0.046825 0.131258 0.990242
vn -0.074214 0.190844 0.978811
vn -0.074447 0.264565 0.961490
vn -0.074447 0.264565 0.961490
vn -0.074415 0.239192 0.968117
vn 0.035386 0.112593 0.993011
vn 0.073259 0.155014 0.985192
vn 0.084463 0.187361 0.978653
vn 0.072923 0.178785 0.981182
vn 0.005984 0.050963 0.998683
vn -0.020721 0.051842 0.998440
vn -0.035507 0.068282 0.997034
vn 0.076140 0.080126 0.993873
vn -0.020721 0.051842 0.998440
vn -0.013704 0.047284 0.998788
vn -0.028934 0.064567 0.997494
vn -0.035507 0.068282 0.997034
vn 0.035386 0.112593 0.993011
vn 0.031615 0.072434 0.996872
vn 0.030068 0.071257 0.997005
vn 0.073259 0.155014 0.985192
vn 0.031615 0.072434 0.996872
vn 0.010116 0.054984 0.998436
vn 0.008961 0.053945 0.998504
vn 0.030068 0.071257 0.997005
vn 0.005984 0.050963 0.998683
vn -0.007422 0.047333 0.998852
vn -0.006728 0.049212 0.998766
vn -0.020721 0.051842 0.998440
vn -0.020721 0.051842 0.998440
vn 0.000064 0.045337 0.998972
vn 0.000703 0.046445 0.998921
vn -0.013704 0.047284 0.998788
vn -0.037532 0.030616 0.998826
vn 0.001464 0.053386 0.998573
vn 0.001451 0.053700 0.998556
vn 0.001597 0.039088 0.999234
vn 0.001464 0.053386 0.998573
vn -0.018277 0.024179 0.999541
vn -0.019305 0.022423 0.999562
vn 0.001451 0.053700 0.998556
vn -0.018277 0.024179 0.999541
vn -0.031519 -0.050287 0.998237
vn -0.031415 -0.054802 0.998003
vn -0.019305 0.022423 0.999562
vn -0.031519 -0.050287 0.998237
vn -0.024144 -0.068979 0.997326
vn -0.026211 -0.079284 0.996507
vn -0.031415 -0.054802 0.998003
vn 0.001597 0.039088 0.999234
vn 0.008791 0.054033 0.998501
vn 0.009416 0.056713 0.998346
vn 0.005984 0.050963 0.998683
vn 0.008791 0.054033 0.998501
vn 0.006301 0.043286 0.999043
vn 0.004911 0.037301 0.999292
vn 0.009416 0.056713 0.998346
vn 0.006301 0.043286 0.999043
vn 0.001694 -0.030065 0.999547
vn 0.001610 -0.040272 0.999188
vn 0.004911 0.037301 0.999292
vn 0.001694 -0.030065 0.999547
vn 0.000908 -0.124676 0.992197
vn 0.000908 -0.124676 0.992197
vn 0.001610 -0.040272 0.999188
vn -0.007422 0.047333 0.998852
vn -0.001633 0.041982 0.999117
vn -0.001396 0.039302 0.999226
vn -0.006728 0.049212 0.998766
vn -0.001633 0.041982 0.999117
vn -0.010758 -0.037441 0.999241
vn -0.011612 -0.042474 0.999030
vn -0.001396 0.039302 0.999226
vn -0.010758 -0.037441 0.999241
vn -0.024290 -0.117277 0.992802
vn -0.024290 -0.117277 0.992802
vn -0.011612 -0.042474 0.999030
vn 0.000064 0.045337 0.998972
vn 0.006793 0.046613 0.998890
vn 0.006920 0.036806 0.999299
vn 0.000703 0.046445 0.998921
vn 0.006793 0.046613 0.998890
vn -0.011354 -0.021869 0.999696
vn -0.015102 -0.031644 0.999385
vn 0.006920 0.036806 0.999299
vn -0.011354 -0.021869 0.999696
vn -0.041605 -0.100787 0.994038
vn -0.041605 -0.100787 0.994038
vn -0.015102 -0.031644 0.999385
vn 0.010116 0.054984 0.998436
vn -0.001490 0.042613 0.999091
vn -0.002365 0.041098 0.999152
vn 0.008961 0.053945 0.998504
vn -0.001490 0.042613 0.999091
vn -0.042570 0.002258 0.999091
vn -0.053148 -0.007253 0.998560
vn -0.002365 0.041098 0.999152
vn -0.042570 0.002258 0.999091
vn -0.103465 -0.047659 0.993491
vn -0.118240 -0.037855 0.992263
vn -0.122398 -0.032241 0.991957
vn -0.053148 -0.007253 0.998560
vn -0.215834 -0.015099 0.976313
vn -0.290012 0.021537 0.956781
vn -0.353719 0.024900 0.935020
vn -0.122398 -0.032241 0.991957
vn -0.118240 -0.037855 0.992263
vn -0.103465 -0.047659 0.993491
vn -0.159060 -0.061875 0.985328
vn -0.215834 -0.015099 0.976313
vn -0.118240 -0.037855 0.992263
vn -0.159060 -0.061875 0.985328
vn -0.306642 -0.063631 0.949696
vn -0.306642 -0.063631 0.949696
vn -0.215834 -0.015099 0.976313
vn -0.290012 0.021537 0.956781
vn -0.432584 0.029022 0.901127
vn -0.432584 0.029022 0.901127
vn -0.353719 0.024900 0.935020
vn -0.024144 -0.068979 0.997326
vn 0.001581 0.034541 0.999402
vn 0.002004 0.043782 0.999039
vn -0.026211 -0.079284 0.996507
vn 0.001581 0.034541 0.999402
vn 0.000000 -0.000000 1.000000
vn 0.000000 -0.000000 1.000000
vn 0.002004 0.043782 0.999039
vn 0.000000 -0.000000 1.000000
vn 0.025180 0.090129 0.995612
vn 0.023732 0.084946 0.996103
vn 0.000000 -0.000000 1.000000
vn 0.025180 0.090129 0.995612
vn 0.034613 0.172382 0.984422
vn 0.019101 0.158403 0.987190
vn 0.023732 0.084946 0.996103
vn 0.061294 -0.188027 -0.980249
vn 0.009421 -0.141593 -0.989880
vn -0.034396 -0.030835 -0.998933
vn -0.043535 -0.046061 -0.997990
vn -0.034396 -0.030835 -0.998933
vn 0.009421 -0.141593 -0.989880
vn -0.055685 -0.093630 -0.994049
vn -0.012677 -0.018758 -0.999744
vn -0.055685 -0.093630 -0.994049
vn 0.009421 -0.141593 -0.989880
vn -0.191729 -0.299380 -0.934672
vn -0.153371 -0.250828 -0.955805
vn 0.009421 -0.141593 -0.989880
vn 0.061294 -0.188027 -0.980249
vn 0.043566 -0.315887 -0.947796
vn 0.060491 -0.270548 -0.960804
vn -0.153371 -0.250828 -0.955805
vn -0.191729 -0.299380 -0.934672
vn -0.077620 -0.312182 -0.946846
vn -0.149330 -0.239111 -0.959441
vn 0.060491 -0.270548 -0.960804
vn 0.043566 -0.315887 -0.947796
vn 0.048330 -0.390888 -0.919169
vn 0.037803 -0.377606 -0.925194
vn 0.037803 -0.377606 -0.925194
vn 0.048330 -0.390888 -0.919169
vn 0.052191 -0.395733 -0.916881
vn 0.052191 -0.395733 -0.916881
vn -0.149330 -0.239111 -0.959441
vn -0.077620 -0.312182 -0.946846
vn -0.070217 -0.311415 -0.947676
vn -0.113184 -0.258819 -0.959272
vn -0.012677 -0.018758 -0.999744
vn -0.055685 -0.093630 -0.994049
vn -0.146860 -0.141420 -0.978996
vn -0.084013 -0.070667 -0.993956
vn -0.084013 -0.070667 -0.993956
vn -0.146860 -0.141420 -0.978996
vn -0.191349 -0.169574 -0.966763
vn -0.136368 -0.096570 -0.985940
vn -0.149330 -0.239111 -0.959441
vn -0.113184 -0.258819 -0.959272
vn -0.238998 -0.108072 -0.964987
vn -0.236704 -0.110428 -0.965286
vn -0.236704 -0.110428 -0.965286
vn -0.238998 -0.108072 -0.964987
vn -0.291270 -0.057635 -0.954903
vn -0.288292 -0.060317 -0.955641
vn -0.012677 -0.018758 -0.999744
vn -0.084013 -0.070667 -0.993956
vn 0.000000 0.000000 -1.000000
vn 0.000000 0.000000 -1.000000
vn -0.084013 -0.070667 -0.993956
vn -0.136368 -0.096570 -0.985940
vn -0.050016 -0.023422 -0.998474
vn -0.055249 -0.025872 -0.998137
vn -0.043535 -0.046061 -0.997990
vn -0.034396 -0.030835 -0.998933
vn -0.102074 -0.002253 -0.994774
vn -0.101994 -0.003491 -0.994779
vn -0.101994 -0.003491 -0.994779
vn -0.102074 -0.002253 -0.994774
vn -0.072526 0.008455 -0.997331
vn -0.074127 0.008672 -0.997211
vn -0.074127 0.008672 -0.997211
vn -0.072526 0.008455 -0.997331
vn -0.080871 0.056485 -0.995123
vn -0.078288 0.051988 -0.995574
vn -0.078288 0.051988 -0.995574
vn -0.080871 0.056485 -0.995123
vn -0.115838 0.099995 -0.988222
vn -0.122040 0.100592 -0.987415
vn -0.034396 -0.030835 -0.998933
vn -0.012677 -0.018758 -0.999744
vn 0.000000 0.000000 -1.000000
vn 0.000000 0.000000 -1.000000
vn 0.000000 0.000000 -1.000000
vn 0.000000 0.000000 -1.000000
vn 0.000000 0.000000 -1.000000
vn 0.000000 0.000000 -1.000000
vn 0.000000 0.000000 -1.000000
vn 0.000000 0.000000 -1.000000
vn -0.000554 0.076036 -0.997105
vn -0.000467 0.064192 -0.997938
vn -0.000467 0.064192 -0.997938
vn -0.000554 0.076036 -0.997105
vn -0.001272 0.174680 -0.984625
vn -0.001272 0.174680 -0.984625
vn 0.000000 0.000000 -1.000000
vn 0.000000 0.000000 -1.000000
vn 0.000000 0.000000 -1.000000
vn 0.000000 0.000000 -1.000000
vn 0.000000 0.000000 -1.000000
vn 0.000000 0.000000 -1.000000
vn 0.016065 0.077568 -0.996858
vn 0.014880 0.071843 -0.997305
vn 0.014880 0.071843 -0.997305
vn 0.016065 0.077568 -0.996858
vn 0.034011 0.164216 -0.985838
vn 0.034011 0.164216 -0.985838
vn -0.055249 -0.025872 -0.998137
vn -0.050016 -0.023422 -0.998474
vn 0.000000 0.000000 -1.000000
vn 0.000000 0.000000 -1.000000
vn 0.000000 0.000000 -1.000000
vn 0.000000 0.000000 -1.000000
vn 0.026342 0.063815 -0.997614
vn 0.021926 0.053115 -0.998348
vn 0.021926 0.053115 -0.998348
vn 0.026342 0.063815 -0.997614
vn 0.058173 0.140923 -0.988310
vn 0.058173 0.140923 -0.988310
vn -0.288292 -0.060317 -0.955641
vn -0.291270 -0.057635 -0.954903
vn -0.328083 -0.030669 -0.944151
vn -0.324274 -0.032465 -0.945406
vn -0.324274 -0.032465 -0.945406
vn -0.328083 -0.030669 -0.944151
vn -0.285071 0.026105 -0.958151
vn -0.298840 0.014778 -0.954189
vn -0.298840 0.014778 -0.954189
vn -0.285071 0.026105 -0.958151
vn -0.295687 0.081858 -0.951771
vn -0.243797 0.089867 -0.965654
vn -0.169213 0.089918 -0.981469
vn -0.313118 0.134880 -0.940087
vn -0.243797 0.089867 -0.965654
vn -0.295687 0.081858 -0.951771
vn -0.521707 0.138542 -0.841800
vn -0.524763 0.124580 -0.842083
vn -0.169213 0.089918 -0.981469
vn -0.243797 0.089867 -0.965654
vn -0.313118 0.134880 -0.940087
vn 0.074181 0.153808 -0.985312
vn 0.074181 0.153808 -0.985312
vn -0.313118 0.134880 -0.940087
vn 0.037950 0.108706 -0.993349
vn 0.037950 0.108706 -0.993349
vn -0.524763 0.124580 -0.842083
vn -0.521707 0.138542 -0.841800
vn -0.517083 0.158751 -0.841084
vn -0.517083 0.158751 -0.841084
vn -0.122040 0.100592 -0.987415
vn -0.115838 0.099995 -0.988222
vn -0.179322 0.119721 -0.976479
vn -0.170019 0.124199 -0.977583
vn -0.170019 0.124199 -0.977583
vn -0.179322 0.119721 -0.976479
vn -0.094712 0.097277 -0.990741
vn -0.074950 0.077055 -0.994206
vn -0.074950 0.077055 -0.994206
vn -0.094712 0.097277 -0.990741
vn 0.026322 0.117119 -0.992769
vn 0.028167 0.125309 -0.991718
vn 0.028167 0.125309 -0.991718
vn 0.026322 0.117119 -0.992769
vn 0.003153 0.134943 -0.990848
vn 0.035137 0.212155 -0.976604
vn -0.626150 -0.716707 -0.307031
vn -0.751463 -0.658065 0.047472
vn -0.796325 -0.604579 -0.018761
vn -0.773149 -0.626675 -0.097570
vn -0.773149 -0.626675 -0.097570
vn -0.796325 -0.604579 -0.018761
vn -0.874369 -0.485192 0.008211
vn -0.878965 -0.476887 0.000000
vn -0.878965 -0.476887 0.000000
vn -0.874369 -0.485192 0.008211
vn -0.934148 -0.356160 0.022745
vn -0.935695 -0.352810 0.000000
vn -0.935695 -0.352810 0.000000
vn -0.934148 -0.356160 0.022745
vn -0.978103 -0.207116 0.020438
vn -0.981289 -0.192539 0.000000
vn 0.156948 0.987607 -0.000001
vn 0.156306 0.987350 -0.026625
vn -0.066820 0.997398 -0.027044
vn -0.066845 0.997763 0.000000
vn 0.482422 0.875939 -0.000001
vn 0.480872 0.876468 -0.023778
vn 0.156306 0.987350 -0.026625
vn 0.156948 0.987607 -0.000001
vn 0.711817 0.702365 0.000000
vn 0.717087 0.696106 -0.034973
vn 0.480872 0.876468 -0.023778
vn 0.482422 0.875939 -0.000001
vn -0.981289 -0.192539 0.000000
vn -0.978103 -0.207116 0.020438
vn -0.999743 -0.022594 0.002014
vn -0.999823 -0.018819 0.000000
vn -0.999823 -0.018819 0.000000
vn -0.999743 -0.022594 0.002014
vn -0.997974 0.063607 -0.001176
vn -0.997847 0.065579 0.000000
vn -0.997847 0.065579 0.000000
vn -0.997974 0.063607 -0.001176
vn -0.990949 0.134142 -0.005038
vn -0.990897 0.134382 0.008079
vn -0.990897 0.134382 0.008079
vn -0.990949 0.134142 -0.005038
vn -0.988649 0.149429 -0.015608
vn -0.988159 0.152748 0.014478
vn 0.800733 0.599009 0.003876
vn 0.802491 0.595476 -0.037624
vn 0.717087 0.696106 -0.034973
vn 0.711817 0.702365 0.000000
vn 0.941254 0.337372 0.014849
vn 0.941634 0.335376 -0.029114
vn 0.802491 0.595476 -0.037624
vn 0.800733 0.599009 0.003876
vn -0.988159 0.152748 0.014478
vn -0.988649 0.149429 -0.015608
vn -0.982908 0.180412 -0.036657
vn -0.982682 0.184992 0.010713
vn 0.962785 0.269542 0.019792
vn 0.963034 0.267624 -0.030698
vn 0.941634 0.335376 -0.029114
vn 0.941254 0.337372 0.014849
vn -0.670913 0.741536 0.000001
vn -0.685497 0.727024 -0.039117
vn -0.833159 0.551857 -0.036060
vn -0.842677 0.537738 -0.027094
vn -0.842677 0.537738 -0.027094
vn -0.833159 0.551857 -0.036060
vn -0.909371 0.415051 -0.027872
vn -0.906061 0.421637 -0.035704
vn -0.906061 0.421637 -0.035704
vn -0.909371 0.415051 -0.027872
vn -0.938137 0.345184 -0.027333
vn -0.936977 0.349205 -0.011431
vn -0.936977 0.349205 -0.011431
vn -0.938137 0.345184 -0.027333
vn -0.978368 0.195008 -0.069052
vn -0.977679 0.207372 -0.033774
vn 0.975019 0.217722 -0.044000
vn 0.967448 0.200450 -0.154480
vn 0.972184 0.208162 -0.107368
vn 0.975019 0.217722 -0.044000
vn -0.751463 -0.658065 0.047472
vn -0.773595 -0.594128 0.220371
vn -0.811033 -0.581013 0.068188
vn -0.796325 -0.604579 -0.018761
vn -0.796325 -0.604579 -0.018761
vn -0.811033 -0.581013 0.068188
vn -0.868500 -0.495583 0.010271
vn -0.874369 -0.485192 0.008211
vn -0.874369 -0.485192 0.008211
vn -0.868500 -0.495583 0.010271
vn -0.934900 -0.353104 0.035778
vn -0.934148 -0.356160 0.022745
vn -0.934148 -0.356160 0.022745
vn -0.934900 -0.353104 0.035778
vn -0.980724 -0.193130 0.029688
vn -0.978103 -0.207116 0.020438
vn 0.156306 0.987350 -0.026625
vn 0.157925 0.985818 -0.056773
vn -0.066735 0.996120 -0.057367
vn -0.066820 0.997398 -0.027044
vn 0.480872 0.876468 -0.023778
vn 0.484819 0.873168 -0.050285
vn 0.157925 0.985818 -0.056773
vn 0.156306 0.987350 -0.026625
vn 0.717087 0.696106 -0.034973
vn 0.721819 0.688291 -0.072334
vn 0.484819 0.873168 -0.050285
vn 0.480872 0.876468 -0.023778
vn -0.978103 -0.207116 0.020438
vn -0.980724 -0.193130 0.029688
vn -0.999639 -0.026588 0.003793
vn -0.999743 -0.022594 0.002014
vn -0.999743 -0.022594 0.002014
vn -0.999639 -0.026588 0.003793
vn -0.998175 0.060350 -0.002343
vn -0.997974 0.063607 -0.001176
vn -0.997974 0.063607 -0.001176
vn -0.998175 0.060350 -0.002343
vn -0.990758 0.134073 -0.020586
vn -0.990949 0.134142 -0.005038
vn -0.990949 0.134142 -0.005038
vn -0.990758 0.134073 -0.020586
vn -0.986327 0.158060 -0.046660
vn -0.988649 0.149429 -0.015608
vn 0.802491 0.595476 -0.037624
vn 0.816912 0.571442 -0.078154
vn 0.721819 0.688291 -0.072334
vn 0.717087 0.696106 -0.034973
vn 0.941634 0.335376 -0.029114
vn 0.943603 0.324172 -0.067278
vn 0.816912 0.571442 -0.078154
vn 0.802491 0.595476 -0.037624
vn -0.988649 0.149429 -0.015608
vn -0.986327 0.158060 -0.046660
vn -0.982151 0.177882 -0.061130
vn -0.982908 0.180412 -0.036657
vn 0.963034 0.267624 -0.030698
vn 0.961898 0.266031 -0.063089
vn 0.943603 0.324172 -0.067278
vn 0.941634 0.335376 -0.029114
vn -0.685497 0.727024 -0.039117
vn -0.700420 0.708841 -0.083402
vn -0.848824 0.527100 -0.040777
vn -0.833159 0.551857 -0.036060
vn -0.833159 0.551857 -0.036060
vn -0.848824 0.527100 -0.040777
vn -0.901243 0.432842 -0.020205
vn -0.909371 0.415051 -0.027872
vn -0.909371 0.415051 -0.027872
vn -0.901243 0.432842 -0.020205
vn -0.944935 0.323160 -0.051637
vn -0.938137 0.345184 -0.027333
vn -0.938137 0.345184 -0.027333
vn -0.944935 0.323160 -0.051637
vn -0.976999 0.170322 -0.128309
vn -0.978368 0.195008 -0.069052
vn 0.967448 0.200450 -0.154480
vn 0.960480 0.192271 -0.201269
vn 0.960481 0.192271 -0.201269
vn 0.972184 0.208162 -0.107368
vn -0.977679 0.207372 -0.033774
vn -0.978368 0.195008 -0.069052
vn -0.975496 0.149564 -0.161364
vn -0.979202 0.179828 -0.093939
vn 0.000000 0.056249 0.998417
vn 0.841981 -0.539016 0.023002
vn 0.841981 -0.539016 0.023002
vn -0.178885 0.000000 0.983870
vn 0.035137 0.212155 -0.976604
vn 0.003153 0.134943 -0.990848
vn -0.013344 0.094764 -0.995410
vn -0.013344 0.094764 -0.995410
vn -0.978368 0.195008 -0.069052
vn -0.976999 0.170322 -0.128309
vn -0.972088 0.135687 -0.191399
vn -0.975496 0.149564 -0.161364
vn 0.019101 0.158403 0.987190
vn 0.034613 0.172382 0.984422
vn 0.011140 0.151204 0.988440
vn 0.011140 0.151204 0.988440
vn 0.816938 -0.559773 0.138805
vn 0.000000 0.056249 0.998417
vn -0.178885 0.000000 0.983870
vn 0.816938 -0.559773 0.138805
s off
g shield:RoadKillOut
usemtl lambert2SG
f 79/1/1 80/2/2 81/3/3 82/4/4
f 81/3/5 80/2/6 83/5/7 84/6/8
f 83/7/9 80/8/10 85/9/11 86/10/12
f 80/8/13 79/11/14 87/12/15 85/9/16
f 86/10/17 85/9/18 88/13/19 89/14/20
f 85/9/21 87/15/22 90/16/23 88/13/24
f 88/17/25 90/18/26 91/19/27 92/20/28
f 89/21/29 88/17/30 92/20/31 93/22/32
f 84/23/33 83/7/34 86/10/35 94/24/36
f 94/25/37 86/10/38 89/14/39 95/26/40
f 89/14/41 93/27/42 96/28/43 95/26/44
f 95/29/45 96/30/46 97/31/47 98/32/48
f 84/33/49 94/34/50 99/35/51 100/36/52
f 94/34/53 95/29/54 98/32/55 99/35/56
f 82/37/57 81/38/58 101/39/59 102/40/60
f 102/41/61 101/42/62 103/43/63 104/44/64
f 104/45/65 103/46/66 105/47/67 106/48/68
f 106/49/69 105/50/70 107/51/71 108/52/72
f 81/38/73 84/33/74 100/36/75 101/39/76
f 101/42/77 100/53/78 109/54/79 103/43/80
f 103/46/81 109/55/82 110/56/83 105/47/84
f 105/50/85 110/57/86 111/58/87 107/51/88
f 100/53/89 99/59/90 112/60/91 109/54/92
f 109/55/93 112/61/94 113/62/95 110/56/96
f 110/57/97 113/63/98 114/64/99 111/58/100
f 99/59/101 98/65/102 115/66/103 112/60/104
f 112/61/105 115/67/106 116/68/107 113/62/108
f 113/63/109 116/69/110 117/70/111 114/64/112
f 98/65/113 97/71/114 118/72/115 115/66/116
f 115/67/117 118/73/118 119/74/119 116/68/120
f 116/69/121 119/75/122 120/76/123 121/77/124 117/70/125
f 122/78/126 121/79/127 120/80/128 123/81/129 124/82/130
f 117/83/131 121/79/132 122/78/133 125/84/134
f 125/85/135 122/78/136 124/82/137 126/86/138
f 124/82/139 123/87/140 127/88/141 126/86/142
f 108/89/143 107/90/144 128/91/145 129/92/146
f 129/93/147 128/94/148 130/95/149 131/96/150
f 131/97/151 130/98/152 132/99/153 133/100/154
f 133/101/155 132/102/156 134/103/157 135/104/158
f 1/105/159 3/106/160 6/107/161 5/108/162
f 6/107/163 4/109/164 2/110/165 5/108/166
f 2/111/167 10/112/168 9/113/169 5/114/170
f 5/114/171 9/113/172 8/115/173 1/116/174
f 10/112/175 7/117/176 12/118/177 9/113/178
f 9/113/179 12/118/180 11/119/181 8/120/182
f 12/121/183 14/122/184 13/123/185 11/124/186
f 7/125/187 15/126/188 14/122/189 12/121/190
f 4/127/191 16/128/192 10/112/193 2/111/194
f 16/129/195 17/130/196 7/117/197 10/112/198
f 7/117/199 17/130/200 18/131/201 15/132/202
f 17/133/203 19/134/204 20/135/205 18/136/206
f 4/137/207 21/138/208 22/139/209 16/140/210
f 16/140/211 22/139/212 19/134/213 17/133/214
f 3/141/215 23/142/216 24/143/217 6/144/218
f 23/145/219 25/146/220 26/147/221 24/148/222
f 25/149/223 27/150/224 28/151/225 26/152/226
f 27/153/227 29/154/228 30/155/229 28/156/230
f 6/144/231 24/143/232 21/138/233 4/137/234
f 24/148/235 26/147/236 31/157/237 21/158/238
f 26/152/239 28/151/240 32/159/241 31/160/242
f 28/156/243 30/155/244 33/161/245 32/162/246
f 21/158/247 31/157/248 34/163/249 22/164/250
f 31/160/251 32/159/252 35/165/253 34/166/254
f 32/162/255 33/161/256 36/167/257 35/168/258
f 22/164/259 34/163/260 37/169/261 19/170/262
f 34/166/263 35/165/264 38/171/265 37/172/266
f 35/168/267 36/167/268 39/173/269 38/174/270
f 19/170/271 37/169/272 40/175/273 20/176/274
f 37/172/275 38/171/276 41/177/277 40/178/278
f 38/174/279 39/173/280 46/179/281 42/180/282 41/181/283
f 45/182/284 48/183/285 44/184/286 42/185/287 46/186/288
f 39/187/289 43/188/290 45/182/291 46/186/292
f 43/189/293 47/190/294 48/183/295 45/182/296
f 48/183/297 47/190/298 49/191/299 44/192/300
f 29/193/301 50/194/302 51/195/303 30/196/304
f 50/197/305 52/198/306 53/199/307 51/200/308
f 52/201/309 54/202/310 55/203/311 53/204/312
f 54/205/313 56/206/314 57/207/315 55/208/316
f 13/209/317 14/210/318 59/211/319 58/212/320
f 14/210/321 15/213/322 60/214/323 59/211/324
f 15/215/325 18/216/326 61/217/327 60/218/328
f 18/219/329 20/220/330 62/221/331 61/222/332
f 33/223/333 30/224/334 63/225/335 64/226/336
f 36/227/337 33/223/338 64/226/339 65/228/340
f 39/229/341 36/227/342 65/228/343 66/230/344
f 20/231/345 40/232/346 67/233/347 62/234/348
f 40/235/349 41/236/350 68/237/351 67/238/352
f 41/239/353 42/240/354 69/241/355 68/242/356
f 42/243/357 44/244/358 70/245/359 69/246/360
f 43/247/361 39/248/362 66/249/363 71/250/364
f 47/251/365 43/252/366 71/253/367 72/254/368
f 44/255/369 49/256/370 73/257/371 70/258/372
f 49/256/373 47/251/374 72/254/375 73/257/376
f 30/259/377 51/260/378 74/261/379 63/262/380
f 51/263/381 53/264/382 75/265/383 74/266/384
f 53/267/385 55/268/386 76/269/387 75/270/388
f 55/271/389 57/272/390 77/273/391 76/274/392
f 58/212/393 59/211/394 92/20/395 91/19/396
f 59/211/397 60/214/398 93/22/399 92/20/400
f 60/218/401 61/217/402 96/28/403 93/27/404
f 61/222/405 62/221/406 97/31/407 96/30/408
f 64/226/409 63/225/410 107/51/411 111/58/412
f 65/228/413 64/226/414 111/58/415 114/64/416
f 66/230/417 65/228/418 114/64/419 117/70/420
f 62/234/421 67/233/422 118/72/423 97/71/424
f 67/238/425 68/237/426 119/74/427 118/73/428
f 68/242/429 69/241/430 120/76/431 119/75/432
f 69/246/433 70/245/434 123/81/435 120/80/436
f 71/250/437 66/249/438 117/83/439 125/84/440
f 72/254/441 71/253/442 125/85/443 126/86/444
f 70/258/445 73/257/446 127/88/447 123/87/448
f 73/257/449 72/254/450 126/86/451 127/88/452
f 63/262/453 74/261/454 128/91/455 107/90/456
f 74/266/457 75/265/458 130/95/459 128/94/460
f 75/270/461 76/269/462 132/99/463 130/98/464
f 76/274/465 77/273/466 134/103/467 132/102/468
f 79/275/469 82/276/470 200/277/471 199/278/472
f 200/277/473 202/279/474 201/280/475 199/278/476
f 201/281/477 204/282/478 203/283/479 199/284/480
f 199/284/481 203/283/482 87/285/483 79/286/484
f 204/282/485 206/287/486 205/288/487 203/283/488
f 203/283/489 205/288/490 90/289/491 87/290/492
f 205/291/493 207/292/494 91/293/495 90/294/496
f 206/295/497 208/296/498 207/292/499 205/291/500
f 202/297/501 209/298/502 204/282/503 201/281/504
f 209/299/505 210/300/506 206/287/507 204/282/508
f 206/287/509 210/300/510 211/301/511 208/302/512
f 210/303/513 213/304/514 212/305/515 211/306/516
f 202/307/517 215/308/518 214/309/519 209/310/520
f 209/310/521 214/309/522 213/304/523 210/303/524
f 82/311/525 102/312/526 216/313/527 200/314/528
f 102/315/529 104/316/530 217/317/531 216/318/532
f 104/319/533 106/320/534 218/321/535 217/322/536
f 106/323/537 108/324/538 219/325/539 218/326/540
f 200/314/541 216/313/542 215/308/543 202/307/544
f 216/318/545 217/317/546 220/327/547 215/328/548
f 217/322/549 218/321/550 221/329/551 220/330/552
f 218/326/553 219/325/554 222/331/555 221/332/556
f 215/328/557 220/327/558 223/333/559 214/334/560
f 220/335/561 221/336/562 224/337/563 223/338/564
f 221/332/565 222/331/566 225/339/567 224/340/568
f 214/334/569 223/333/570 226/341/571 213/342/572
f 223/338/573 224/337/574 227/343/575 226/344/576
f 224/340/577 225/339/578 228/345/579 227/346/580
f 213/342/581 226/341/582 229/347/583 212/348/584
f 226/344/585 227/343/586 230/349/587 229/350/588
f 227/346/589 228/345/590 232/351/591 231/352/592 230/353/593
f 233/354/594 235/355/595 234/356/596 231/357/597 232/358/598
f 228/359/599 236/360/600 233/354/601 232/358/602
f 236/361/603 237/362/604 235/355/605 233/354/606
f 235/355/607 237/362/608 238/363/609 234/364/610
f 108/365/611 129/366/612 239/367/613 219/368/614
f 129/369/615 131/370/616 240/371/617 239/372/618
f 131/373/619 133/374/620 241/375/621 240/376/622
f 133/377/623 135/378/624 242/379/625 241/380/626
f 1/381/627 138/382/628 139/383/629 3/384/630
f 139/383/631 138/382/632 136/385/633 137/386/634
f 136/387/635 138/388/636 141/389/637 142/390/638
f 138/388/639 1/391/640 8/392/641 141/389/642
f 142/390/643 141/389/644 143/393/645 140/394/646
f 141/389/647 8/395/648 11/396/649 143/393/650
f 143/397/651 11/398/652 13/399/653 144/400/654
f 140/401/655 143/397/656 144/400/657 145/402/658
f 137/403/659 136/387/660 142/390/661 146/404/662
f 146/405/663 142/390/664 140/394/665 147/406/666
f 140/394/667 145/407/668 148/408/669 147/406/670
f 147/409/671 148/410/672 150/411/673 149/412/674
f 137/413/675 146/414/676 152/415/677 151/416/678
f 146/414/679 147/409/680 149/412/681 152/415/682
f 3/417/683 139/418/684 153/419/685 23/420/686
f 23/421/687 153/422/688 154/423/689 25/424/690
f 25/425/691 154/426/692 155/427/693 27/428/694
f 27/429/695 155/430/696 156/431/697 29/432/698
f 139/418/699 137/413/700 151/416/701 153/419/702
f 153/422/703 151/433/704 157/434/705 154/423/706
f 154/426/707 157/435/708 158/436/709 155/427/710
f 155/430/711 158/437/712 159/438/713 156/431/714
f 151/433/715 152/439/716 160/440/717 157/434/718
f 157/441/719 160/442/720 161/443/721 158/444/722
f 158/437/723 161/445/724 162/446/725 159/438/726
f 152/439/727 149/447/728 163/448/729 160/440/730
f 160/449/731 163/450/732 164/451/733 161/452/734
f 161/445/735 164/453/736 165/454/737 162/446/738
f 149/447/739 150/455/740 166/456/741 163/448/742
f 163/450/743 166/457/744 167/458/745 164/451/746
f 164/453/747 167/459/748 168/460/749 172/461/750 165/454/751
f 171/462/752 172/463/753 168/464/754 170/465/755 174/466/756
f 165/467/757 172/463/758 171/462/759 169/468/760
f 169/469/761 171/462/762 174/466/763 173/470/764
f 174/466/765 170/471/766 175/472/767 173/470/768
f 29/473/769 156/474/770 176/475/771 50/476/772
f 50/477/773 176/478/774 177/479/775 52/480/776
f 52/481/777 177/482/778 178/483/779 54/484/780
f 54/485/781 178/486/782 179/487/783 56/488/784
f 13/489/785 58/490/786 180/491/787 144/492/788
f 144/492/789 180/491/790 181/493/791 145/494/792
f 145/495/793 181/496/794 182/497/795 148/498/796
f 148/499/797 182/500/798 183/501/799 150/502/800
f 159/503/801 185/504/802 184/505/803 156/506/804
f 162/507/805 186/508/806 185/504/807 159/503/808
f 165/509/809 187/510/810 186/508/811 162/507/812
f 150/511/813 183/512/814 188/513/815 166/514/816
f 166/515/817 188/516/818 189/517/819 167/518/820
f 167/519/821 189/520/822 190/521/823 168/522/824
f 168/523/825 190/524/826 191/525/827 170/526/828
f 169/527/829 192/528/830 187/529/831 165/530/832
f 173/531/833 193/532/834 192/533/835 169/534/836
f 170/535/837 191/536/838 194/537/839 175/538/840
f 175/538/841 194/537/842 193/532/843 173/531/844
f 156/539/845 184/540/846 195/541/847 176/542/848
f 176/543/849 195/544/850 196/545/851 177/546/852
f 177/547/853 196/548/854 197/549/855 178/550/856
f 178/551/857 197/552/858 198/553/859 179/554/860
f 243/555/861 244/556/862 77/557/863 57/558/864
f 58/490/865 91/293/866 207/292/867 180/491/868
f 180/491/869 207/292/870 208/296/871 181/493/872
f 181/496/873 208/302/874 211/301/875 182/497/876
f 182/500/877 211/306/878 212/305/879 183/501/880
f 185/504/881 222/331/882 219/325/883 184/505/884
f 186/508/885 225/339/886 222/331/887 185/504/888
f 187/510/889 228/345/890 225/339/891 186/508/892
f 183/512/893 212/348/894 229/347/895 188/513/896
f 188/516/897 229/350/898 230/349/899 189/517/900
f 189/520/901 230/353/902 231/352/903 190/521/904
f 190/524/905 231/357/906 234/356/907 191/525/908
f 192/528/909 236/360/910 228/359/911 187/529/912
f 193/532/913 237/362/914 236/361/915 192/533/916
f 191/536/917 234/364/918 238/363/919 194/537/920
f 194/537/921 238/363/922 237/362/923 193/532/924
f 184/540/925 219/368/926 239/367/927 195/541/928
f 195/544/929 239/372/930 240/371/931 196/545/932
f 196/548/933 240/376/934 241/375/935 197/549/936
f 197/552/937 241/380/938 242/379/939 198/553/940
f 244/559/941 245/560/942 134/561/943 77/562/944
f 179/554/945 198/553/946 244/556/947 243/555/948
f 78/563/949 56/564/950 57/565/951 77/566/952
f 56/567/953 179/554/954 243/555/955 57/558/956
f 198/553/957 242/379/958 245/560/959 244/559/960
f 242/568/961 135/569/962 134/570/963 245/571/964
f 135/572/965 78/573/966 77/574/967 134/575/968
