# This file uses centimeters as units for non-parametric coordinates.

mtllib WallFull.mtl
g default
v -7.353194 0.002317 0.500000
v -6.372768 0.002317 0.500000
v -5.392343 0.002317 0.500000
v -4.411917 0.002317 0.500000
v -3.431491 0.002317 0.500000
v -2.451065 0.002317 0.500000
v -1.470639 0.002317 0.500000
v -0.490213 0.002317 0.500000
v 0.490213 0.002317 0.500000
v 1.470639 0.002317 0.500000
v 2.451065 0.002317 0.500000
v 3.431490 0.002317 0.500000
v 4.411916 0.002317 0.500000
v 5.392339 0.002317 0.500000
v 6.372768 0.002317 0.500000
v 7.353194 0.002317 0.500000
v -7.353194 0.539681 0.500000
v -6.372768 0.539681 0.500000
v -5.392343 0.539681 0.500000
v -4.411917 0.539681 0.500000
v -3.431491 0.539681 0.500000
v -2.451065 0.539681 0.500000
v -1.470639 0.539681 0.500000
v -0.490213 0.539681 0.500000
v 0.490213 0.539681 0.500000
v 1.470639 0.539681 0.500000
v 2.451065 0.539681 0.500000
v 3.431490 0.539681 0.500000
v 4.411916 0.539681 0.500000
v 5.392339 0.539681 0.500000
v 6.372768 0.539681 0.500000
v 7.353194 0.539681 0.500000
v -7.353194 1.077048 0.500000
v -6.372768 1.077048 0.500000
v -5.392343 1.077048 0.500000
v -4.411917 1.077048 0.500000
v -3.431491 1.077048 0.500000
v -2.451065 1.077048 0.500000
v -1.470639 1.077048 0.500000
v -0.490213 1.077048 0.500000
v 0.490213 1.077048 0.500000
v 1.470639 1.077048 0.500000
v 2.451065 1.077048 0.500000
v 3.431490 1.077048 0.500000
v 4.411916 1.077048 0.500000
v 5.392339 1.077048 0.500000
v 6.372768 1.077048 0.500000
v 7.353194 1.077048 0.500000
v -7.353194 1.614413 0.500000
v -6.372768 1.614413 0.500000
v -5.392343 1.614413 0.500000
v -4.411917 1.614413 0.500000
v -3.431491 1.614413 0.500000
v -2.451065 1.614413 0.500000
v -1.470639 1.614413 0.500000
v -0.490213 1.614413 0.500000
v 0.490213 1.614413 0.500000
v 1.470639 1.614413 0.500000
v 2.451065 1.614413 0.500000
v 3.431490 1.614413 0.500000
v 4.411916 1.614413 0.500000
v 5.392339 1.614413 0.500000
v 6.372768 1.614413 0.500000
v 7.353194 1.614413 0.500000
v -7.353194 2.151778 0.500000
v -6.372768 2.151778 0.500000
v -5.392343 2.151778 0.500000
v -4.411917 2.151778 0.500000
v -3.431491 2.151778 0.500000
v -2.451065 2.151778 0.500000
v -1.470639 2.151778 0.500000
v -0.490213 2.151778 0.500000
v 0.490213 2.151778 0.500000
v 1.470639 2.151778 0.500000
v 2.451065 2.151778 0.500000
v 3.431490 2.151778 0.500000
v 4.411916 2.151778 0.500000
v 5.392339 2.151778 0.500000
v 6.372768 2.151778 0.500000
v 7.353194 2.151778 0.500000
v -7.353194 2.689144 0.500000
v -6.372768 2.689144 0.500000
v -5.392343 2.689144 0.500000
v -4.411917 2.689144 0.500000
v -3.431491 2.689144 0.500000
v -2.451065 2.689144 0.500000
v -1.470639 2.689144 0.500000
v -0.490213 2.689144 0.500000
v 0.490213 2.689144 0.500000
v 1.470639 2.689144 0.500000
v 2.451065 2.689144 0.500000
v 3.431490 2.689144 0.500000
v 4.411916 2.689144 0.500000
v 5.392339 2.689144 0.500000
v 6.372768 2.689144 0.500000
v 7.353194 2.689144 0.500000
v -7.353194 3.226509 0.500000
v -6.372768 3.226509 0.500000
v -5.392343 3.226509 0.500000
v -4.411917 3.226509 0.500000
v -3.431491 3.226509 0.500000
v -2.451065 3.226509 0.500000
v -1.470639 3.226509 0.500000
v -0.490213 3.226509 0.500000
v 0.490213 3.226509 0.500000
v 1.470639 3.226509 0.500000
v 2.451065 3.226509 0.500000
v 3.431490 3.226509 0.500000
v 4.411916 3.226509 0.500000
v 5.392339 3.226509 0.500000
v 6.372768 3.226509 0.500000
v 7.353194 3.226509 0.500000
v -7.353194 3.763874 0.500000
v -6.372768 3.763874 0.500000
v -5.392343 3.763874 0.500000
v -4.411917 3.763874 0.500000
v -3.431491 3.763874 0.500000
v -2.451065 3.763874 0.500000
v -1.470639 3.763874 0.500000
v -0.490213 3.763874 0.500000
v 0.490213 3.763874 0.500000
v 1.470639 3.763874 0.500000
v 2.451065 3.763874 0.500000
v 3.431490 3.763874 0.500000
v 4.411916 3.763874 0.500000
v 5.392339 3.763874 0.500000
v 6.372768 3.763874 0.500000
v 7.353194 3.763874 0.500000
v -7.353194 4.301240 0.500000
v -6.372768 4.301240 0.500000
v -5.392343 4.301240 0.500000
v -4.411917 4.301240 0.500000
v -3.431491 4.301240 0.500000
v -2.451065 4.301240 0.500000
v -1.470639 4.301240 0.500000
v -0.490213 4.301240 0.500000
v 0.490213 4.301240 0.500000
v 1.470639 4.301240 0.500000
v 2.451065 4.301240 0.500000
v 3.431490 4.301240 0.500000
v 4.411916 4.301240 0.500000
v 5.392339 4.301240 0.500000
v 6.372768 4.301240 0.500000
v 7.353194 4.301240 0.500000
v -7.353194 4.838605 0.500000
v -6.372768 4.838605 0.500000
v -5.392343 4.838605 0.500000
v -4.411917 4.838605 0.500000
v -3.431491 4.838605 0.500000
v -2.451065 4.838605 0.500000
v -1.470639 4.838605 0.500000
v -0.490213 4.838605 0.500000
v 0.490213 4.838605 0.500000
v 1.470639 4.838605 0.500000
v 2.451065 4.838605 0.500000
v 3.431490 4.838605 0.500000
v 4.411916 4.838605 0.500000
v 5.392339 4.838605 0.500000
v 6.372768 4.838605 0.500000
v 7.353194 4.838605 0.500000
v -7.353194 5.375970 0.500000
v -6.372768 5.375970 0.500000
v -5.392343 5.375970 0.500000
v -4.411917 5.375970 0.500000
v -3.431491 5.375970 0.500000
v -2.451065 5.375970 0.500000
v -1.470639 5.375970 0.500000
v -0.490213 5.375970 0.500000
v 0.490213 5.375970 0.500000
v 1.470639 5.375970 0.500000
v 2.451065 5.375970 0.500000
v 3.431490 5.375970 0.500000
v 4.411916 5.375970 0.500000
v 5.392339 5.375970 0.500000
v 6.372768 5.375970 0.500000
v 7.353194 5.375970 0.500000
v -7.353194 5.913336 0.500000
v -6.372768 5.913336 0.500000
v -5.392343 5.913336 0.500000
v -4.411917 5.913336 0.500000
v -3.431491 5.913336 0.500000
v -2.451065 5.913336 0.500000
v -1.470639 5.913336 0.500000
v -0.490213 5.913336 0.500000
v 0.490213 5.913336 0.500000
v 1.470639 5.913336 0.500000
v 2.451065 5.913336 0.500000
v 3.431490 5.913336 0.500000
v 4.411916 5.913336 0.500000
v 5.392339 5.913336 0.500000
v 6.372768 5.913336 0.500000
v 7.353194 5.913336 0.500000
v -7.353194 6.450701 0.500000
v -6.372768 6.450701 0.500000
v -5.392343 6.450701 0.500000
v -4.411917 6.450701 0.500000
v -3.431491 6.450701 0.500000
v -2.451065 6.450701 0.500000
v -1.470639 6.450701 0.500000
v -0.490213 6.450701 0.500000
v 0.490213 6.450701 0.500000
v 1.470639 6.450701 0.500000
v 2.451065 6.450701 0.500000
v 3.431490 6.450701 0.500000
v 4.411916 6.450701 0.500000
v 5.392339 6.450701 0.500000
v 6.372768 6.450701 0.500000
v 7.353194 6.450701 0.500000
v -7.353194 6.988066 0.500000
v -6.372768 6.988066 0.500000
v -5.392343 6.988066 0.500000
v -4.411917 6.988066 0.500000
v -3.431491 6.988066 0.500000
v -2.451065 6.988066 0.500000
v -1.470639 6.988066 0.500000
v -0.490213 6.988066 0.500000
v 0.490213 6.988066 0.500000
v 1.470639 6.988066 0.500000
v 2.451065 6.988066 0.500000
v 3.431490 6.988066 0.500000
v 4.411916 6.988066 0.500000
v 5.392339 6.988066 0.500000
v 6.372768 6.988066 0.500000
v 7.353194 6.988066 0.500000
v -7.353194 7.525432 0.500000
v -6.372768 7.525432 0.500000
v -5.392343 7.525432 0.500000
v -4.411917 7.525432 0.500000
v -3.431491 7.525432 0.500000
v -2.451065 7.525432 0.500000
v -1.470639 7.525432 0.500000
v -0.490213 7.525432 0.500000
v 0.490213 7.525432 0.500000
v 1.470639 7.525432 0.500000
v 2.451065 7.525432 0.500000
v 3.431490 7.525432 0.500000
v 4.411916 7.525432 0.500000
v 5.392339 7.525432 0.500000
v 6.372768 7.525432 0.500000
v 7.353194 7.525432 0.500000
v -7.353194 8.062797 0.500000
v -6.372768 8.062797 0.500000
v -5.392343 8.062797 0.500000
v -4.411917 8.062797 0.500000
v -3.431491 8.062797 0.500000
v -2.451065 8.062797 0.500000
v -1.470639 8.062797 0.500000
v -0.490213 8.062797 0.500000
v 0.490213 8.062797 0.500000
v 1.470639 8.062797 0.500000
v 2.451065 8.062797 0.500000
v 3.431490 8.062797 0.500000
v 4.411916 8.062797 0.500000
v 5.392339 8.062797 0.500000
v 6.372768 8.062797 0.500000
v 7.353194 8.062797 0.500000
v -7.353194 8.062797 -0.500000
v -6.372768 8.062797 -0.500000
v -5.392343 8.062797 -0.500000
v -4.411917 8.062797 -0.500000
v -3.431491 8.062797 -0.500000
v -2.451065 8.062797 -0.500000
v -1.470639 8.062797 -0.500000
v -0.490213 8.062797 -0.500000
v 0.490213 8.062797 -0.500000
v 1.470639 8.062797 -0.500000
v 2.451065 8.062797 -0.500000
v 3.431490 8.062797 -0.500000
v 4.411916 8.062797 -0.500000
v 5.392339 8.062797 -0.500000
v 6.372768 8.062797 -0.500000
v 7.353194 8.062797 -0.500000
v -7.353194 7.525434 -0.500000
v -6.372768 7.525434 -0.500000
v -5.392343 7.525434 -0.500000
v -4.411917 7.525434 -0.500000
v -3.431491 7.525434 -0.500000
v -2.451065 7.525434 -0.500000
v -1.470639 7.525434 -0.500000
v -0.490213 7.525434 -0.500000
v 0.490213 7.525434 -0.500000
v 1.470639 7.525434 -0.500000
v 2.451065 7.525434 -0.500000
v 3.431490 7.525434 -0.500000
v 4.411916 7.525434 -0.500000
v 5.392339 7.525434 -0.500000
v 6.372768 7.525434 -0.500000
v 7.353194 7.525434 -0.500000
v -7.353194 6.988067 -0.500000
v -6.372768 6.988067 -0.500000
v -5.392343 6.988067 -0.500000
v -4.411917 6.988067 -0.500000
v -3.431491 6.988067 -0.500000
v -2.451065 6.988067 -0.500000
v -1.470639 6.988067 -0.500000
v -0.490213 6.988067 -0.500000
v 0.490213 6.988067 -0.500000
v 1.470639 6.988067 -0.500000
v 2.451065 6.988067 -0.500000
v 3.431490 6.988067 -0.500000
v 4.411916 6.988067 -0.500000
v 5.392339 6.988067 -0.500000
v 6.372768 6.988067 -0.500000
v 7.353194 6.988067 -0.500000
v -7.353194 6.450701 -0.500000
v -6.372768 6.450701 -0.500000
v -5.392343 6.450701 -0.500000
v -4.411917 6.450701 -0.500000
v -3.431491 6.450701 -0.500000
v -2.451065 6.450701 -0.500000
v -1.470639 6.450701 -0.500000
v -0.490213 6.450701 -0.500000
v 0.490213 6.450701 -0.500000
v 1.470639 6.450701 -0.500000
v 2.451065 6.450701 -0.500000
v 3.431490 6.450701 -0.500000
v 4.411916 6.450701 -0.500000
v 5.392339 6.450701 -0.500000
v 6.372768 6.450701 -0.500000
v 7.353194 6.450701 -0.500000
v -7.353194 5.913336 -0.500000
v -6.372768 5.913336 -0.500000
v -5.392343 5.913336 -0.500000
v -4.411917 5.913336 -0.500000
v -3.431491 5.913336 -0.500000
v -2.451065 5.913336 -0.500000
v -1.470639 5.913336 -0.500000
v -0.490213 5.913336 -0.500000
v 0.490213 5.913336 -0.500000
v 1.470639 5.913336 -0.500000
v 2.451065 5.913336 -0.500000
v 3.431490 5.913336 -0.500000
v 4.411916 5.913336 -0.500000
v 5.392339 5.913336 -0.500000
v 6.372768 5.913336 -0.500000
v 7.353194 5.913336 -0.500000
v -7.353194 5.375971 -0.500000
v -6.372768 5.375971 -0.500000
v -5.392343 5.375971 -0.500000
v -4.411917 5.375971 -0.500000
v -3.431491 5.375971 -0.500000
v -2.451065 5.375971 -0.500000
v -1.470639 5.375971 -0.500000
v -0.490213 5.375971 -0.500000
v 0.490213 5.375971 -0.500000
v 1.470639 5.375971 -0.500000
v 2.451065 5.375971 -0.500000
v 3.431490 5.375971 -0.500000
v 4.411916 5.375971 -0.500000
v 5.392339 5.375971 -0.500000
v 6.372768 5.375971 -0.500000
v 7.353194 5.375971 -0.500000
v -7.353194 4.838605 -0.500000
v -6.372768 4.838605 -0.500000
v -5.392343 4.838605 -0.500000
v -4.411917 4.838605 -0.500000
v -3.431491 4.838605 -0.500000
v -2.451065 4.838605 -0.500000
v -1.470639 4.838605 -0.500000
v -0.490213 4.838605 -0.500000
v 0.490213 4.838605 -0.500000
v 1.470639 4.838605 -0.500000
v 2.451065 4.838605 -0.500000
v 3.431490 4.838605 -0.500000
v 4.411916 4.838605 -0.500000
v 5.392339 4.838605 -0.500000
v 6.372768 4.838605 -0.500000
v 7.353194 4.838605 -0.500000
v -7.353194 4.301240 -0.500000
v -6.372768 4.301240 -0.500000
v -5.392343 4.301240 -0.500000
v -4.411917 4.301240 -0.500000
v -3.431491 4.301240 -0.500000
v -2.451065 4.301240 -0.500000
v -1.470639 4.301240 -0.500000
v -0.490213 4.301240 -0.500000
v 0.490213 4.301240 -0.500000
v 1.470639 4.301240 -0.500000
v 2.451065 4.301240 -0.500000
v 3.431490 4.301240 -0.500000
v 4.411916 4.301240 -0.500000
v 5.392339 4.301240 -0.500000
v 6.372768 4.301240 -0.500000
v 7.353194 4.301240 -0.500000
v -7.353194 3.763875 -0.500000
v -6.372768 3.763875 -0.500000
v -5.392343 3.763875 -0.500000
v -4.411917 3.763875 -0.500000
v -3.431491 3.763875 -0.500000
v -2.451065 3.763875 -0.500000
v -1.470639 3.763875 -0.500000
v -0.490213 3.763875 -0.500000
v 0.490213 3.763875 -0.500000
v 1.470639 3.763875 -0.500000
v 2.451065 3.763875 -0.500000
v 3.431490 3.763875 -0.500000
v 4.411916 3.763875 -0.500000
v 5.392339 3.763875 -0.500000
v 6.372768 3.763875 -0.500000
v 7.353194 3.763875 -0.500000
v -7.353194 3.226509 -0.500000
v -6.372768 3.226509 -0.500000
v -5.392343 3.226509 -0.500000
v -4.411917 3.226509 -0.500000
v -3.431491 3.226509 -0.500000
v -2.451065 3.226509 -0.500000
v -1.470639 3.226509 -0.500000
v -0.490213 3.226509 -0.500000
v 0.490213 3.226509 -0.500000
v 1.470639 3.226509 -0.500000
v 2.451065 3.226509 -0.500000
v 3.431490 3.226509 -0.500000
v 4.411916 3.226509 -0.500000
v 5.392339 3.226509 -0.500000
v 6.372768 3.226509 -0.500000
v 7.353194 3.226509 -0.500000
v -7.353194 2.689144 -0.500000
v -6.372768 2.689144 -0.500000
v -5.392343 2.689144 -0.500000
v -4.411917 2.689144 -0.500000
v -3.431491 2.689144 -0.500000
v -2.451065 2.689144 -0.500000
v -1.470639 2.689144 -0.500000
v -0.490213 2.689144 -0.500000
v 0.490213 2.689144 -0.500000
v 1.470639 2.689144 -0.500000
v 2.451065 2.689144 -0.500000
v 3.431490 2.689144 -0.500000
v 4.411916 2.689144 -0.500000
v 5.392339 2.689144 -0.500000
v 6.372768 2.689144 -0.500000
v 7.353194 2.689144 -0.500000
v -7.353194 2.151779 -0.500000
v -6.372768 2.151779 -0.500000
v -5.392343 2.151779 -0.500000
v -4.411917 2.151779 -0.500000
v -3.431491 2.151779 -0.500000
v -2.451065 2.151779 -0.500000
v -1.470639 2.151779 -0.500000
v -0.490213 2.151779 -0.500000
v 0.490213 2.151779 -0.500000
v 1.470639 2.151779 -0.500000
v 2.451065 2.151779 -0.500000
v 3.431490 2.151779 -0.500000
v 4.411916 2.151779 -0.500000
v 5.392339 2.151779 -0.500000
v 6.372768 2.151779 -0.500000
v 7.353194 2.151779 -0.500000
v -7.353194 1.614413 -0.500000
v -6.372768 1.614413 -0.500000
v -5.392343 1.614413 -0.500000
v -4.411917 1.614413 -0.500000
v -3.431491 1.614413 -0.500000
v -2.451065 1.614413 -0.500000
v -1.470639 1.614413 -0.500000
v -0.490213 1.614413 -0.500000
v 0.490213 1.614413 -0.500000
v 1.470639 1.614413 -0.500000
v 2.451065 1.614413 -0.500000
v 3.431490 1.614413 -0.500000
v 4.411916 1.614413 -0.500000
v 5.392339 1.614413 -0.500000
v 6.372768 1.614413 -0.500000
v 7.353194 1.614413 -0.500000
v -7.353194 1.077048 -0.500000
v -6.372768 1.077048 -0.500000
v -5.392343 1.077048 -0.500000
v -4.411917 1.077048 -0.500000
v -3.431491 1.077048 -0.500000
v -2.451065 1.077048 -0.500000
v -1.470639 1.077048 -0.500000
v -0.490213 1.077048 -0.500000
v 0.490213 1.077048 -0.500000
v 1.470639 1.077048 -0.500000
v 2.451065 1.077048 -0.500000
v 3.431490 1.077048 -0.500000
v 4.411916 1.077048 -0.500000
v 5.392339 1.077048 -0.500000
v 6.372768 1.077048 -0.500000
v 7.353194 1.077048 -0.500000
v -7.353194 0.539683 -0.500000
v -6.372768 0.539683 -0.500000
v -5.392343 0.539683 -0.500000
v -4.411917 0.539683 -0.500000
v -3.431491 0.539683 -0.500000
v -2.451065 0.539683 -0.500000
v -1.470639 0.539683 -0.500000
v -0.490213 0.539683 -0.500000
v 0.490213 0.539683 -0.500000
v 1.470639 0.539683 -0.500000
v 2.451065 0.539683 -0.500000
v 3.431490 0.539683 -0.500000
v 4.411916 0.539683 -0.500000
v 5.392339 0.539683 -0.500000
v 6.372768 0.539683 -0.500000
v 7.353194 0.539683 -0.500000
v -7.353194 0.002317 -0.500000
v -6.372768 0.002317 -0.500000
v -5.392343 0.002317 -0.500000
v -4.411917 0.002317 -0.500000
v -3.431491 0.002317 -0.500000
v -2.451065 0.002317 -0.500000
v -1.470639 0.002317 -0.500000
v -0.490213 0.002317 -0.500000
v 0.490213 0.002317 -0.500000
v 1.470639 0.002317 -0.500000
v 2.451065 0.002317 -0.500000
v 3.431490 0.002317 -0.500000
v 4.411916 0.002317 -0.500000
v 5.392339 0.002317 -0.500000
v 6.372768 0.002317 -0.500000
v 7.353194 0.002317 -0.500000
vt 0.375000 0.000000
vt 0.391667 0.000000
vt 0.408333 0.000000
vt 0.425000 0.000000
vt 0.441667 0.000000
vt 0.458333 0.000000
vt 0.475000 0.000000
vt 0.491667 0.000000
vt 0.508333 0.000000
vt 0.525000 0.000000
vt 0.541667 0.000000
vt 0.558333 0.000000
vt 0.575000 0.000000
vt 0.591667 0.000000
vt 0.608333 0.000000
vt 0.625000 0.000000
vt 0.375000 0.016667
vt 0.391667 0.016667
vt 0.408333 0.016667
vt 0.425000 0.016667
vt 0.441667 0.016667
vt 0.458333 0.016667
vt 0.475000 0.016667
vt 0.491667 0.016667
vt 0.508333 0.016667
vt 0.525000 0.016667
vt 0.541667 0.016667
vt 0.558333 0.016667
vt 0.575000 0.016667
vt 0.591667 0.016667
vt 0.608333 0.016667
vt 0.625000 0.016667
vt 0.375000 0.033333
vt 0.391667 0.033333
vt 0.408333 0.033333
vt 0.425000 0.033333
vt 0.441667 0.033333
vt 0.458333 0.033333
vt 0.475000 0.033333
vt 0.491667 0.033333
vt 0.508333 0.033333
vt 0.525000 0.033333
vt 0.541667 0.033333
vt 0.558333 0.033333
vt 0.575000 0.033333
vt 0.591667 0.033333
vt 0.608333 0.033333
vt 0.625000 0.033333
vt 0.375000 0.050000
vt 0.391667 0.050000
vt 0.408333 0.050000
vt 0.425000 0.050000
vt 0.441667 0.050000
vt 0.458333 0.050000
vt 0.475000 0.050000
vt 0.491667 0.050000
vt 0.508333 0.050000
vt 0.525000 0.050000
vt 0.541667 0.050000
vt 0.558333 0.050000
vt 0.575000 0.050000
vt 0.591667 0.050000
vt 0.608333 0.050000
vt 0.625000 0.050000
vt 0.375000 0.066667
vt 0.391667 0.066667
vt 0.408333 0.066667
vt 0.425000 0.066667
vt 0.441667 0.066667
vt 0.458333 0.066667
vt 0.475000 0.066667
vt 0.491667 0.066667
vt 0.508333 0.066667
vt 0.525000 0.066667
vt 0.541667 0.066667
vt 0.558333 0.066667
vt 0.575000 0.066667
vt 0.591667 0.066667
vt 0.608333 0.066667
vt 0.625000 0.066667
vt 0.375000 0.083333
vt 0.391667 0.083333
vt 0.408333 0.083333
vt 0.425000 0.083333
vt 0.441667 0.083333
vt 0.458333 0.083333
vt 0.475000 0.083333
vt 0.491667 0.083333
vt 0.508333 0.083333
vt 0.525000 0.083333
vt 0.541667 0.083333
vt 0.558333 0.083333
vt 0.575000 0.083333
vt 0.591667 0.083333
vt 0.608333 0.083333
vt 0.625000 0.083333
vt 0.375000 0.100000
vt 0.391667 0.100000
vt 0.408333 0.100000
vt 0.425000 0.100000
vt 0.441667 0.100000
vt 0.458333 0.100000
vt 0.475000 0.100000
vt 0.491667 0.100000
vt 0.508333 0.100000
vt 0.525000 0.100000
vt 0.541667 0.100000
vt 0.558333 0.100000
vt 0.575000 0.100000
vt 0.591667 0.100000
vt 0.608333 0.100000
vt 0.625000 0.100000
vt 0.375000 0.116667
vt 0.391667 0.116667
vt 0.408333 0.116667
vt 0.425000 0.116667
vt 0.441667 0.116667
vt 0.458333 0.116667
vt 0.475000 0.116667
vt 0.491667 0.116667
vt 0.508333 0.116667
vt 0.525000 0.116667
vt 0.541667 0.116667
vt 0.558333 0.116667
vt 0.575000 0.116667
vt 0.591667 0.116667
vt 0.608333 0.116667
vt 0.625000 0.116667
vt 0.375000 0.133333
vt 0.391667 0.133333
vt 0.408333 0.133333
vt 0.425000 0.133333
vt 0.441667 0.133333
vt 0.458333 0.133333
vt 0.475000 0.133333
vt 0.491667 0.133333
vt 0.508333 0.133333
vt 0.525000 0.133333
vt 0.541667 0.133333
vt 0.558333 0.133333
vt 0.575000 0.133333
vt 0.591667 0.133333
vt 0.608333 0.133333
vt 0.625000 0.133333
vt 0.375000 0.150000
vt 0.391667 0.150000
vt 0.408333 0.150000
vt 0.425000 0.150000
vt 0.441667 0.150000
vt 0.458333 0.150000
vt 0.475000 0.150000
vt 0.491667 0.150000
vt 0.508333 0.150000
vt 0.525000 0.150000
vt 0.541667 0.150000
vt 0.558333 0.150000
vt 0.575000 0.150000
vt 0.591667 0.150000
vt 0.608333 0.150000
vt 0.625000 0.150000
vt 0.375000 0.166667
vt 0.391667 0.166667
vt 0.408333 0.166667
vt 0.425000 0.166667
vt 0.441667 0.166667
vt 0.458333 0.166667
vt 0.475000 0.166667
vt 0.491667 0.166667
vt 0.508333 0.166667
vt 0.525000 0.166667
vt 0.541667 0.166667
vt 0.558333 0.166667
vt 0.575000 0.166667
vt 0.591667 0.166667
vt 0.608333 0.166667
vt 0.625000 0.166667
vt 0.375000 0.183333
vt 0.391667 0.183333
vt 0.408333 0.183333
vt 0.425000 0.183333
vt 0.441667 0.183333
vt 0.458333 0.183333
vt 0.475000 0.183333
vt 0.491667 0.183333
vt 0.508333 0.183333
vt 0.525000 0.183333
vt 0.541667 0.183333
vt 0.558333 0.183333
vt 0.575000 0.183333
vt 0.591667 0.183333
vt 0.608333 0.183333
vt 0.625000 0.183333
vt 0.375000 0.200000
vt 0.391667 0.200000
vt 0.408333 0.200000
vt 0.425000 0.200000
vt 0.441667 0.200000
vt 0.458333 0.200000
vt 0.475000 0.200000
vt 0.491667 0.200000
vt 0.508333 0.200000
vt 0.525000 0.200000
vt 0.541667 0.200000
vt 0.558333 0.200000
vt 0.575000 0.200000
vt 0.591667 0.200000
vt 0.608333 0.200000
vt 0.625000 0.200000
vt 0.375000 0.216667
vt 0.391667 0.216667
vt 0.408333 0.216667
vt 0.425000 0.216667
vt 0.441667 0.216667
vt 0.458333 0.216667
vt 0.475000 0.216667
vt 0.491667 0.216667
vt 0.508333 0.216667
vt 0.525000 0.216667
vt 0.541667 0.216667
vt 0.558333 0.216667
vt 0.575000 0.216667
vt 0.591667 0.216667
vt 0.608333 0.216667
vt 0.625000 0.216667
vt 0.375000 0.233333
vt 0.391667 0.233333
vt 0.408333 0.233333
vt 0.425000 0.233333
vt 0.441667 0.233333
vt 0.458333 0.233333
vt 0.475000 0.233333
vt 0.491667 0.233333
vt 0.508333 0.233333
vt 0.525000 0.233333
vt 0.541667 0.233333
vt 0.558333 0.233333
vt 0.575000 0.233333
vt 0.591667 0.233333
vt 0.608333 0.233333
vt 0.625000 0.233333
vt 0.375000 0.250000
vt 0.391667 0.250000
vt 0.408333 0.250000
vt 0.425000 0.250000
vt 0.441667 0.250000
vt 0.458333 0.250000
vt 0.475000 0.250000
vt 0.491667 0.250000
vt 0.508333 0.250000
vt 0.525000 0.250000
vt 0.541667 0.250000
vt 0.558333 0.250000
vt 0.575000 0.250000
vt 0.591667 0.250000
vt 0.608333 0.250000
vt 0.625000 0.250000
vt 0.375000 0.500000
vt 0.391667 0.500000
vt 0.408333 0.500000
vt 0.425000 0.500000
vt 0.441667 0.500000
vt 0.458333 0.500000
vt 0.475000 0.500000
vt 0.491667 0.500000
vt 0.508333 0.500000
vt 0.525000 0.500000
vt 0.541667 0.500000
vt 0.558333 0.500000
vt 0.575000 0.500000
vt 0.591667 0.500000
vt 0.608333 0.500000
vt 0.625000 0.500000
vt 0.375000 0.516667
vt 0.391667 0.516667
vt 0.408333 0.516667
vt 0.425000 0.516667
vt 0.441667 0.516667
vt 0.458333 0.516667
vt 0.475000 0.516667
vt 0.491667 0.516667
vt 0.508333 0.516667
vt 0.525000 0.516667
vt 0.541667 0.516667
vt 0.558333 0.516667
vt 0.575000 0.516667
vt 0.591667 0.516667
vt 0.608333 0.516667
vt 0.625000 0.516667
vt 0.375000 0.533333
vt 0.391667 0.533333
vt 0.408333 0.533333
vt 0.425000 0.533333
vt 0.441667 0.533333
vt 0.458333 0.533333
vt 0.475000 0.533333
vt 0.491667 0.533333
vt 0.508333 0.533333
vt 0.525000 0.533333
vt 0.541667 0.533333
vt 0.558333 0.533333
vt 0.575000 0.533333
vt 0.591667 0.533333
vt 0.608333 0.533333
vt 0.625000 0.533333
vt 0.375000 0.550000
vt 0.391667 0.550000
vt 0.408333 0.550000
vt 0.425000 0.550000
vt 0.441667 0.550000
vt 0.458333 0.550000
vt 0.475000 0.550000
vt 0.491667 0.550000
vt 0.508333 0.550000
vt 0.525000 0.550000
vt 0.541667 0.550000
vt 0.558333 0.550000
vt 0.575000 0.550000
vt 0.591667 0.550000
vt 0.608333 0.550000
vt 0.625000 0.550000
vt 0.375000 0.566667
vt 0.391667 0.566667
vt 0.408333 0.566667
vt 0.425000 0.566667
vt 0.441667 0.566667
vt 0.458333 0.566667
vt 0.475000 0.566667
vt 0.491667 0.566667
vt 0.508333 0.566667
vt 0.525000 0.566667
vt 0.541667 0.566667
vt 0.558333 0.566667
vt 0.575000 0.566667
vt 0.591667 0.566667
vt 0.608333 0.566667
vt 0.625000 0.566667
vt 0.375000 0.583333
vt 0.391667 0.583333
vt 0.408333 0.583333
vt 0.425000 0.583333
vt 0.441667 0.583333
vt 0.458333 0.583333
vt 0.475000 0.583333
vt 0.491667 0.583333
vt 0.508333 0.583333
vt 0.525000 0.583333
vt 0.541667 0.583333
vt 0.558333 0.583333
vt 0.575000 0.583333
vt 0.591667 0.583333
vt 0.608333 0.583333
vt 0.625000 0.583333
vt 0.375000 0.600000
vt 0.391667 0.600000
vt 0.408333 0.600000
vt 0.425000 0.600000
vt 0.441667 0.600000
vt 0.458333 0.600000
vt 0.475000 0.600000
vt 0.491667 0.600000
vt 0.508333 0.600000
vt 0.525000 0.600000
vt 0.541667 0.600000
vt 0.558333 0.600000
vt 0.575000 0.600000
vt 0.591667 0.600000
vt 0.608333 0.600000
vt 0.625000 0.600000
vt 0.375000 0.616667
vt 0.391667 0.616667
vt 0.408333 0.616667
vt 0.425000 0.616667
vt 0.441667 0.616667
vt 0.458333 0.616667
vt 0.475000 0.616667
vt 0.491667 0.616667
vt 0.508333 0.616667
vt 0.525000 0.616667
vt 0.541667 0.616667
vt 0.558333 0.616667
vt 0.575000 0.616667
vt 0.591667 0.616667
vt 0.608333 0.616667
vt 0.625000 0.616667
vt 0.375000 0.633333
vt 0.391667 0.633333
vt 0.408333 0.633333
vt 0.425000 0.633333
vt 0.441667 0.633333
vt 0.458333 0.633333
vt 0.475000 0.633333
vt 0.491667 0.633333
vt 0.508333 0.633333
vt 0.525000 0.633333
vt 0.541667 0.633333
vt 0.558333 0.633333
vt 0.575000 0.633333
vt 0.591667 0.633333
vt 0.608333 0.633333
vt 0.625000 0.633333
vt 0.375000 0.650000
vt 0.391667 0.650000
vt 0.408333 0.650000
vt 0.425000 0.650000
vt 0.441667 0.650000
vt 0.458333 0.650000
vt 0.475000 0.650000
vt 0.491667 0.650000
vt 0.508333 0.650000
vt 0.525000 0.650000
vt 0.541667 0.650000
vt 0.558333 0.650000
vt 0.575000 0.650000
vt 0.591667 0.650000
vt 0.608333 0.650000
vt 0.625000 0.650000
vt 0.375000 0.666667
vt 0.391667 0.666667
vt 0.408333 0.666667
vt 0.425000 0.666667
vt 0.441667 0.666667
vt 0.458333 0.666667
vt 0.475000 0.666667
vt 0.491667 0.666667
vt 0.508333 0.666667
vt 0.525000 0.666667
vt 0.541667 0.666667
vt 0.558333 0.666667
vt 0.575000 0.666667
vt 0.591667 0.666667
vt 0.608333 0.666667
vt 0.625000 0.666667
vt 0.375000 0.683333
vt 0.391667 0.683333
vt 0.408333 0.683333
vt 0.425000 0.683333
vt 0.441667 0.683333
vt 0.458333 0.683333
vt 0.475000 0.683333
vt 0.491667 0.683333
vt 0.508333 0.683333
vt 0.525000 0.683333
vt 0.541667 0.683333
vt 0.558333 0.683333
vt 0.575000 0.683333
vt 0.591667 0.683333
vt 0.608333 0.683333
vt 0.625000 0.683333
vt 0.375000 0.700000
vt 0.391667 0.700000
vt 0.408333 0.700000
vt 0.425000 0.700000
vt 0.441667 0.700000
vt 0.458333 0.700000
vt 0.475000 0.700000
vt 0.491667 0.700000
vt 0.508333 0.700000
vt 0.525000 0.700000
vt 0.541667 0.700000
vt 0.558333 0.700000
vt 0.575000 0.700000
vt 0.591667 0.700000
vt 0.608333 0.700000
vt 0.625000 0.700000
vt 0.375000 0.716666
vt 0.391667 0.716666
vt 0.408333 0.716666
vt 0.425000 0.716666
vt 0.441667 0.716666
vt 0.458333 0.716666
vt 0.475000 0.716666
vt 0.491667 0.716666
vt 0.508333 0.716666
vt 0.525000 0.716666
vt 0.541667 0.716666
vt 0.558333 0.716666
vt 0.575000 0.716666
vt 0.591667 0.716666
vt 0.608333 0.716666
vt 0.625000 0.716666
vt 0.375000 0.733333
vt 0.391667 0.733333
vt 0.408333 0.733333
vt 0.425000 0.733333
vt 0.441667 0.733333
vt 0.458333 0.733333
vt 0.475000 0.733333
vt 0.491667 0.733333
vt 0.508333 0.733333
vt 0.525000 0.733333
vt 0.541667 0.733333
vt 0.558333 0.733333
vt 0.575000 0.733333
vt 0.591667 0.733333
vt 0.608333 0.733333
vt 0.625000 0.733333
vt 0.375000 0.750000
vt 0.391667 0.750000
vt 0.408333 0.750000
vt 0.425000 0.750000
vt 0.441667 0.750000
vt 0.458333 0.750000
vt 0.475000 0.750000
vt 0.491667 0.750000
vt 0.508333 0.750000
vt 0.525000 0.750000
vt 0.541667 0.750000
vt 0.558333 0.750000
vt 0.575000 0.750000
vt 0.591667 0.750000
vt 0.608333 0.750000
vt 0.625000 0.750000
vt 0.375000 1.000000
vt 0.391667 1.000000
vt 0.408333 1.000000
vt 0.425000 1.000000
vt 0.441667 1.000000
vt 0.458333 1.000000
vt 0.475000 1.000000
vt 0.491667 1.000000
vt 0.508333 1.000000
vt 0.525000 1.000000
vt 0.541667 1.000000
vt 0.558333 1.000000
vt 0.575000 1.000000
vt 0.591667 1.000000
vt 0.608333 1.000000
vt 0.625000 1.000000
vt 0.875000 0.000000
vt 0.875000 0.016667
vt 0.875000 0.033333
vt 0.875000 0.050000
vt 0.875000 0.066667
vt 0.875000 0.083333
vt 0.875000 0.100000
vt 0.875000 0.116667
vt 0.875000 0.133333
vt 0.875000 0.150000
vt 0.875000 0.166667
vt 0.875000 0.183333
vt 0.875000 0.200000
vt 0.875000 0.216667
vt 0.875000 0.233333
vt 0.875000 0.250000
vt 0.125000 0.000000
vt 0.125000 0.016667
vt 0.125000 0.033333
vt 0.125000 0.050000
vt 0.125000 0.066667
vt 0.125000 0.083333
vt 0.125000 0.100000
vt 0.125000 0.116667
vt 0.125000 0.133333
vt 0.125000 0.150000
vt 0.125000 0.166667
vt 0.125000 0.183333
vt 0.125000 0.200000
vt 0.125000 0.216667
vt 0.125000 0.233333
vt 0.125000 0.250000
vn 0.000000 0.000000 1.000000
vn 0.000000 0.000000 1.000000
vn 0.000000 0.000000 1.000000
vn 0.000000 0.000000 1.000000
vn 0.000000 0.000000 1.000000
vn 0.000000 0.000000 1.000000
vn 0.000000 0.000000 1.000000
vn 0.000000 0.000000 1.000000
vn 0.000000 0.000000 1.000000
vn 0.000000 0.000000 1.000000
vn 0.000000 0.000000 1.000000
vn 0.000000 0.000000 1.000000
vn 0.000000 0.000000 1.000000
vn 0.000000 0.000000 1.000000
vn 0.000000 0.000000 1.000000
vn 0.000000 0.000000 1.000000
vn 0.000000 0.000000 1.000000
vn 0.000000 0.000000 1.000000
vn 0.000000 0.000000 1.000000
vn 0.000000 0.000000 1.000000
vn 0.000000 0.000000 1.000000
vn 0.000000 0.000000 1.000000
vn 0.000000 0.000000 1.000000
vn 0.000000 0.000000 1.000000
vn 0.000000 0.000000 1.000000
vn 0.000000 0.000000 1.000000
vn 0.000000 0.000000 1.000000
vn 0.000000 0.000000 1.000000
vn 0.000000 0.000000 1.000000
vn 0.000000 0.000000 1.000000
vn 0.000000 0.000000 1.000000
vn 0.000000 0.000000 1.000000
vn 0.000000 0.000000 1.000000
vn 0.000000 0.000000 1.000000
vn 0.000000 0.000000 1.000000
vn 0.000000 0.000000 1.000000
vn 0.000000 0.000000 1.000000
vn 0.000000 0.000000 1.000000
vn 0.000000 0.000000 1.000000
vn 0.000000 0.000000 1.000000
vn 0.000000 0.000000 1.000000
vn 0.000000 0.000000 1.000000
vn 0.000000 0.000000 1.000000
vn 0.000000 0.000000 1.000000
vn 0.000000 0.000000 1.000000
vn 0.000000 0.000000 1.000000
vn 0.000000 0.000000 1.000000
vn 0.000000 0.000000 1.000000
vn 0.000000 0.000000 1.000000
vn 0.000000 0.000000 1.000000
vn 0.000000 0.000000 1.000000
vn 0.000000 0.000000 1.000000
vn 0.000000 0.000000 1.000000
vn 0.000000 0.000000 1.000000
vn 0.000000 0.000000 1.000000
vn 0.000000 0.000000 1.000000
vn 0.000000 0.000000 1.000000
vn 0.000000 0.000000 1.000000
vn 0.000000 0.000000 1.000000
vn 0.000000 0.000000 1.000000
vn 0.000000 0.000000 1.000000
vn 0.000000 0.000000 1.000000
vn 0.000000 0.000000 1.000000
vn 0.000000 0.000000 1.000000
vn 0.000000 0.000000 1.000000
vn 0.000000 0.000000 1.000000
vn 0.000000 0.000000 1.000000
vn 0.000000 0.000000 1.000000
vn 0.000000 0.000000 1.000000
vn 0.000000 0.000000 1.000000
vn 0.000000 0.000000 1.000000
vn 0.000000 0.000000 1.000000
vn 0.000000 0.000000 1.000000
vn 0.000000 0.000000 1.000000
vn 0.000000 0.000000 1.000000
vn 0.000000 0.000000 1.000000
vn 0.000000 0.000000 1.000000
vn 0.000000 0.000000 1.000000
vn 0.000000 0.000000 1.000000
vn 0.000000 0.000000 1.000000
vn 0.000000 0.000000 1.000000
vn 0.000000 0.000000 1.000000
vn 0.000000 0.000000 1.000000
vn 0.000000 0.000000 1.000000
vn 0.000000 0.000000 1.000000
vn 0.000000 0.000000 1.000000
vn 0.000000 0.000000 1.000000
vn 0.000000 0.000000 1.000000
vn 0.000000 0.000000 1.000000
vn 0.000000 0.000000 1.000000
vn 0.000000 0.000000 1.000000
vn 0.000000 0.000000 1.000000
vn 0.000000 0.000000 1.000000
vn 0.000000 0.000000 1.000000
vn 0.000000 0.000000 1.000000
vn 0.000000 0.000000 1.000000
vn 0.000000 0.000000 1.000000
vn 0.000000 0.000000 1.000000
vn 0.000000 0.000000 1.000000
vn 0.000000 0.000000 1.000000
vn 0.000000 0.000000 1.000000
vn 0.000000 0.000000 1.000000
vn 0.000000 0.000000 1.000000
vn 0.000000 0.000000 1.000000
vn 0.000000 0.000000 1.000000
vn 0.000000 0.000000 1.000000
vn 0.000000 0.000000 1.000000
vn 0.000000 0.000000 1.000000
vn 0.000000 0.000000 1.000000
vn 0.000000 0.000000 1.000000
vn 0.000000 0.000000 1.000000
vn 0.000000 0.000000 1.000000
vn 0.000000 0.000000 1.000000
vn 0.000000 0.000000 1.000000
vn 0.000000 0.000000 1.000000
vn 0.000000 0.000000 1.000000
vn 0.000000 0.000000 1.000000
vn 0.000000 0.000000 1.000000
vn 0.000000 0.000000 1.000000
vn 0.000000 0.000000 1.000000
vn 0.000000 0.000000 1.000000
vn 0.000000 0.000000 1.000000
vn 0.000000 0.000000 1.000000
vn 0.000000 0.000000 1.000000
vn 0.000000 0.000000 1.000000
vn 0.000000 0.000000 1.000000
vn 0.000000 0.000000 1.000000
vn 0.000000 0.000000 1.000000
vn 0.000000 0.000000 1.000000
vn 0.000000 0.000000 1.000000
vn 0.000000 0.000000 1.000000
vn 0.000000 0.000000 1.000000
vn 0.000000 0.000000 1.000000
vn 0.000000 0.000000 1.000000
vn 0.000000 0.000000 1.000000
vn 0.000000 0.000000 1.000000
vn 0.000000 0.000000 1.000000
vn 0.000000 0.000000 1.000000
vn 0.000000 0.000000 1.000000
vn 0.000000 0.000000 1.000000
vn 0.000000 0.000000 1.000000
vn 0.000000 0.000000 1.000000
vn 0.000000 0.000000 1.000000
vn 0.000000 0.000000 1.000000
vn 0.000000 0.000000 1.000000
vn 0.000000 0.000000 1.000000
vn 0.000000 0.000000 1.000000
vn 0.000000 0.000000 1.000000
vn 0.000000 0.000000 1.000000
vn 0.000000 0.000000 1.000000
vn 0.000000 0.000000 1.000000
vn 0.000000 0.000000 1.000000
vn 0.000000 0.000000 1.000000
vn 0.000000 0.000000 1.000000
vn 0.000000 0.000000 1.000000
vn 0.000000 0.000000 1.000000
vn 0.000000 0.000000 1.000000
vn 0.000000 0.000000 1.000000
vn 0.000000 0.000000 1.000000
vn 0.000000 0.000000 1.000000
vn 0.000000 0.000000 1.000000
vn 0.000000 0.000000 1.000000
vn 0.000000 0.000000 1.000000
vn 0.000000 0.000000 1.000000
vn 0.000000 0.000000 1.000000
vn 0.000000 0.000000 1.000000
vn 0.000000 0.000000 1.000000
vn 0.000000 0.000000 1.000000
vn 0.000000 0.000000 1.000000
vn 0.000000 0.000000 1.000000
vn 0.000000 0.000000 1.000000
vn 0.000000 0.000000 1.000000
vn 0.000000 0.000000 1.000000
vn 0.000000 0.000000 1.000000
vn 0.000000 0.000000 1.000000
vn 0.000000 0.000000 1.000000
vn 0.000000 0.000000 1.000000
vn 0.000000 0.000000 1.000000
vn 0.000000 0.000000 1.000000
vn 0.000000 0.000000 1.000000
vn 0.000000 0.000000 1.000000
vn 0.000000 0.000000 1.000000
vn 0.000000 0.000000 1.000000
vn 0.000000 0.000000 1.000000
vn 0.000000 0.000000 1.000000
vn 0.000000 0.000000 1.000000
vn 0.000000 0.000000 1.000000
vn 0.000000 0.000000 1.000000
vn 0.000000 0.000000 1.000000
vn 0.000000 0.000000 1.000000
vn 0.000000 0.000000 1.000000
vn 0.000000 0.000000 1.000000
vn 0.000000 0.000000 1.000000
vn 0.000000 0.000000 1.000000
vn 0.000000 0.000000 1.000000
vn 0.000000 0.000000 1.000000
vn 0.000000 0.000000 1.000000
vn 0.000000 0.000000 1.000000
vn 0.000000 0.000000 1.000000
vn 0.000000 0.000000 1.000000
vn 0.000000 0.000000 1.000000
vn 0.000000 0.000000 1.000000
vn 0.000000 0.000000 1.000000
vn 0.000000 0.000000 1.000000
vn 0.000000 0.000000 1.000000
vn 0.000000 0.000000 1.000000
vn 0.000000 0.000000 1.000000
vn 0.000000 0.000000 1.000000
vn 0.000000 0.000000 1.000000
vn 0.000000 0.000000 1.000000
vn 0.000000 0.000000 1.000000
vn 0.000000 0.000000 1.000000
vn 0.000000 0.000000 1.000000
vn 0.000000 0.000000 1.000000
vn 0.000000 0.000000 1.000000
vn 0.000000 0.000000 1.000000
vn 0.000000 0.000000 1.000000
vn 0.000000 0.000000 1.000000
vn 0.000000 0.000000 1.000000
vn 0.000000 0.000000 1.000000
vn 0.000000 0.000000 1.000000
vn 0.000000 0.000000 1.000000
vn 0.000000 0.000000 1.000000
vn 0.000000 0.000000 1.000000
vn 0.000000 0.000000 1.000000
vn 0.000000 0.000000 1.000000
vn 0.000000 0.000000 1.000000
vn 0.000000 0.000000 1.000000
vn 0.000000 0.000000 1.000000
vn 0.000000 0.000000 1.000000
vn 0.000000 0.000000 1.000000
vn 0.000000 0.000000 1.000000
vn 0.000000 0.000000 1.000000
vn 0.000000 0.000000 1.000000
vn 0.000000 0.000000 1.000000
vn 0.000000 0.000000 1.000000
vn 0.000000 0.000000 1.000000
vn 0.000000 0.000000 1.000000
vn 0.000000 0.000000 1.000000
vn 0.000000 0.000000 1.000000
vn 0.000000 0.000000 1.000000
vn 0.000000 0.000000 1.000000
vn 0.000000 0.000000 1.000000
vn 0.000000 0.000000 1.000000
vn 0.000000 0.000000 1.000000
vn 0.000000 0.000000 1.000000
vn 0.000000 0.000000 1.000000
vn 0.000000 0.000000 1.000000
vn 0.000000 0.000000 1.000000
vn 0.000000 0.000000 1.000000
vn 0.000000 0.000000 1.000000
vn 0.000000 0.000000 1.000000
vn 0.000000 0.000000 1.000000
vn 0.000000 0.000000 1.000000
vn 0.000000 0.000000 1.000000
vn 0.000000 0.000000 1.000000
vn 0.000000 1.000000 0.000000
vn 0.000000 1.000000 0.000000
vn 0.000000 1.000000 0.000000
vn 0.000000 1.000000 0.000000
vn 0.000000 1.000000 0.000000
vn 0.000000 1.000000 0.000000
vn 0.000000 1.000000 0.000000
vn 0.000000 1.000000 0.000000
vn 0.000000 1.000000 0.000000
vn 0.000000 1.000000 0.000000
vn 0.000000 1.000000 0.000000
vn 0.000000 1.000000 0.000000
vn 0.000000 1.000000 0.000000
vn 0.000000 1.000000 0.000000
vn 0.000000 1.000000 0.000000
vn 0.000000 1.000000 0.000000
vn 0.000000 1.000000 0.000000
vn 0.000000 1.000000 0.000000
vn 0.000000 1.000000 0.000000
vn 0.000000 1.000000 0.000000
vn 0.000000 1.000000 0.000000
vn 0.000000 1.000000 0.000000
vn 0.000000 1.000000 0.000000
vn 0.000000 1.000000 0.000000
vn 0.000000 1.000000 0.000000
vn 0.000000 1.000000 0.000000
vn 0.000000 1.000000 0.000000
vn 0.000000 1.000000 0.000000
vn 0.000000 1.000000 0.000000
vn 0.000000 1.000000 0.000000
vn 0.000000 1.000000 0.000000
vn 0.000000 1.000000 0.000000
vn 0.000000 0.000000 -1.000000
vn 0.000000 0.000000 -1.000000
vn 0.000000 0.000000 -1.000000
vn 0.000000 0.000000 -1.000000
vn 0.000000 0.000000 -1.000000
vn 0.000000 0.000000 -1.000000
vn 0.000000 0.000000 -1.000000
vn 0.000000 0.000000 -1.000000
vn 0.000000 0.000000 -1.000000
vn 0.000000 0.000000 -1.000000
vn 0.000000 0.000000 -1.000000
vn 0.000000 0.000000 -1.000000
vn 0.000000 0.000000 -1.000000
vn 0.000000 0.000000 -1.000000
vn 0.000000 0.000000 -1.000000
vn 0.000000 0.000000 -1.000000
vn 0.000000 0.000000 -1.000000
vn 0.000000 0.000000 -1.000000
vn 0.000000 0.000000 -1.000000
vn 0.000000 0.000000 -1.000000
vn 0.000000 0.000000 -1.000000
vn 0.000000 0.000000 -1.000000
vn 0.000000 0.000000 -1.000000
vn 0.000000 0.000000 -1.000000
vn 0.000000 0.000000 -1.000000
vn 0.000000 0.000000 -1.000000
vn 0.000000 0.000000 -1.000000
vn 0.000000 0.000000 -1.000000
vn 0.000000 0.000000 -1.000000
vn 0.000000 0.000000 -1.000000
vn 0.000000 0.000000 -1.000000
vn 0.000000 0.000000 -1.000000
vn 0.000000 0.000000 -1.000000
vn 0.000000 0.000000 -1.000000
vn 0.000000 0.000000 -1.000000
vn 0.000000 0.000000 -1.000000
vn 0.000000 0.000000 -1.000000
vn 0.000000 0.000000 -1.000000
vn 0.000000 0.000000 -1.000000
vn 0.000000 0.000000 -1.000000
vn 0.000000 0.000000 -1.000000
vn 0.000000 0.000000 -1.000000
vn 0.000000 0.000000 -1.000000
vn 0.000000 0.000000 -1.000000
vn 0.000000 0.000000 -1.000000
vn 0.000000 0.000000 -1.000000
vn 0.000000 0.000000 -1.000000
vn 0.000000 0.000000 -1.000000
vn 0.000000 0.000000 -1.000000
vn 0.000000 0.000000 -1.000000
vn 0.000000 0.000000 -1.000000
vn 0.000000 0.000000 -1.000000
vn 0.000000 0.000000 -1.000000
vn 0.000000 0.000000 -1.000000
vn 0.000000 0.000000 -1.000000
vn 0.000000 0.000000 -1.000000
vn 0.000000 0.000000 -1.000000
vn 0.000000 0.000000 -1.000000
vn 0.000000 0.000000 -1.000000
vn 0.000000 0.000000 -1.000000
vn 0.000000 0.000000 -1.000000
vn 0.000000 0.000000 -1.000000
vn 0.000000 0.000000 -1.000000
vn 0.000000 0.000000 -1.000000
vn 0.000000 0.000000 -1.000000
vn 0.000000 0.000000 -1.000000
vn 0.000000 0.000000 -1.000000
vn 0.000000 0.000000 -1.000000
vn 0.000000 0.000000 -1.000000
vn 0.000000 0.000000 -1.000000
vn 0.000000 0.000000 -1.000000
vn 0.000000 0.000000 -1.000000
vn 0.000000 0.000000 -1.000000
vn 0.000000 0.000000 -1.000000
vn 0.000000 0.000000 -1.000000
vn 0.000000 0.000000 -1.000000
vn 0.000000 0.000000 -1.000000
vn 0.000000 0.000000 -1.000000
vn 0.000000 0.000000 -1.000000
vn 0.000000 0.000000 -1.000000
vn 0.000000 0.000000 -1.000000
vn 0.000000 0.000000 -1.000000
vn 0.000000 0.000000 -1.000000
vn 0.000000 0.000000 -1.000000
vn 0.000000 0.000000 -1.000000
vn 0.000000 0.000000 -1.000000
vn 0.000000 0.000000 -1.000000
vn 0.000000 0.000000 -1.000000
vn 0.000000 0.000000 -1.000000
vn 0.000000 0.000000 -1.000000
vn 0.000000 0.000000 -1.000000
vn 0.000000 0.000000 -1.000000
vn 0.000000 0.000000 -1.000000
vn 0.000000 0.000000 -1.000000
vn 0.000000 0.000000 -1.000000
vn 0.000000 0.000000 -1.000000
vn 0.000000 0.000000 -1.000000
vn 0.000000 0.000000 -1.000000
vn 0.000000 0.000000 -1.000000
vn 0.000000 0.000000 -1.000000
vn 0.000000 0.000000 -1.000000
vn 0.000000 0.000000 -1.000000
vn 0.000000 0.000000 -1.000000
vn 0.000000 0.000000 -1.000000
vn 0.000000 0.000000 -1.000000
vn 0.000000 0.000000 -1.000000
vn 0.000000 0.000000 -1.000000
vn 0.000000 0.000000 -1.000000
vn 0.000000 0.000000 -1.000000
vn 0.000000 0.000000 -1.000000
vn 0.000000 0.000000 -1.000000
vn 0.000000 0.000000 -1.000000
vn 0.000000 0.000000 -1.000000
vn 0.000000 0.000000 -1.000000
vn 0.000000 0.000000 -1.000000
vn 0.000000 0.000000 -1.000000
vn 0.000000 0.000000 -1.000000
vn 0.000000 0.000000 -1.000000
vn 0.000000 0.000000 -1.000000
vn 0.000000 0.000000 -1.000000
vn 0.000000 0.000000 -1.000000
vn 0.000000 0.000000 -1.000000
vn 0.000000 0.000000 -1.000000
vn 0.000000 0.000000 -1.000000
vn 0.000000 0.000000 -1.000000
vn 0.000000 0.000000 -1.000000
vn 0.000000 0.000000 -1.000000
vn 0.000000 0.000000 -1.000000
vn 0.000000 0.000000 -1.000000
vn 0.000000 0.000000 -1.000000
vn 0.000000 0.000000 -1.000000
vn 0.000000 0.000000 -1.000000
vn 0.000000 0.000000 -1.000000
vn 0.000000 0.000000 -1.000000
vn 0.000000 0.000000 -1.000000
vn 0.000000 0.000000 -1.000000
vn 0.000000 0.000000 -1.000000
vn 0.000000 0.000000 -1.000000
vn 0.000000 0.000000 -1.000000
vn 0.000000 0.000000 -1.000000
vn 0.000000 0.000000 -1.000000
vn 0.000000 0.000000 -1.000000
vn 0.000000 0.000000 -1.000000
vn 0.000000 0.000000 -1.000000
vn 0.000000 0.000000 -1.000000
vn 0.000000 0.000000 -1.000000
vn 0.000000 0.000000 -1.000000
vn 0.000000 0.000000 -1.000000
vn 0.000000 0.000000 -1.000000
vn 0.000000 0.000000 -1.000000
vn 0.000000 0.000000 -1.000000
vn 0.000000 0.000000 -1.000000
vn 0.000000 0.000000 -1.000000
vn 0.000000 0.000000 -1.000000
vn 0.000000 0.000000 -1.000000
vn 0.000000 0.000000 -1.000000
vn 0.000000 0.000000 -1.000000
vn 0.000000 0.000000 -1.000000
vn 0.000000 0.000000 -1.000000
vn 0.000000 0.000000 -1.000000
vn 0.000000 0.000000 -1.000000
vn 0.000000 0.000000 -1.000000
vn 0.000000 0.000000 -1.000000
vn 0.000000 0.000000 -1.000000
vn 0.000000 0.000000 -1.000000
vn 0.000000 0.000000 -1.000000
vn 0.000000 0.000000 -1.000000
vn 0.000000 0.000000 -1.000000
vn 0.000000 0.000000 -1.000000
vn 0.000000 0.000000 -1.000000
vn 0.000000 0.000000 -1.000000
vn 0.000000 0.000000 -1.000000
vn 0.000000 0.000000 -1.000000
vn 0.000000 0.000000 -1.000000
vn 0.000000 0.000000 -1.000000
vn 0.000000 0.000000 -1.000000
vn 0.000000 0.000000 -1.000000
vn 0.000000 0.000000 -1.000000
vn 0.000000 0.000000 -1.000000
vn 0.000000 0.000000 -1.000000
vn 0.000000 0.000000 -1.000000
vn 0.000000 0.000000 -1.000000
vn 0.000000 0.000000 -1.000000
vn 0.000000 0.000000 -1.000000
vn 0.000000 0.000000 -1.000000
vn 0.000000 0.000000 -1.000000
vn 0.000000 0.000000 -1.000000
vn 0.000000 0.000000 -1.000000
vn 0.000000 0.000000 -1.000000
vn 0.000000 0.000000 -1.000000
vn 0.000000 0.000000 -1.000000
vn 0.000000 0.000000 -1.000000
vn 0.000000 0.000000 -1.000000
vn 0.000000 0.000000 -1.000000
vn 0.000000 0.000000 -1.000000
vn 0.000000 0.000000 -1.000000
vn 0.000000 0.000000 -1.000000
vn 0.000000 0.000000 -1.000000
vn 0.000000 0.000000 -1.000000
vn 0.000000 0.000000 -1.000000
vn 0.000000 0.000000 -1.000000
vn 0.000000 0.000000 -1.000000
vn 0.000000 0.000000 -1.000000
vn 0.000000 0.000000 -1.000000
vn 0.000000 0.000000 -1.000000
vn 0.000000 0.000000 -1.000000
vn 0.000000 0.000000 -1.000000
vn 0.000000 0.000000 -1.000000
vn 0.000000 0.000000 -1.000000
vn 0.000000 0.000000 -1.000000
vn 0.000000 0.000000 -1.000000
vn 0.000000 0.000000 -1.000000
vn 0.000000 0.000000 -1.000000
vn 0.000000 0.000000 -1.000000
vn 0.000000 0.000000 -1.000000
vn 0.000000 0.000000 -1.000000
vn 0.000000 0.000000 -1.000000
vn 0.000000 0.000000 -1.000000
vn 0.000000 0.000000 -1.000000
vn 0.000000 0.000000 -1.000000
vn 0.000000 0.000000 -1.000000
vn 0.000000 0.000000 -1.000000
vn 0.000000 0.000000 -1.000000
vn 0.000000 0.000000 -1.000000
vn 0.000000 0.000000 -1.000000
vn 0.000000 0.000000 -1.000000
vn 0.000000 0.000000 -1.000000
vn 0.000000 0.000000 -1.000000
vn 0.000000 0.000000 -1.000000
vn 0.000000 0.000000 -1.000000
vn 0.000000 0.000000 -1.000000
vn 0.000000 0.000000 -1.000000
vn 0.000000 0.000000 -1.000000
vn 0.000000 0.000000 -1.000000
vn 0.000000 0.000000 -1.000000
vn 0.000000 0.000000 -1.000000
vn 0.000000 0.000000 -1.000000
vn 0.000000 0.000000 -1.000000
vn 0.000000 0.000000 -1.000000
vn 0.000000 0.000000 -1.000000
vn 0.000000 0.000000 -1.000000
vn 0.000000 0.000000 -1.000000
vn 0.000000 0.000000 -1.000000
vn 0.000000 0.000000 -1.000000
vn 0.000000 0.000000 -1.000000
vn 0.000000 0.000000 -1.000000
vn 0.000000 0.000000 -1.000000
vn 0.000000 0.000000 -1.000000
vn 0.000000 0.000000 -1.000000
vn 0.000000 0.000000 -1.000000
vn 0.000000 0.000000 -1.000000
vn 0.000000 0.000000 -1.000000
vn 0.000000 0.000000 -1.000000
vn 0.000000 0.000000 -1.000000
vn 0.000000 0.000000 -1.000000
vn 0.000000 0.000000 -1.000000
vn 0.000000 -1.000000 0.000000
vn 0.000000 -1.000000 0.000000
vn 0.000000 -1.000000 0.000000
vn 0.000000 -1.000000 0.000000
vn 0.000000 -1.000000 0.000000
vn 0.000000 -1.000000 0.000000
vn 0.000000 -1.000000 0.000000
vn 0.000000 -1.000000 0.000000
vn 0.000000 -1.000000 0.000000
vn 0.000000 -1.000000 0.000000
vn 0.000000 -1.000000 0.000000
vn 0.000000 -1.000000 0.000000
vn 0.000000 -1.000000 0.000000
vn 0.000000 -1.000000 0.000000
vn 0.000000 -1.000000 0.000000
vn 0.000000 -1.000000 0.000000
vn 0.000000 -1.000000 0.000000
vn 0.000000 -1.000000 0.000000
vn 0.000000 -1.000000 0.000000
vn 0.000000 -1.000000 0.000000
vn 0.000000 -1.000000 0.000000
vn 0.000000 -1.000000 0.000000
vn 0.000000 -1.000000 0.000000
vn 0.000000 -1.000000 0.000000
vn 0.000000 -1.000000 0.000000
vn 0.000000 -1.000000 0.000000
vn 0.000000 -1.000000 0.000000
vn 0.000000 -1.000000 0.000000
vn 0.000000 -1.000000 0.000000
vn 0.000000 -1.000000 0.000000
vn 0.000000 -1.000000 0.000000
vn 0.000000 -1.000000 0.000000
vn 1.000000 0.000000 0.000000
vn 1.000000 0.000000 0.000000
vn 1.000000 0.000000 0.000000
vn 1.000000 0.000000 0.000000
vn 1.000000 0.000000 0.000000
vn 1.000000 0.000000 0.000000
vn 1.000000 0.000000 0.000000
vn 1.000000 0.000000 0.000000
vn 1.000000 0.000000 0.000000
vn 1.000000 0.000000 0.000000
vn 1.000000 0.000000 0.000000
vn 1.000000 0.000000 0.000000
vn 1.000000 0.000000 0.000000
vn 1.000000 0.000000 0.000000
vn 1.000000 0.000000 0.000000
vn 1.000000 0.000000 0.000000
vn 1.000000 0.000000 0.000000
vn 1.000000 0.000000 0.000000
vn 1.000000 0.000000 0.000000
vn 1.000000 0.000000 0.000000
vn 1.000000 0.000000 0.000000
vn 1.000000 0.000000 0.000000
vn 1.000000 0.000000 0.000000
vn 1.000000 0.000000 0.000000
vn 1.000000 0.000000 0.000000
vn 1.000000 0.000000 0.000000
vn 1.000000 0.000000 0.000000
vn 1.000000 0.000000 0.000000
vn 1.000000 0.000000 0.000000
vn 1.000000 0.000000 0.000000
vn 1.000000 0.000000 0.000000
vn 1.000000 0.000000 0.000000
vn -1.000000 0.000000 0.000000
vn -1.000000 0.000000 0.000000
vn -1.000000 0.000000 0.000000
vn -1.000000 0.000000 0.000000
vn -1.000000 0.000000 0.000000
vn -1.000000 0.000000 0.000000
vn -1.000000 0.000000 0.000000
vn -1.000000 0.000000 0.000000
vn -1.000000 0.000000 0.000000
vn -1.000000 0.000000 0.000000
vn -1.000000 0.000000 0.000000
vn -1.000000 0.000000 0.000000
vn -1.000000 0.000000 0.000000
vn -1.000000 0.000000 0.000000
vn -1.000000 0.000000 0.000000
vn -1.000000 0.000000 0.000000
vn -1.000000 0.000000 0.000000
vn -1.000000 0.000000 0.000000
vn -1.000000 0.000000 0.000000
vn -1.000000 0.000000 0.000000
vn -1.000000 0.000000 0.000000
vn -1.000000 0.000000 0.000000
vn -1.000000 0.000000 0.000000
vn -1.000000 0.000000 0.000000
vn -1.000000 0.000000 0.000000
vn -1.000000 0.000000 0.000000
vn -1.000000 0.000000 0.000000
vn -1.000000 0.000000 0.000000
vn -1.000000 0.000000 0.000000
vn -1.000000 0.000000 0.000000
vn -1.000000 0.000000 0.000000
vn -1.000000 0.000000 0.000000
s 1
g pCube1
usemtl initialShadingGroup
f 1/1/1 2/2/2 18/18/3 17/17/4
f 2/2/2 3/3/5 19/19/6 18/18/3
f 3/3/5 4/4/7 20/20/8 19/19/6
f 4/4/7 5/5/9 21/21/10 20/20/8
f 5/5/9 6/6/11 22/22/12 21/21/10
f 6/6/11 7/7/13 23/23/14 22/22/12
f 7/7/13 8/8/15 24/24/16 23/23/14
f 8/8/15 9/9/17 25/25/18 24/24/16
f 9/9/17 10/10/19 26/26/20 25/25/18
f 10/10/19 11/11/21 27/27/22 26/26/20
f 11/11/21 12/12/23 28/28/24 27/27/22
f 12/12/23 13/13/25 29/29/26 28/28/24
f 13/13/25 14/14/27 30/30/28 29/29/26
f 14/14/27 15/15/29 31/31/30 30/30/28
f 15/15/29 16/16/31 32/32/32 31/31/30
f 17/17/4 18/18/3 34/34/33 33/33/34
f 18/18/3 19/19/6 35/35/35 34/34/33
f 19/19/6 20/20/8 36/36/36 35/35/35
f 20/20/8 21/21/10 37/37/37 36/36/36
f 21/21/10 22/22/12 38/38/38 37/37/37
f 22/22/12 23/23/14 39/39/39 38/38/38
f 23/23/14 24/24/16 40/40/40 39/39/39
f 24/24/16 25/25/18 41/41/41 40/40/40
f 25/25/18 26/26/20 42/42/42 41/41/41
f 26/26/20 27/27/22 43/43/43 42/42/42
f 27/27/22 28/28/24 44/44/44 43/43/43
f 28/28/24 29/29/26 45/45/45 44/44/44
f 29/29/26 30/30/28 46/46/46 45/45/45
f 30/30/28 31/31/30 47/47/47 46/46/46
f 31/31/30 32/32/32 48/48/48 47/47/47
f 33/33/34 34/34/33 50/50/49 49/49/50
f 34/34/33 35/35/35 51/51/51 50/50/49
f 35/35/35 36/36/36 52/52/52 51/51/51
f 36/36/36 37/37/37 53/53/53 52/52/52
f 37/37/37 38/38/38 54/54/54 53/53/53
f 38/38/38 39/39/39 55/55/55 54/54/54
f 39/39/39 40/40/40 56/56/56 55/55/55
f 40/40/40 41/41/41 57/57/57 56/56/56
f 41/41/41 42/42/42 58/58/58 57/57/57
f 42/42/42 43/43/43 59/59/59 58/58/58
f 43/43/43 44/44/44 60/60/60 59/59/59
f 44/44/44 45/45/45 61/61/61 60/60/60
f 45/45/45 46/46/46 62/62/62 61/61/61
f 46/46/46 47/47/47 63/63/63 62/62/62
f 47/47/47 48/48/48 64/64/64 63/63/63
f 49/49/50 50/50/49 66/66/65 65/65/66
f 50/50/49 51/51/51 67/67/67 66/66/65
f 51/51/51 52/52/52 68/68/68 67/67/67
f 52/52/52 53/53/53 69/69/69 68/68/68
f 53/53/53 54/54/54 70/70/70 69/69/69
f 54/54/54 55/55/55 71/71/71 70/70/70
f 55/55/55 56/56/56 72/72/72 71/71/71
f 56/56/56 57/57/57 73/73/73 72/72/72
f 57/57/57 58/58/58 74/74/74 73/73/73
f 58/58/58 59/59/59 75/75/75 74/74/74
f 59/59/59 60/60/60 76/76/76 75/75/75
f 60/60/60 61/61/61 77/77/77 76/76/76
f 61/61/61 62/62/62 78/78/78 77/77/77
f 62/62/62 63/63/63 79/79/79 78/78/78
f 63/63/63 64/64/64 80/80/80 79/79/79
f 65/65/66 66/66/65 82/82/81 81/81/82
f 66/66/65 67/67/67 83/83/83 82/82/81
f 67/67/67 68/68/68 84/84/84 83/83/83
f 68/68/68 69/69/69 85/85/85 84/84/84
f 69/69/69 70/70/70 86/86/86 85/85/85
f 70/70/70 71/71/71 87/87/87 86/86/86
f 71/71/71 72/72/72 88/88/88 87/87/87
f 72/72/72 73/73/73 89/89/89 88/88/88
f 73/73/73 74/74/74 90/90/90 89/89/89
f 74/74/74 75/75/75 91/91/91 90/90/90
f 75/75/75 76/76/76 92/92/92 91/91/91
f 76/76/76 77/77/77 93/93/93 92/92/92
f 77/77/77 78/78/78 94/94/94 93/93/93
f 78/78/78 79/79/79 95/95/95 94/94/94
f 79/79/79 80/80/80 96/96/96 95/95/95
f 81/81/82 82/82/81 98/98/97 97/97/98
f 82/82/81 83/83/83 99/99/99 98/98/97
f 83/83/83 84/84/84 100/100/100 99/99/99
f 84/84/84 85/85/85 101/101/101 100/100/100
f 85/85/85 86/86/86 102/102/102 101/101/101
f 86/86/86 87/87/87 103/103/103 102/102/102
f 87/87/87 88/88/88 104/104/104 103/103/103
f 88/88/88 89/89/89 105/105/105 104/104/104
f 89/89/89 90/90/90 106/106/106 105/105/105
f 90/90/90 91/91/91 107/107/107 106/106/106
f 91/91/91 92/92/92 108/108/108 107/107/107
f 92/92/92 93/93/93 109/109/109 108/108/108
f 93/93/93 94/94/94 110/110/110 109/109/109
f 94/94/94 95/95/95 111/111/111 110/110/110
f 95/95/95 96/96/96 112/112/112 111/111/111
f 97/97/98 98/98/97 114/114/113 113/113/114
f 98/98/97 99/99/99 115/115/115 114/114/113
f 99/99/99 100/100/100 116/116/116 115/115/115
f 100/100/100 101/101/101 117/117/117 116/116/116
f 101/101/101 102/102/102 118/118/118 117/117/117
f 102/102/102 103/103/103 119/119/119 118/118/118
f 103/103/103 104/104/104 120/120/120 119/119/119
f 104/104/104 105/105/105 121/121/121 120/120/120
f 105/105/105 106/106/106 122/122/122 121/121/121
f 106/106/106 107/107/107 123/123/123 122/122/122
f 107/107/107 108/108/108 124/124/124 123/123/123
f 108/108/108 109/109/109 125/125/125 124/124/124
f 109/109/109 110/110/110 126/126/126 125/125/125
f 110/110/110 111/111/111 127/127/127 126/126/126
f 111/111/111 112/112/112 128/128/128 127/127/127
f 113/113/114 114/114/113 130/130/129 129/129/130
f 114/114/113 115/115/115 131/131/131 130/130/129
f 115/115/115 116/116/116 132/132/132 131/131/131
f 116/116/116 117/117/117 133/133/133 132/132/132
f 117/117/117 118/118/118 134/134/134 133/133/133
f 118/118/118 119/119/119 135/135/135 134/134/134
f 119/119/119 120/120/120 136/136/136 135/135/135
f 120/120/120 121/121/121 137/137/137 136/136/136
f 121/121/121 122/122/122 138/138/138 137/137/137
f 122/122/122 123/123/123 139/139/139 138/138/138
f 123/123/123 124/124/124 140/140/140 139/139/139
f 124/124/124 125/125/125 141/141/141 140/140/140
f 125/125/125 126/126/126 142/142/142 141/141/141
f 126/126/126 127/127/127 143/143/143 142/142/142
f 127/127/127 128/128/128 144/144/144 143/143/143
f 129/129/130 130/130/129 146/146/145 145/145/146
f 130/130/129 131/131/131 147/147/147 146/146/145
f 131/131/131 132/132/132 148/148/148 147/147/147
f 132/132/132 133/133/133 149/149/149 148/148/148
f 133/133/133 134/134/134 150/150/150 149/149/149
f 134/134/134 135/135/135 151/151/151 150/150/150
f 135/135/135 136/136/136 152/152/152 151/151/151
f 136/136/136 137/137/137 153/153/153 152/152/152
f 137/137/137 138/138/138 154/154/154 153/153/153
f 138/138/138 139/139/139 155/155/155 154/154/154
f 139/139/139 140/140/140 156/156/156 155/155/155
f 140/140/140 141/141/141 157/157/157 156/156/156
f 141/141/141 142/142/142 158/158/158 157/157/157
f 142/142/142 143/143/143 159/159/159 158/158/158
f 143/143/143 144/144/144 160/160/160 159/159/159
f 145/145/146 146/146/145 162/162/161 161/161/162
f 146/146/145 147/147/147 163/163/163 162/162/161
f 147/147/147 148/148/148 164/164/164 163/163/163
f 148/148/148 149/149/149 165/165/165 164/164/164
f 149/149/149 150/150/150 166/166/166 165/165/165
f 150/150/150 151/151/151 167/167/167 166/166/166
f 151/151/151 152/152/152 168/168/168 167/167/167
f 152/152/152 153/153/153 169/169/169 168/168/168
f 153/153/153 154/154/154 170/170/170 169/169/169
f 154/154/154 155/155/155 171/171/171 170/170/170
f 155/155/155 156/156/156 172/172/172 171/171/171
f 156/156/156 157/157/157 173/173/173 172/172/172
f 157/157/157 158/158/158 174/174/174 173/173/173
f 158/158/158 159/159/159 175/175/175 174/174/174
f 159/159/159 160/160/160 176/176/176 175/175/175
f 161/161/162 162/162/161 178/178/177 177/177/178
f 162/162/161 163/163/163 179/179/179 178/178/177
f 163/163/163 164/164/164 180/180/180 179/179/179
f 164/164/164 165/165/165 181/181/181 180/180/180
f 165/165/165 166/166/166 182/182/182 181/181/181
f 166/166/166 167/167/167 183/183/183 182/182/182
f 167/167/167 168/168/168 184/184/184 183/183/183
f 168/168/168 169/169/169 185/185/185 184/184/184
f 169/169/169 170/170/170 186/186/186 185/185/185
f 170/170/170 171/171/171 187/187/187 186/186/186
f 171/171/171 172/172/172 188/188/188 187/187/187
f 172/172/172 173/173/173 189/189/189 188/188/188
f 173/173/173 174/174/174 190/190/190 189/189/189
f 174/174/174 175/175/175 191/191/191 190/190/190
f 175/175/175 176/176/176 192/192/192 191/191/191
f 177/177/178 178/178/177 194/194/193 193/193/194
f 178/178/177 179/179/179 195/195/195 194/194/193
f 179/179/179 180/180/180 196/196/196 195/195/195
f 180/180/180 181/181/181 197/197/197 196/196/196
f 181/181/181 182/182/182 198/198/198 197/197/197
f 182/182/182 183/183/183 199/199/199 198/198/198
f 183/183/183 184/184/184 200/200/200 199/199/199
f 184/184/184 185/185/185 201/201/201 200/200/200
f 185/185/185 186/186/186 202/202/202 201/201/201
f 186/186/186 187/187/187 203/203/203 202/202/202
f 187/187/187 188/188/188 204/204/204 203/203/203
f 188/188/188 189/189/189 205/205/205 204/204/204
f 189/189/189 190/190/190 206/206/206 205/205/205
f 190/190/190 191/191/191 207/207/207 206/206/206
f 191/191/191 192/192/192 208/208/208 207/207/207
f 193/193/194 194/194/193 210/210/209 209/209/210
f 194/194/193 195/195/195 211/211/211 210/210/209
f 195/195/195 196/196/196 212/212/212 211/211/211
f 196/196/196 197/197/197 213/213/213 212/212/212
f 197/197/197 198/198/198 214/214/214 213/213/213
f 198/198/198 199/199/199 215/215/215 214/214/214
f 199/199/199 200/200/200 216/216/216 215/215/215
f 200/200/200 201/201/201 217/217/217 216/216/216
f 201/201/201 202/202/202 218/218/218 217/217/217
f 202/202/202 203/203/203 219/219/219 218/218/218
f 203/203/203 204/204/204 220/220/220 219/219/219
f 204/204/204 205/205/205 221/221/221 220/220/220
f 205/205/205 206/206/206 222/222/222 221/221/221
f 206/206/206 207/207/207 223/223/223 222/222/222
f 207/207/207 208/208/208 224/224/224 223/223/223
f 209/209/210 210/210/209 226/226/225 225/225/226
f 210/210/209 211/211/211 227/227/227 226/226/225
f 211/211/211 212/212/212 228/228/228 227/227/227
f 212/212/212 213/213/213 229/229/229 228/228/228
f 213/213/213 214/214/214 230/230/230 229/229/229
f 214/214/214 215/215/215 231/231/231 230/230/230
f 215/215/215 216/216/216 232/232/232 231/231/231
f 216/216/216 217/217/217 233/233/233 232/232/232
f 217/217/217 218/218/218 234/234/234 233/233/233
f 218/218/218 219/219/219 235/235/235 234/234/234
f 219/219/219 220/220/220 236/236/236 235/235/235
f 220/220/220 221/221/221 237/237/237 236/236/236
f 221/221/221 222/222/222 238/238/238 237/237/237
f 222/222/222 223/223/223 239/239/239 238/238/238
f 223/223/223 224/224/224 240/240/240 239/239/239
f 225/225/226 226/226/225 242/242/241 241/241/242
f 226/226/225 227/227/227 243/243/243 242/242/241
f 227/227/227 228/228/228 244/244/244 243/243/243
f 228/228/228 229/229/229 245/245/245 244/244/244
f 229/229/229 230/230/230 246/246/246 245/245/245
f 230/230/230 231/231/231 247/247/247 246/246/246
f 231/231/231 232/232/232 248/248/248 247/247/247
f 232/232/232 233/233/233 249/249/249 248/248/248
f 233/233/233 234/234/234 250/250/250 249/249/249
f 234/234/234 235/235/235 251/251/251 250/250/250
f 235/235/235 236/236/236 252/252/252 251/251/251
f 236/236/236 237/237/237 253/253/253 252/252/252
f 237/237/237 238/238/238 254/254/254 253/253/253
f 238/238/238 239/239/239 255/255/255 254/254/254
f 239/239/239 240/240/240 256/256/256 255/255/255
s 2
f 241/241/257 242/242/258 258/258/259 257/257/260
f 242/242/258 243/243/261 259/259/262 258/258/259
f 243/243/261 244/244/263 260/260/264 259/259/262
f 244/244/263 245/245/265 261/261/266 260/260/264
f 245/245/265 246/246/267 262/262/268 261/261/266
f 246/246/267 247/247/269 263/263/270 262/262/268
f 247/247/269 248/248/271 264/264/272 263/263/270
f 248/248/271 249/249/273 265/265/274 264/264/272
f 249/249/273 250/250/275 266/266/276 265/265/274
f 250/250/275 251/251/277 267/267/278 266/266/276
f 251/251/277 252/252/279 268/268/280 267/267/278
f 252/252/279 253/253/281 269/269/282 268/268/280
f 253/253/281 254/254/283 270/270/284 269/269/282
f 254/254/283 255/255/285 271/271/286 270/270/284
f 255/255/285 256/256/287 272/272/288 271/271/286
s 3
f 257/257/289 258/258/290 274/274/291 273/273/292
f 258/258/290 259/259/293 275/275/294 274/274/291
f 259/259/293 260/260/295 276/276/296 275/275/294
f 260/260/295 261/261/297 277/277/298 276/276/296
f 261/261/297 262/262/299 278/278/300 277/277/298
f 262/262/299 263/263/301 279/279/302 278/278/300
f 263/263/301 264/264/303 280/280/304 279/279/302
f 264/264/303 265/265/305 281/281/306 280/280/304
f 265/265/305 266/266/307 282/282/308 281/281/306
f 266/266/307 267/267/309 283/283/310 282/282/308
f 267/267/309 268/268/311 284/284/312 283/283/310
f 268/268/311 269/269/313 285/285/314 284/284/312
f 269/269/313 270/270/315 286/286/316 285/285/314
f 270/270/315 271/271/317 287/287/318 286/286/316
f 271/271/317 272/272/319 288/288/320 287/287/318
f 273/273/292 274/274/291 290/290/321 289/289/322
f 274/274/291 275/275/294 291/291/323 290/290/321
f 275/275/294 276/276/296 292/292/324 291/291/323
f 276/276/296 277/277/298 293/293/325 292/292/324
f 277/277/298 278/278/300 294/294/326 293/293/325
f 278/278/300 279/279/302 295/295/327 294/294/326
f 279/279/302 280/280/304 296/296/328 295/295/327
f 280/280/304 281/281/306 297/297/329 296/296/328
f 281/281/306 282/282/308 298/298/330 297/297/329
f 282/282/308 283/283/310 299/299/331 298/298/330
f 283/283/310 284/284/312 300/300/332 299/299/331
f 284/284/312 285/285/314 301/301/333 300/300/332
f 285/285/314 286/286/316 302/302/334 301/301/333
f 286/286/316 287/287/318 303/303/335 302/302/334
f 287/287/318 288/288/320 304/304/336 303/303/335
f 289/289/322 290/290/321 306/306/337 305/305/338
f 290/290/321 291/291/323 307/307/339 306/306/337
f 291/291/323 292/292/324 308/308/340 307/307/339
f 292/292/324 293/293/325 309/309/341 308/308/340
f 293/293/325 294/294/326 310/310/342 309/309/341
f 294/294/326 295/295/327 311/311/343 310/310/342
f 295/295/327 296/296/328 312/312/344 311/311/343
f 296/296/328 297/297/329 313/313/345 312/312/344
f 297/297/329 298/298/330 314/314/346 313/313/345
f 298/298/330 299/299/331 315/315/347 314/314/346
f 299/299/331 300/300/332 316/316/348 315/315/347
f 300/300/332 301/301/333 317/317/349 316/316/348
f 301/301/333 302/302/334 318/318/350 317/317/349
f 302/302/334 303/303/335 319/319/351 318/318/350
f 303/303/335 304/304/336 320/320/352 319/319/351
f 305/305/338 306/306/337 322/322/353 321/321/354
f 306/306/337 307/307/339 323/323/355 322/322/353
f 307/307/339 308/308/340 324/324/356 323/323/355
f 308/308/340 309/309/341 325/325/357 324/324/356
f 309/309/341 310/310/342 326/326/358 325/325/357
f 310/310/342 311/311/343 327/327/359 326/326/358
f 311/311/343 312/312/344 328/328/360 327/327/359
f 312/312/344 313/313/345 329/329/361 328/328/360
f 313/313/345 314/314/346 330/330/362 329/329/361
f 314/314/346 315/315/347 331/331/363 330/330/362
f 315/315/347 316/316/348 332/332/364 331/331/363
f 316/316/348 317/317/349 333/333/365 332/332/364
f 317/317/349 318/318/350 334/334/366 333/333/365
f 318/318/350 319/319/351 335/335/367 334/334/366
f 319/319/351 320/320/352 336/336/368 335/335/367
f 321/321/354 322/322/353 338/338/369 337/337/370
f 322/322/353 323/323/355 339/339/371 338/338/369
f 323/323/355 324/324/356 340/340/372 339/339/371
f 324/324/356 325/325/357 341/341/373 340/340/372
f 325/325/357 326/326/358 342/342/374 341/341/373
f 326/326/358 327/327/359 343/343/375 342/342/374
f 327/327/359 328/328/360 344/344/376 343/343/375
f 328/328/360 329/329/361 345/345/377 344/344/376
f 329/329/361 330/330/362 346/346/378 345/345/377
f 330/330/362 331/331/363 347/347/379 346/346/378
f 331/331/363 332/332/364 348/348/380 347/347/379
f 332/332/364 333/333/365 349/349/381 348/348/380
f 333/333/365 334/334/366 350/350/382 349/349/381
f 334/334/366 335/335/367 351/351/383 350/350/382
f 335/335/367 336/336/368 352/352/384 351/351/383
f 337/337/370 338/338/369 354/354/385 353/353/386
f 338/338/369 339/339/371 355/355/387 354/354/385
f 339/339/371 340/340/372 356/356/388 355/355/387
f 340/340/372 341/341/373 357/357/389 356/356/388
f 341/341/373 342/342/374 358/358/390 357/357/389
f 342/342/374 343/343/375 359/359/391 358/358/390
f 343/343/375 344/344/376 360/360/392 359/359/391
f 344/344/376 345/345/377 361/361/393 360/360/392
f 345/345/377 346/346/378 362/362/394 361/361/393
f 346/346/378 347/347/379 363/363/395 362/362/394
f 347/347/379 348/348/380 364/364/396 363/363/395
f 348/348/380 349/349/381 365/365/397 364/364/396
f 349/349/381 350/350/382 366/366/398 365/365/397
f 350/350/382 351/351/383 367/367/399 366/366/398
f 351/351/383 352/352/384 368/368/400 367/367/399
f 353/353/386 354/354/385 370/370/401 369/369/402
f 354/354/385 355/355/387 371/371/403 370/370/401
f 355/355/387 356/356/388 372/372/404 371/371/403
f 356/356/388 357/357/389 373/373/405 372/372/404
f 357/357/389 358/358/390 374/374/406 373/373/405
f 358/358/390 359/359/391 375/375/407 374/374/406
f 359/359/391 360/360/392 376/376/408 375/375/407
f 360/360/392 361/361/393 377/377/409 376/376/408
f 361/361/393 362/362/394 378/378/410 377/377/409
f 362/362/394 363/363/395 379/379/411 378/378/410
f 363/363/395 364/364/396 380/380/412 379/379/411
f 364/364/396 365/365/397 381/381/413 380/380/412
f 365/365/397 366/366/398 382/382/414 381/381/413
f 366/366/398 367/367/399 383/383/415 382/382/414
f 367/367/399 368/368/400 384/384/416 383/383/415
f 369/369/402 370/370/401 386/386/417 385/385/418
f 370/370/401 371/371/403 387/387/419 386/386/417
f 371/371/403 372/372/404 388/388/420 387/387/419
f 372/372/404 373/373/405 389/389/421 388/388/420
f 373/373/405 374/374/406 390/390/422 389/389/421
f 374/374/406 375/375/407 391/391/423 390/390/422
f 375/375/407 376/376/408 392/392/424 391/391/423
f 376/376/408 377/377/409 393/393/425 392/392/424
f 377/377/409 378/378/410 394/394/426 393/393/425
f 378/378/410 379/379/411 395/395/427 394/394/426
f 379/379/411 380/380/412 396/396/428 395/395/427
f 380/380/412 381/381/413 397/397/429 396/396/428
f 381/381/413 382/382/414 398/398/430 397/397/429
f 382/382/414 383/383/415 399/399/431 398/398/430
f 383/383/415 384/384/416 400/400/432 399/399/431
f 385/385/418 386/386/417 402/402/433 401/401/434
f 386/386/417 387/387/419 403/403/435 402/402/433
f 387/387/419 388/388/420 404/404/436 403/403/435
f 388/388/420 389/389/421 405/405/437 404/404/436
f 389/389/421 390/390/422 406/406/438 405/405/437
f 390/390/422 391/391/423 407/407/439 406/406/438
f 391/391/423 392/392/424 408/408/440 407/407/439
f 392/392/424 393/393/425 409/409/441 408/408/440
f 393/393/425 394/394/426 410/410/442 409/409/441
f 394/394/426 395/395/427 411/411/443 410/410/442
f 395/395/427 396/396/428 412/412/444 411/411/443
f 396/396/428 397/397/429 413/413/445 412/412/444
f 397/397/429 398/398/430 414/414/446 413/413/445
f 398/398/430 399/399/431 415/415/447 414/414/446
f 399/399/431 400/400/432 416/416/448 415/415/447
f 401/401/434 402/402/433 418/418/449 417/417/450
f 402/402/433 403/403/435 419/419/451 418/418/449
f 403/403/435 404/404/436 420/420/452 419/419/451
f 404/404/436 405/405/437 421/421/453 420/420/452
f 405/405/437 406/406/438 422/422/454 421/421/453
f 406/406/438 407/407/439 423/423/455 422/422/454
f 407/407/439 408/408/440 424/424/456 423/423/455
f 408/408/440 409/409/441 425/425/457 424/424/456
f 409/409/441 410/410/442 426/426/458 425/425/457
f 410/410/442 411/411/443 427/427/459 426/426/458
f 411/411/443 412/412/444 428/428/460 427/427/459
f 412/412/444 413/413/445 429/429/461 428/428/460
f 413/413/445 414/414/446 430/430/462 429/429/461
f 414/414/446 415/415/447 431/431/463 430/430/462
f 415/415/447 416/416/448 432/432/464 431/431/463
f 417/417/450 418/418/449 434/434/465 433/433/466
f 418/418/449 419/419/451 435/435/467 434/434/465
f 419/419/451 420/420/452 436/436/468 435/435/467
f 420/420/452 421/421/453 437/437/469 436/436/468
f 421/421/453 422/422/454 438/438/470 437/437/469
f 422/422/454 423/423/455 439/439/471 438/438/470
f 423/423/455 424/424/456 440/440/472 439/439/471
f 424/424/456 425/425/457 441/441/473 440/440/472
f 425/425/457 426/426/458 442/442/474 441/441/473
f 426/426/458 427/427/459 443/443/475 442/442/474
f 427/427/459 428/428/460 444/444/476 443/443/475
f 428/428/460 429/429/461 445/445/477 444/444/476
f 429/429/461 430/430/462 446/446/478 445/445/477
f 430/430/462 431/431/463 447/447/479 446/446/478
f 431/431/463 432/432/464 448/448/480 447/447/479
f 433/433/466 434/434/465 450/450/481 449/449/482
f 434/434/465 435/435/467 451/451/483 450/450/481
f 435/435/467 436/436/468 452/452/484 451/451/483
f 436/436/468 437/437/469 453/453/485 452/452/484
f 437/437/469 438/438/470 454/454/486 453/453/485
f 438/438/470 439/439/471 455/455/487 454/454/486
f 439/439/471 440/440/472 456/456/488 455/455/487
f 440/440/472 441/441/473 457/457/489 456/456/488
f 441/441/473 442/442/474 458/458/490 457/457/489
f 442/442/474 443/443/475 459/459/491 458/458/490
f 443/443/475 444/444/476 460/460/492 459/459/491
f 444/444/476 445/445/477 461/461/493 460/460/492
f 445/445/477 446/446/478 462/462/494 461/461/493
f 446/446/478 447/447/479 463/463/495 462/462/494
f 447/447/479 448/448/480 464/464/496 463/463/495
f 449/449/482 450/450/481 466/466/497 465/465/498
f 450/450/481 451/451/483 467/467/499 466/466/497
f 451/451/483 452/452/484 468/468/500 467/467/499
f 452/452/484 453/453/485 469/469/501 468/468/500
f 453/453/485 454/454/486 470/470/502 469/469/501
f 454/454/486 455/455/487 471/471/503 470/470/502
f 455/455/487 456/456/488 472/472/504 471/471/503
f 456/456/488 457/457/489 473/473/505 472/472/504
f 457/457/489 458/458/490 474/474/506 473/473/505
f 458/458/490 459/459/491 475/475/507 474/474/506
f 459/459/491 460/460/492 476/476/508 475/475/507
f 460/460/492 461/461/493 477/477/509 476/476/508
f 461/461/493 462/462/494 478/478/510 477/477/509
f 462/462/494 463/463/495 479/479/511 478/478/510
f 463/463/495 464/464/496 480/480/512 479/479/511
f 465/465/498 466/466/497 482/482/513 481/481/514
f 466/466/497 467/467/499 483/483/515 482/482/513
f 467/467/499 468/468/500 484/484/516 483/483/515
f 468/468/500 469/469/501 485/485/517 484/484/516
f 469/469/501 470/470/502 486/486/518 485/485/517
f 470/470/502 471/471/503 487/487/519 486/486/518
f 471/471/503 472/472/504 488/488/520 487/487/519
f 472/472/504 473/473/505 489/489/521 488/488/520
f 473/473/505 474/474/506 490/490/522 489/489/521
f 474/474/506 475/475/507 491/491/523 490/490/522
f 475/475/507 476/476/508 492/492/524 491/491/523
f 476/476/508 477/477/509 493/493/525 492/492/524
f 477/477/509 478/478/510 494/494/526 493/493/525
f 478/478/510 479/479/511 495/495/527 494/494/526
f 479/479/511 480/480/512 496/496/528 495/495/527
f 481/481/514 482/482/513 498/498/529 497/497/530
f 482/482/513 483/483/515 499/499/531 498/498/529
f 483/483/515 484/484/516 500/500/532 499/499/531
f 484/484/516 485/485/517 501/501/533 500/500/532
f 485/485/517 486/486/518 502/502/534 501/501/533
f 486/486/518 487/487/519 503/503/535 502/502/534
f 487/487/519 488/488/520 504/504/536 503/503/535
f 488/488/520 489/489/521 505/505/537 504/504/536
f 489/489/521 490/490/522 506/506/538 505/505/537
f 490/490/522 491/491/523 507/507/539 506/506/538
f 491/491/523 492/492/524 508/508/540 507/507/539
f 492/492/524 493/493/525 509/509/541 508/508/540
f 493/493/525 494/494/526 510/510/542 509/509/541
f 494/494/526 495/495/527 511/511/543 510/510/542
f 495/495/527 496/496/528 512/512/544 511/511/543
s 4
f 497/497/545 498/498/546 2/514/547 1/513/548
f 498/498/546 499/499/549 3/515/550 2/514/547
f 499/499/549 500/500/551 4/516/552 3/515/550
f 500/500/551 501/501/553 5/517/554 4/516/552
f 501/501/553 502/502/555 6/518/556 5/517/554
f 502/502/555 503/503/557 7/519/558 6/518/556
f 503/503/557 504/504/559 8/520/560 7/519/558
f 504/504/559 505/505/561 9/521/562 8/520/560
f 505/505/561 506/506/563 10/522/564 9/521/562
f 506/506/563 507/507/565 11/523/566 10/522/564
f 507/507/565 508/508/567 12/524/568 11/523/566
f 508/508/567 509/509/569 13/525/570 12/524/568
f 509/509/569 510/510/571 14/526/572 13/525/570
f 510/510/571 511/511/573 15/527/574 14/526/572
f 511/511/573 512/512/575 16/528/576 15/527/574
s 5
f 16/16/577 512/529/578 496/530/579 32/32/580
f 32/32/580 496/530/579 480/531/581 48/48/582
f 48/48/582 480/531/581 464/532/583 64/64/584
f 64/64/584 464/532/583 448/533/585 80/80/586
f 80/80/586 448/533/585 432/534/587 96/96/588
f 96/96/588 432/534/587 416/535/589 112/112/590
f 112/112/590 416/535/589 400/536/591 128/128/592
f 128/128/592 400/536/591 384/537/593 144/144/594
f 144/144/594 384/537/593 368/538/595 160/160/596
f 160/160/596 368/538/595 352/539/597 176/176/598
f 176/176/598 352/539/597 336/540/599 192/192/600
f 192/192/600 336/540/599 320/541/601 208/208/602
f 208/208/602 320/541/601 304/542/603 224/224/604
f 224/224/604 304/542/603 288/543/605 240/240/606
f 240/240/606 288/543/605 272/544/607 256/256/608
s 6
f 497/545/609 1/1/610 17/17/611 481/546/612
f 481/546/612 17/17/611 33/33/613 465/547/614
f 465/547/614 33/33/613 49/49/615 449/548/616
f 449/548/616 49/49/615 65/65/617 433/549/618
f 433/549/618 65/65/617 81/81/619 417/550/620
f 417/550/620 81/81/619 97/97/621 401/551/622
f 401/551/622 97/97/621 113/113/623 385/552/624
f 385/552/624 113/113/623 129/129/625 369/553/626
f 369/553/626 129/129/625 145/145/627 353/554/628
f 353/554/628 145/145/627 161/161/629 337/555/630
f 337/555/630 161/161/629 177/177/631 321/556/632
f 321/556/632 177/177/631 193/193/633 305/557/634
f 305/557/634 193/193/633 209/209/635 289/558/636
f 289/558/636 209/209/635 225/225/637 273/559/638
f 273/559/638 225/225/637 241/241/639 257/560/640
