# This file uses centimeters as units for non-parametric coordinates.

mtllib Window.mtl
g default
v -0.092332 -1.300739 2.059592
v 0.092332 -1.300739 2.059592
v -0.092332 1.300739 2.059592
v 0.092332 1.300739 2.059592
v -0.092332 1.300739 -2.059592
v 0.092332 1.300739 -2.059592
v -0.092332 -1.300739 -2.059592
v 0.092332 -1.300739 -2.059592
v 0.092332 -1.199932 -1.899974
v 0.092332 -1.199932 1.899974
v 0.092332 1.199932 -1.899974
v 0.092332 1.199932 1.899974
v -0.092332 -1.199932 -1.899974
v -0.092332 -1.199932 1.899974
v -0.092332 1.199932 1.899974
v -0.092332 1.199932 -1.899974
v 0.000000 -1.199932 -1.899974
v 0.000000 -1.199932 1.899974
v 0.000000 1.199932 -1.899974
v 0.000000 1.199932 1.899974
vt 0.375000 0.000000
vt 0.625000 0.000000
vt 0.375000 0.250000
vt 0.625000 0.250000
vt 0.375000 0.500000
vt 0.625000 0.500000
vt 0.375000 0.750000
vt 0.625000 0.750000
vt 0.375000 1.000000
vt 0.625000 1.000000
vt 0.875000 0.000000
vt 0.875000 0.250000
vt 0.125000 0.000000
vt 0.125000 0.250000
vt 0.625000 0.000000
vt 0.875000 0.000000
vt 0.875000 0.250000
vt 0.625000 0.250000
vt 0.125000 0.000000
vt 0.375000 0.000000
vt 0.375000 0.250000
vt 0.125000 0.250000
vt 0.625000 0.000000
vt 0.875000 0.000000
vt 0.875000 0.250000
vt 0.625000 0.250000
vt 0.125000 0.000000
vt 0.375000 0.000000
vt 0.375000 0.250000
vt 0.125000 0.250000
vn 0.000000 0.000000 1.000000
vn 0.000000 0.000000 1.000000
vn 0.000000 0.000000 1.000000
vn 0.000000 0.000000 1.000000
vn 0.000000 1.000000 0.000000
vn 0.000000 1.000000 0.000000
vn 0.000000 1.000000 0.000000
vn 0.000000 1.000000 0.000000
vn 0.000000 0.000000 -1.000000
vn 0.000000 0.000000 -1.000000
vn 0.000000 0.000000 -1.000000
vn 0.000000 0.000000 -1.000000
vn 0.000000 -1.000000 0.000000
vn 0.000000 -1.000000 0.000000
vn 0.000000 -1.000000 0.000000
vn 0.000000 -1.000000 0.000000
vn 1.000000 0.000000 0.000000
vn 1.000000 0.000000 0.000000
vn 1.000000 0.000000 0.000000
vn 1.000000 0.000000 0.000000
vn 1.000000 0.000000 0.000000
vn 1.000000 0.000000 0.000000
vn 1.000000 0.000000 0.000000
vn 1.000000 0.000000 0.000000
vn -1.000000 0.000000 0.000000
vn -1.000000 0.000000 0.000000
vn -1.000000 0.000000 0.000000
vn -1.000000 0.000000 0.000000
vn -1.000000 0.000000 0.000000
vn -1.000000 0.000000 0.000000
vn -1.000000 0.000000 0.000000
vn -1.000000 0.000000 0.000000
vn 0.000000 1.000000 0.000000
vn 0.000000 1.000000 0.000000
vn 0.000000 1.000000 0.000000
vn 0.000000 1.000000 0.000000
vn 0.000000 0.000000 1.000000
vn 0.000000 0.000000 1.000000
vn 0.000000 0.000000 1.000000
vn 0.000000 0.000000 1.000000
vn 0.000000 -1.000000 0.000000
vn 0.000000 -1.000000 0.000000
vn 0.000000 -1.000000 0.000000
vn 0.000000 -1.000000 0.000000
vn 0.000000 0.000000 -1.000000
vn 0.000000 0.000000 -1.000000
vn 0.000000 0.000000 -1.000000
vn 0.000000 0.000000 -1.000000
vn 0.000000 1.000000 0.000000
vn 0.000000 1.000000 0.000000
vn 0.000000 1.000000 0.000000
vn 0.000000 1.000000 0.000000
vn 0.000000 0.000000 -1.000000
vn 0.000000 0.000000 -1.000000
vn 0.000000 0.000000 -1.000000
vn 0.000000 0.000000 -1.000000
vn 0.000000 -1.000000 0.000000
vn 0.000000 -1.000000 0.000000
vn 0.000000 -1.000000 0.000000
vn 0.000000 -1.000000 0.000000
vn 0.000000 0.000000 1.000000
vn 0.000000 0.000000 1.000000
vn 0.000000 0.000000 1.000000
vn 0.000000 0.000000 1.000000
s off
g pCube1
usemtl initialShadingGroup
f 1/1/1 2/2/2 4/4/3 3/3/4
f 3/3/5 4/4/6 6/6/7 5/5/8
f 5/5/9 6/6/10 8/8/11 7/7/12
f 7/7/13 8/8/14 2/10/15 1/9/16
s 1
f 2/2/17 8/11/18 9/16/19 10/15/20
f 8/11/18 6/12/21 11/17/22 9/16/19
f 6/12/21 4/4/23 12/18/24 11/17/22
f 4/4/23 2/2/17 10/15/20 12/18/24
s 2
f 7/13/25 1/1/26 14/20/27 13/19/28
f 1/1/26 3/3/29 15/21/30 14/20/27
f 3/3/29 5/14/31 16/22/32 15/21/30
f 5/14/31 7/13/25 13/19/28 16/22/32
s off
f 10/15/33 9/16/34 17/24/35 18/23/36
f 9/16/37 11/17/38 19/25/39 17/24/40
f 11/17/41 12/18/42 20/26/43 19/25/44
f 12/18/45 10/15/46 18/23/47 20/26/48
f 13/19/49 14/20/50 18/28/51 17/27/52
f 14/20/53 15/21/54 20/29/55 18/28/56
f 15/21/57 16/22/58 19/30/59 20/29/60
f 16/22/61 13/19/62 17/27/63 19/30/64
g default
v -0.031810 -1.211430 1.908586
v 0.031810 -1.211430 1.908586
v -0.031810 1.211430 1.908586
v 0.031810 1.211430 1.908586
v -0.031810 1.211430 -1.908586
v 0.031810 1.211430 -1.908586
v -0.031810 -1.211430 -1.908586
v 0.031810 -1.211430 -1.908586
vt 0.375000 0.000000
vt 0.625000 0.000000
vt 0.375000 0.250000
vt 0.625000 0.250000
vt 0.375000 0.500000
vt 0.625000 0.500000
vt 0.375000 0.750000
vt 0.625000 0.750000
vt 0.375000 1.000000
vt 0.625000 1.000000
vt 0.875000 0.000000
vt 0.875000 0.250000
vt 0.125000 0.000000
vt 0.125000 0.250000
vn 0.000000 0.000000 1.000000
vn 0.000000 0.000000 1.000000
vn 0.000000 0.000000 1.000000
vn 0.000000 0.000000 1.000000
vn 0.000000 1.000000 0.000000
vn 0.000000 1.000000 0.000000
vn 0.000000 1.000000 0.000000
vn 0.000000 1.000000 0.000000
vn 0.000000 0.000000 -1.000000
vn 0.000000 0.000000 -1.000000
vn 0.000000 0.000000 -1.000000
vn 0.000000 0.000000 -1.000000
vn 0.000000 -1.000000 0.000000
vn 0.000000 -1.000000 0.000000
vn 0.000000 -1.000000 0.000000
vn 0.000000 -1.000000 0.000000
vn 1.000000 0.000000 0.000000
vn 1.000000 0.000000 0.000000
vn 1.000000 0.000000 0.000000
vn 1.000000 0.000000 0.000000
vn -1.000000 0.000000 0.000000
vn -1.000000 0.000000 0.000000
vn -1.000000 0.000000 0.000000
vn -1.000000 0.000000 0.000000
s off
g pCube2
usemtl initialShadingGroup
f 21/31/65 22/32/66 24/34/67 23/33/68
f 23/33/69 24/34/70 26/36/71 25/35/72
f 25/35/73 26/36/74 28/38/75 27/37/76
f 27/37/77 28/38/78 22/40/79 21/39/80
f 22/32/81 28/41/82 26/42/83 24/34/84
f 27/43/85 21/31/86 23/33/87 25/44/88
